MerriweatherSans-Bold.ufo
<glyph name="asterisk" format="2">
  <advance width="658.0"/>
  <unicode hex="002A"/>
  <outline>
    <contour>
      <point x="275.0" y="294.0" type="line"/>
      <point x="390.0" y="294.0" type="line"/>
      <point x="377.0" y="438.0" type="line"/>
      <point x="375.0" y="453.0"/>
      <point x="356.0" y="516.0"/>
      <point x="354.0" y="526.0" type="curve"/>
      <point x="423.0" y="463.0" type="line"/>
      <point x="537.0" y="384.0" type="line"/>
      <point x="595.0" y="488.0" type="line"/>
      <point x="469.0" y="548.0" type="line"/>
      <point x="379.0" y="572.0" type="line"/>
      <point x="468.0" y="599.0" type="line"/>
      <point x="591.0" y="663.0" type="line"/>
      <point x="537.0" y="764.0" type="line"/>
      <point x="418.0" y="683.0" type="line"/>
      <point x="407.0" y="673.0"/>
      <point x="361.0" y="624.0"/>
      <point x="354.0" y="617.0" type="curve"/>
      <point x="375.0" y="707.0" type="line"/>
      <point x="383.0" y="848.0" type="line"/>
      <point x="268.0" y="848.0" type="line"/>
      <point x="280.0" y="705.0" type="line"/>
      <point x="282.0" y="689.0"/>
      <point x="301.0" y="626.0"/>
      <point x="303.0" y="616.0" type="curve"/>
      <point x="236.0" y="679.0" type="line"/>
      <point x="117.0" y="759.0" type="line"/>
      <point x="63.0" y="658.0" type="line"/>
      <point x="189.0" y="595.0" type="line"/>
      <point x="203.0" y="590.0"/>
      <point x="268.0" y="576.0"/>
      <point x="278.0" y="572.0" type="curve"/>
      <point x="189.0" y="546.0" type="line"/>
      <point x="66.0" y="480.0" type="line"/>
      <point x="124.0" y="379.0" type="line"/>
      <point x="238.0" y="460.0" type="line"/>
      <point x="304.0" y="527.0" type="line"/>
      <point x="283.0" y="437.0" type="line"/>
    </contour>
  </outline>
</glyph>
<glyph name="one" format="2">
  <advance width="490.0"/>
  <unicode hex="0031"/>
  <outline>
    <contour>
      <point x="191.0" y="0.0" type="line"/>
      <point x="348.0" y="0.0" type="line"/>
      <point x="349.0" y="742.0" type="line"/>
      <point x="273.0" y="752.0" type="line"/>
      <point x="236.0" y="721.0"/>
      <point x="127.0" y="668.0"/>
      <point x="62.0" y="651.0" type="curve"/>
      <point x="75.0" y="561.0" type="line"/>
      <point x="113.0" y="568.0"/>
      <point x="152.0" y="574.0"/>
      <point x="191.0" y="584.0" type="curve"/>
    </contour>
  </outline>
</glyph>
<glyph name="three" format="2">
  <advance width="571.0"/>
  <unicode hex="0033"/>
  <outline>
    <contour>
      <point x="60.0" y="12.0" type="line"/>
      <point x="79.0" y="6.0"/>
      <point x="122.0" y="-11.0"/>
      <point x="197.0" y="-11.0" type="curve" smooth="yes"/>
      <point x="396.0" y="-11.0"/>
      <point x="529.0" y="96.0"/>
      <point x="529.0" y="223.0" type="curve" smooth="yes"/>
      <point x="529.0" y="304.0"/>
      <point x="473.0" y="397.0"/>
      <point x="329.0" y="394.0" type="curve"/>
      <point x="329.0" y="381.0" type="line"/>
      <point x="415.0" y="411.0"/>
      <point x="490.0" y="478.0"/>
      <point x="490.0" y="576.0" type="curve" smooth="yes"/>
      <point x="490.0" y="682.0"/>
      <point x="412.0" y="753.0"/>
      <point x="253.0" y="753.0" type="curve" smooth="yes"/>
      <point x="160.0" y="753.0"/>
      <point x="66.0" y="710.0"/>
      <point x="38.0" y="679.0" type="curve"/>
      <point x="83.0" y="584.0" type="line"/>
      <point x="114.0" y="606.0"/>
      <point x="159.0" y="633.0"/>
      <point x="232.0" y="633.0" type="curve" smooth="yes"/>
      <point x="290.0" y="633.0"/>
      <point x="334.0" y="611.0"/>
      <point x="333.0" y="555.0" type="curve" smooth="yes"/>
      <point x="332.0" y="510.0"/>
      <point x="307.0" y="481.0"/>
      <point x="258.0" y="453.0" type="curve" smooth="yes"/>
      <point x="230.0" y="437.0"/>
      <point x="183.0" y="424.0"/>
      <point x="139.0" y="414.0" type="curve"/>
      <point x="160.0" y="318.0" type="line"/>
      <point x="228.0" y="335.0" type="line"/>
      <point x="331.0" y="339.0"/>
      <point x="367.0" y="289.0"/>
      <point x="367.0" y="222.0" type="curve" smooth="yes"/>
      <point x="367.0" y="146.0"/>
      <point x="274.0" y="100.0"/>
      <point x="151.0" y="100.0" type="curve" smooth="yes"/>
      <point x="122.0" y="100.0"/>
      <point x="91.0" y="105.0"/>
      <point x="60.0" y="111.0" type="curve"/>
    </contour>
  </outline>
</glyph>
<glyph name="six" format="2">
  <advance width="690.0"/>
  <unicode hex="0036"/>
  <outline>
    <contour>
      <point x="62.0" y="286.0" type="curve" smooth="yes"/>
      <point x="62.0" y="126.0"/>
      <point x="164.0" y="-8.0"/>
      <point x="337.0" y="-8.0" type="curve" smooth="yes"/>
      <point x="536.0" y="-8.0"/>
      <point x="627.0" y="123.0"/>
      <point x="627.0" y="271.0" type="curve" smooth="yes"/>
      <point x="627.0" y="393.0"/>
      <point x="551.0" y="497.0"/>
      <point x="416.0" y="497.0" type="curve" smooth="yes"/>
      <point x="342.0" y="497.0"/>
      <point x="292.0" y="470.0"/>
      <point x="273.0" y="451.0" type="curve"/>
      <point x="304.0" y="362.0" type="line"/>
      <point x="318.0" y="370.0"/>
      <point x="342.0" y="380.0"/>
      <point x="380.0" y="380.0" type="curve" smooth="yes"/>
      <point x="430.0" y="380.0"/>
      <point x="473.0" y="346.0"/>
      <point x="473.0" y="236.0" type="curve" smooth="yes"/>
      <point x="473.0" y="154.0"/>
      <point x="434.0" y="99.0"/>
      <point x="351.0" y="99.0" type="curve" smooth="yes"/>
      <point x="255.0" y="99.0"/>
      <point x="223.0" y="200.0"/>
      <point x="225.0" y="330.0" type="curve" smooth="yes"/>
      <point x="228.0" y="473.0"/>
      <point x="340.0" y="652.0"/>
      <point x="526.0" y="700.0" type="curve"/>
      <point x="489.0" y="791.0" type="line"/>
      <point x="309.0" y="763.0"/>
      <point x="62.0" y="574.0"/>
    </contour>
  </outline>
</glyph>
<glyph name="eight" format="2">
  <advance width="662.0"/>
  <unicode hex="0038"/>
  <outline>
    <contour>
      <point x="338.0" y="-8.0" type="curve" smooth="yes"/>
      <point x="487.0" y="-8.0"/>
      <point x="604.0" y="64.0"/>
      <point x="603.0" y="200.0" type="curve" smooth="yes"/>
      <point x="601.0" y="402.0"/>
      <point x="229.0" y="422.0"/>
      <point x="229.0" y="572.0" type="curve" smooth="yes"/>
      <point x="229.0" y="619.0"/>
      <point x="274.0" y="651.0"/>
      <point x="331.0" y="651.0" type="curve" smooth="yes"/>
      <point x="398.0" y="651.0"/>
      <point x="437.0" y="615.0"/>
      <point x="437.0" y="569.0" type="curve" smooth="yes"/>
      <point x="437.0" y="511.0"/>
      <point x="406.0" y="459.0"/>
      <point x="332.0" y="437.0" type="curve"/>
      <point x="393.0" y="374.0" type="line"/>
      <point x="517.0" y="408.0"/>
      <point x="572.0" y="502.0"/>
      <point x="572.0" y="581.0" type="curve" smooth="yes"/>
      <point x="572.0" y="683.0"/>
      <point x="483.0" y="753.0"/>
      <point x="333.0" y="753.0" type="curve" smooth="yes"/>
      <point x="182.0" y="753.0"/>
      <point x="88.0" y="676.0"/>
      <point x="88.0" y="562.0" type="curve" smooth="yes"/>
      <point x="88.0" y="317.0"/>
      <point x="451.0" y="323.0"/>
      <point x="451.0" y="185.0" type="curve" smooth="yes"/>
      <point x="451.0" y="124.0"/>
      <point x="398.0" y="94.0"/>
      <point x="338.0" y="94.0" type="curve" smooth="yes"/>
      <point x="245.0" y="94.0"/>
      <point x="207.0" y="143.0"/>
      <point x="207.0" y="197.0" type="curve" smooth="yes"/>
      <point x="207.0" y="264.0"/>
      <point x="257.0" y="309.0"/>
      <point x="324.0" y="335.0" type="curve"/>
      <point x="258.0" y="399.0" type="line"/>
      <point x="114.0" y="345.0"/>
      <point x="63.0" y="261.0"/>
      <point x="63.0" y="188.0" type="curve" smooth="yes"/>
      <point x="63.0" y="57.0"/>
      <point x="180.0" y="-8.0"/>
    </contour>
  </outline>
</glyph>
<glyph name="equal" format="2">
  <advance width="695.0"/>
  <unicode hex="003D"/>
  <outline>
    <contour>
      <point x="123.0" y="451.0" type="line"/>
      <point x="572.0" y="451.0" type="line"/>
      <point x="572.0" y="556.0" type="line"/>
      <point x="123.0" y="556.0" type="line"/>
    </contour>
    <contour>
      <point x="123.0" y="201.0" type="line"/>
      <point x="572.0" y="201.0" type="line"/>
      <point x="572.0" y="306.0" type="line"/>
      <point x="123.0" y="306.0" type="line"/>
    </contour>
  </outline>
</glyph>
<glyph name="question" format="2">
  <advance width="516.0"/>
  <unicode hex="003F"/>
  <outline>
    <contour>
      <point x="165.0" y="247.0" type="curve"/>
      <point x="281.0" y="247.0" type="line"/>
      <point x="269.0" y="290.0"/>
      <point x="260.0" y="311.0"/>
      <point x="263.0" y="347.0" type="curve" smooth="yes"/>
      <point x="273.0" y="477.0"/>
      <point x="481.0" y="500.0"/>
      <point x="481.0" y="681.0" type="curve" smooth="yes"/>
      <point x="484.0" y="793.0"/>
      <point x="412.0" y="901.0"/>
      <point x="193.0" y="901.0" type="curve" smooth="yes"/>
      <point x="131.0" y="901.0"/>
      <point x="81.0" y="889.0"/>
      <point x="62.0" y="877.0" type="curve"/>
      <point x="62.0" y="764.0" type="line"/>
      <point x="77.0" y="768.0"/>
      <point x="102.0" y="777.0"/>
      <point x="162.0" y="777.0" type="curve" smooth="yes"/>
      <point x="271.0" y="777.0"/>
      <point x="321.0" y="743.0"/>
      <point x="321.0" y="674.0" type="curve" smooth="yes"/>
      <point x="321.0" y="545.0"/>
      <point x="125.0" y="530.0"/>
      <point x="126.0" y="378.0" type="curve" smooth="yes"/>
      <point x="127.0" y="314.0"/>
      <point x="146.0" y="274.0"/>
    </contour>
    <contour>
      <point x="235.0" y="-11.0" type="curve" smooth="yes"/>
      <point x="286.0" y="-11.0"/>
      <point x="329.0" y="33.0"/>
      <point x="329.0" y="84.0" type="curve" smooth="yes"/>
      <point x="328.0" y="132.0"/>
      <point x="295.0" y="169.0"/>
      <point x="243.0" y="169.0" type="curve" smooth="yes"/>
      <point x="193.0" y="169.0"/>
      <point x="148.0" y="126.0"/>
      <point x="149.0" y="75.0" type="curve" smooth="yes"/>
      <point x="150.0" y="26.0"/>
      <point x="188.0" y="-11.0"/>
    </contour>
  </outline>
</glyph>
<glyph name="at" format="2">
  <advance width="1088.0"/>
  <unicode hex="0040"/>
  <outline>
    <contour>
      <point x="514.0" y="-229.0" type="curve" smooth="yes"/>
      <point x="636.0" y="-229.0"/>
      <point x="715.0" y="-196.0"/>
      <point x="764.0" y="-167.0" type="curve"/>
      <point x="743.0" y="-89.0" type="line"/>
      <point x="704.0" y="-110.0"/>
      <point x="649.0" y="-142.0"/>
      <point x="524.0" y="-142.0" type="curve" smooth="yes"/>
      <point x="361.0" y="-142.0"/>
      <point x="187.0" y="-54.0"/>
      <point x="187.0" y="219.0" type="curve" smooth="yes"/>
      <point x="187.0" y="497.0"/>
      <point x="383.0" y="667.0"/>
      <point x="604.0" y="667.0" type="curve" smooth="yes"/>
      <point x="756.0" y="667.0"/>
      <point x="902.0" y="612.0"/>
      <point x="902.0" y="378.0" type="curve" smooth="yes"/>
      <point x="902.0" y="207.0"/>
      <point x="818.0" y="96.0"/>
      <point x="747.0" y="96.0" type="curve" smooth="yes"/>
      <point x="722.0" y="96.0"/>
      <point x="716.0" y="121.0"/>
      <point x="731.0" y="209.0" type="curve" smooth="yes"/>
      <point x="748.0" y="301.0"/>
      <point x="777.0" y="445.0"/>
      <point x="794.0" y="516.0" type="curve"/>
      <point x="704.0" y="500.0" type="line"/>
      <point x="676.0" y="520.0"/>
      <point x="632.0" y="527.0"/>
      <point x="590.0" y="527.0" type="curve" smooth="yes"/>
      <point x="390.0" y="527.0"/>
      <point x="305.0" y="349.0"/>
      <point x="301.0" y="215.0" type="curve" smooth="yes"/>
      <point x="298.0" y="68.0"/>
      <point x="376.0" y="-2.0"/>
      <point x="441.0" y="-2.0" type="curve" smooth="yes"/>
      <point x="563.0" y="-2.0"/>
      <point x="638.0" y="140.0"/>
      <point x="679.0" y="260.0" type="curve"/>
      <point x="677.0" y="260.0"/>
      <point x="644.0" y="260.0"/>
      <point x="642.0" y="260.0" type="curve"/>
      <point x="618.0" y="169.0"/>
      <point x="617.0" y="120.0"/>
      <point x="619.0" y="89.0" type="curve" smooth="yes"/>
      <point x="624.0" y="30.0"/>
      <point x="651.0" y="-2.0"/>
      <point x="711.0" y="-2.0" type="curve" smooth="yes"/>
      <point x="855.0" y="-2.0"/>
      <point x="1004.0" y="131.0"/>
      <point x="1004.0" y="393.0" type="curve" smooth="yes"/>
      <point x="1004.0" y="629.0"/>
      <point x="839.0" y="753.0"/>
      <point x="612.0" y="753.0" type="curve" smooth="yes"/>
      <point x="321.0" y="753.0"/>
      <point x="83.0" y="539.0"/>
      <point x="83.0" y="215.0" type="curve" smooth="yes"/>
      <point x="83.0" y="-91.0"/>
      <point x="279.0" y="-229.0"/>
    </contour>
    <contour>
      <point x="476.0" y="108.0" type="curve" smooth="yes"/>
      <point x="439.0" y="108.0"/>
      <point x="419.0" y="145.0"/>
      <point x="420.0" y="228.0" type="curve" smooth="yes"/>
      <point x="421.0" y="323.0"/>
      <point x="484.0" y="431.0"/>
      <point x="575.0" y="431.0" type="curve" smooth="yes"/>
      <point x="611.0" y="431.0"/>
      <point x="640.0" y="421.0"/>
      <point x="652.0" y="405.0" type="curve"/>
      <point x="637.0" y="295.0"/>
      <point x="543.0" y="108.0"/>
    </contour>
  </outline>
</glyph>
<glyph name="B" format="2">
  <advance width="694.0"/>
  <unicode hex="0042"/>
  <anchor x="347.0" y="0.0" name="bottom"/>
  <anchor x="392.0" y="-83.0" name="btm"/>
  <anchor x="345.0" y="831.0" name="top"/>
  <outline>
    <contour>
      <point x="92.0" y="0.0" type="line"/>
      <point x="170.0" y="0.0" type="line"/>
      <point x="209.0" y="-2.0"/>
      <point x="285.0" y="-7.0"/>
      <point x="349.0" y="-7.0" type="curve" smooth="yes"/>
      <point x="583.0" y="-7.0"/>
      <point x="653.0" y="91.0"/>
      <point x="653.0" y="225.0" type="curve" smooth="yes"/>
      <point x="653.0" y="321.0"/>
      <point x="590.0" y="385.0"/>
      <point x="502.0" y="395.0" type="curve"/>
      <point x="573.0" y="414.0"/>
      <point x="614.0" y="482.0"/>
      <point x="614.0" y="563.0" type="curve" smooth="yes"/>
      <point x="614.0" y="673.0"/>
      <point x="530.0" y="750.0"/>
      <point x="342.0" y="750.0" type="curve" smooth="yes"/>
      <point x="267.0" y="750.0"/>
      <point x="217.0" y="743.0"/>
      <point x="167.0" y="743.0" type="curve"/>
      <point x="92.0" y="744.0" type="line"/>
    </contour>
    <contour>
      <point x="246.0" y="436.0" type="curve"/>
      <point x="246.0" y="630.0" type="line"/>
      <point x="257.0" y="635.0"/>
      <point x="308.0" y="637.0"/>
      <point x="325.0" y="637.0" type="curve" smooth="yes"/>
      <point x="415.0" y="637.0"/>
      <point x="466.0" y="611.0"/>
      <point x="466.0" y="549.0" type="curve" smooth="yes"/>
      <point x="466.0" y="465.0"/>
      <point x="429.0" y="432.0"/>
      <point x="339.0" y="432.0" type="curve" smooth="yes"/>
      <point x="319.0" y="432.0"/>
      <point x="266.0" y="433.0"/>
    </contour>
    <contour>
      <point x="246.0" y="113.0" type="curve"/>
      <point x="246.0" y="324.0" type="line"/>
      <point x="260.0" y="327.0"/>
      <point x="321.0" y="328.0"/>
      <point x="353.0" y="328.0" type="curve" smooth="yes"/>
      <point x="452.0" y="328.0"/>
      <point x="496.0" y="294.0"/>
      <point x="496.0" y="218.0" type="curve" smooth="yes"/>
      <point x="496.0" y="130.0"/>
      <point x="447.0" y="101.0"/>
      <point x="354.0" y="101.0" type="curve" smooth="yes"/>
      <point x="322.0" y="101.0"/>
      <point x="260.0" y="102.0"/>
    </contour>
  </outline>
</glyph>
<glyph name="C" format="2">
  <advance width="634.0"/>
  <unicode hex="0043"/>
  <anchor x="317.0" y="0.0" name="bottom"/>
  <anchor x="401.0" y="-83.0" name="btm"/>
  <anchor x="406.0" y="830.0" name="top"/>
  <outline>
    <contour>
      <point x="49.0" y="370.0" type="curve" smooth="yes"/>
      <point x="49.0" y="145.0"/>
      <point x="191.0" y="-8.0"/>
      <point x="420.0" y="-8.0" type="curve" smooth="yes"/>
      <point x="510.0" y="-8.0"/>
      <point x="564.0" y="14.0"/>
      <point x="607.0" y="31.0" type="curve"/>
      <point x="607.0" y="159.0" type="line"/>
      <point x="581.0" y="140.0"/>
      <point x="502.0" y="112.0"/>
      <point x="435.0" y="112.0" type="curve" smooth="yes"/>
      <point x="293.0" y="112.0"/>
      <point x="209.0" y="225.0"/>
      <point x="209.0" y="379.0" type="curve" smooth="yes"/>
      <point x="209.0" y="536.0"/>
      <point x="302.0" y="628.0"/>
      <point x="423.0" y="628.0" type="curve" smooth="yes"/>
      <point x="523.0" y="628.0"/>
      <point x="566.0" y="600.0"/>
      <point x="593.0" y="585.0" type="curve"/>
      <point x="615.0" y="722.0" type="line"/>
      <point x="568.0" y="731.0"/>
      <point x="521.0" y="751.0"/>
      <point x="413.0" y="751.0" type="curve" smooth="yes"/>
      <point x="210.0" y="751.0"/>
      <point x="49.0" y="616.0"/>
    </contour>
  </outline>
</glyph>
<glyph name="D" format="2">
  <advance width="759.0"/>
  <unicode hex="0044"/>
  <anchor x="380.0" y="0.0" name="bottom"/>
  <anchor x="341.0" y="-83.0" name="btm"/>
  <anchor x="380.0" y="372.0" name="center"/>
  <anchor x="374.0" y="830.0" name="top"/>
  <outline>
    <contour>
      <point x="92.0" y="0.0" type="line"/>
      <point x="117.0" y="0.0"/>
      <point x="142.0" y="0.0"/>
      <point x="167.0" y="0.0" type="curve" smooth="yes"/>
      <point x="212.0" y="0.0"/>
      <point x="265.0" y="-7.0"/>
      <point x="334.0" y="-8.0" type="curve" smooth="yes"/>
      <point x="563.0" y="-10.0"/>
      <point x="710.0" y="138.0"/>
      <point x="710.0" y="391.0" type="curve" smooth="yes"/>
      <point x="710.0" y="619.0"/>
      <point x="595.0" y="751.0"/>
      <point x="346.0" y="751.0" type="curve" smooth="yes"/>
      <point x="265.0" y="751.0"/>
      <point x="209.0" y="743.0"/>
      <point x="166.0" y="743.0" type="curve" smooth="yes"/>
      <point x="141.0" y="743.0"/>
      <point x="117.0" y="743.0"/>
      <point x="92.0" y="743.0" type="curve"/>
    </contour>
    <contour>
      <point x="249.0" y="120.0" type="curve"/>
      <point x="249.0" y="627.0" type="line"/>
      <point x="267.0" y="628.0"/>
      <point x="301.0" y="634.0"/>
      <point x="331.0" y="634.0" type="curve" smooth="yes"/>
      <point x="476.0" y="634.0"/>
      <point x="546.0" y="568.0"/>
      <point x="546.0" y="375.0" type="curve" smooth="yes"/>
      <point x="546.0" y="189.0"/>
      <point x="466.0" y="112.0"/>
      <point x="348.0" y="111.0" type="curve" smooth="yes"/>
      <point x="313.0" y="111.0"/>
      <point x="274.0" y="113.0"/>
    </contour>
  </outline>
</glyph>
<glyph name="F" format="2">
  <advance width="559.0"/>
  <unicode hex="0046"/>
  <anchor x="280.0" y="0.0" name="bottom"/>
  <anchor x="332.0" y="-83.0" name="btm"/>
  <anchor x="332.0" y="831.0" name="top"/>
  <outline>
    <contour>
      <point x="92.0" y="0.0" type="line"/>
      <point x="249.0" y="0.0" type="line"/>
      <point x="249.0" y="310.0" type="line"/>
      <point x="465.0" y="310.0" type="line"/>
      <point x="465.0" y="429.0" type="line"/>
      <point x="249.0" y="429.0" type="line"/>
      <point x="249.0" y="624.0" type="line"/>
      <point x="542.0" y="624.0" type="line"/>
      <point x="542.0" y="743.0" type="line"/>
      <point x="92.0" y="743.0" type="line"/>
    </contour>
  </outline>
</glyph>
<glyph name="G" format="2">
  <advance width="729.0"/>
  <unicode hex="0047"/>
  <anchor x="365.0" y="0.0" name="bottom"/>
  <anchor x="399.0" y="-83.0" name="btm"/>
  <anchor x="411.0" y="831.0" name="top"/>
  <outline>
    <contour>
      <point x="49.0" y="368.0" type="curve" smooth="yes"/>
      <point x="49.0" y="140.0"/>
      <point x="178.0" y="-8.0"/>
      <point x="404.0" y="-8.0" type="curve" smooth="yes"/>
      <point x="563.0" y="-8.0"/>
      <point x="625.0" y="42.0"/>
      <point x="670.0" y="44.0" type="curve"/>
      <point x="670.0" y="400.0" type="line"/>
      <point x="409.0" y="400.0" type="line"/>
      <point x="409.0" y="285.0" type="line"/>
      <point x="547.0" y="278.0" type="line"/>
      <point x="522.0" y="299.0" type="line"/>
      <point x="522.0" y="130.0" type="line"/>
      <point x="494.0" y="119.0"/>
      <point x="456.0" y="111.0"/>
      <point x="398.0" y="111.0" type="curve" smooth="yes"/>
      <point x="269.0" y="111.0"/>
      <point x="210.0" y="231.0"/>
      <point x="210.0" y="381.0" type="curve" smooth="yes"/>
      <point x="210.0" y="536.0"/>
      <point x="291.0" y="628.0"/>
      <point x="420.0" y="628.0" type="curve" smooth="yes"/>
      <point x="528.0" y="628.0"/>
      <point x="578.0" y="611.0"/>
      <point x="625.0" y="588.0" type="curve"/>
      <point x="629.0" y="722.0" type="line"/>
      <point x="564.0" y="734.0"/>
      <point x="532.0" y="751.0"/>
      <point x="419.0" y="751.0" type="curve" smooth="yes"/>
      <point x="211.0" y="751.0"/>
      <point x="49.0" y="634.0"/>
    </contour>
  </outline>
</glyph>
<glyph name="J" format="2">
  <advance width="390.0"/>
  <unicode hex="004A"/>
  <anchor x="195.0" y="0.0" name="bottom"/>
  <anchor x="135.0" y="-83.0" name="btm"/>
  <anchor x="211.0" y="831.0" name="top"/>
  <outline>
    <contour>
      <point x="33.0" y="-162.0" type="line"/>
      <point x="116.0" y="-159.0"/>
      <point x="257.0" y="-93.0"/>
      <point x="283.0" y="44.0" type="curve" smooth="yes"/>
      <point x="297.0" y="115.0"/>
      <point x="292.0" y="202.0"/>
      <point x="292.0" y="299.0" type="curve" smooth="yes"/>
      <point x="292.0" y="743.0" type="line"/>
      <point x="136.0" y="743.0" type="line"/>
      <point x="136.0" y="297.0" type="line" smooth="yes"/>
      <point x="136.0" y="196.0"/>
      <point x="134.0" y="113.0"/>
      <point x="121.0" y="57.0" type="curve" smooth="yes"/>
      <point x="102.0" y="-22.0"/>
      <point x="46.0" y="-61.0"/>
      <point x="-5.0" y="-80.0" type="curve"/>
    </contour>
  </outline>
</glyph>
<glyph name="L" format="2">
  <advance width="547.0"/>
  <unicode hex="004C"/>
  <anchor x="274.0" y="0.0" name="bottom"/>
  <anchor x="298.0" y="-83.0" name="btm"/>
  <anchor x="274.0" y="372.0" name="center"/>
  <anchor x="170.0" y="830.0" name="top"/>
  <anchor x="527.0" y="743.0" name="topright"/>
  <outline>
    <contour>
      <point x="92.0" y="0.0" type="line"/>
      <point x="515.0" y="0.0" type="line"/>
      <point x="515.0" y="118.0" type="line"/>
      <point x="247.0" y="118.0" type="line"/>
      <point x="247.0" y="743.0" type="line"/>
      <point x="92.0" y="743.0" type="line"/>
    </contour>
  </outline>
</glyph>
<glyph name="N" format="2">
  <advance width="791.0"/>
  <unicode hex="004E"/>
  <anchor x="396.0" y="0.0" name="bottom"/>
  <anchor x="379.0" y="-83.0" name="btm"/>
  <anchor x="396.0" y="830.0" name="top"/>
  <outline>
    <contour>
      <point x="92.0" y="0.0" type="line"/>
      <point x="236.0" y="0.0" type="line"/>
      <point x="236.0" y="362.0" type="line"/>
      <point x="210.0" y="640.0" type="line"/>
      <point x="169.0" y="640.0" type="line"/>
      <point x="278.0" y="420.0" type="line"/>
      <point x="543.0" y="0.0" type="line"/>
      <point x="699.0" y="0.0" type="line"/>
      <point x="699.0" y="743.0" type="line"/>
      <point x="555.0" y="743.0" type="line"/>
      <point x="555.0" y="374.0" type="line"/>
      <point x="574.0" y="135.0" type="line"/>
      <point x="599.0" y="135.0" type="line"/>
      <point x="513.0" y="306.0" type="line"/>
      <point x="236.0" y="743.0" type="line"/>
      <point x="92.0" y="743.0" type="line"/>
    </contour>
  </outline>
</glyph>
<glyph name="O" format="2">
  <advance width="779.0"/>
  <unicode hex="004F"/>
  <anchor x="390.0" y="0.0" name="bottom"/>
  <anchor x="388.0" y="-83.0" name="btm"/>
  <anchor x="390.0" y="372.0" name="center"/>
  <anchor x="701.0" y="10.0" name="ogonek"/>
  <anchor x="402.0" y="830.0" name="top"/>
  <anchor x="20.0" y="743.0" name="topleft"/>
  <anchor x="759.0" y="743.0" name="topright"/>
  <outline>
    <contour>
      <point x="386.0" y="-8.0" type="curve" smooth="yes"/>
      <point x="584.0" y="-4.0"/>
      <point x="726.0" y="116.0"/>
      <point x="731.0" y="373.0" type="curve" smooth="yes"/>
      <point x="735.0" y="602.0"/>
      <point x="606.0" y="757.0"/>
      <point x="401.0" y="751.0" type="curve" smooth="yes"/>
      <point x="200.0" y="745.0"/>
      <point x="53.0" y="633.0"/>
      <point x="48.0" y="375.0" type="curve" smooth="yes"/>
      <point x="43.0" y="147.0"/>
      <point x="172.0" y="-12.0"/>
    </contour>
    <contour>
      <point x="390.0" y="108.0" type="curve" smooth="yes"/>
      <point x="268.0" y="108.0"/>
      <point x="208.0" y="224.0"/>
      <point x="208.0" y="370.0" type="curve" smooth="yes"/>
      <point x="208.0" y="561.0"/>
      <point x="294.0" y="633.0"/>
      <point x="397.0" y="633.0" type="curve" smooth="yes"/>
      <point x="514.0" y="633.0"/>
      <point x="570.0" y="523.0"/>
      <point x="570.0" y="377.0" type="curve" smooth="yes"/>
      <point x="570.0" y="191.0"/>
      <point x="500.0" y="108.0"/>
    </contour>
  </outline>
</glyph>
<glyph name="S" format="2">
  <advance width="589.0"/>
  <unicode hex="0053"/>
  <anchor x="295.0" y="0.0" name="bottom"/>
  <anchor x="295.0" y="-83.0" name="btm"/>
  <anchor x="317.0" y="830.0" name="top"/>
  <outline>
    <contour>
      <point x="297.0" y="-8.0" type="curve" smooth="yes"/>
      <point x="449.0" y="-8.0"/>
      <point x="553.0" y="65.0"/>
      <point x="553.0" y="199.0" type="curve" smooth="yes"/>
      <point x="553.0" y="320.0"/>
      <point x="465.0" y="373.0"/>
      <point x="349.0" y="435.0" type="curve" smooth="yes"/>
      <point x="258.0" y="482.0"/>
      <point x="220.0" y="505.0"/>
      <point x="220.0" y="559.0" type="curve" smooth="yes"/>
      <point x="220.0" y="604.0"/>
      <point x="249.0" y="635.0"/>
      <point x="332.0" y="635.0" type="curve" smooth="yes"/>
      <point x="406.0" y="635.0"/>
      <point x="458.0" y="610.0"/>
      <point x="494.0" y="587.0" type="curve"/>
      <point x="519.0" y="708.0" type="line"/>
      <point x="493.0" y="725.0"/>
      <point x="421.0" y="751.0"/>
      <point x="327.0" y="751.0" type="curve" smooth="yes"/>
      <point x="188.0" y="751.0"/>
      <point x="68.0" y="697.0"/>
      <point x="68.0" y="551.0" type="curve" smooth="yes"/>
      <point x="68.0" y="429.0"/>
      <point x="165.0" y="363.0"/>
      <point x="252.0" y="320.0" type="curve" smooth="yes"/>
      <point x="367.0" y="263.0"/>
      <point x="396.0" y="242.0"/>
      <point x="396.0" y="189.0" type="curve" smooth="yes"/>
      <point x="396.0" y="140.0"/>
      <point x="370.0" y="114.0"/>
      <point x="288.0" y="114.0" type="curve" smooth="yes"/>
      <point x="208.0" y="114.0"/>
      <point x="138.0" y="138.0"/>
      <point x="96.0" y="161.0" type="curve"/>
      <point x="74.0" y="36.0" type="line"/>
      <point x="102.0" y="19.0"/>
      <point x="200.0" y="-8.0"/>
    </contour>
  </outline>
</glyph>
<glyph name="V" format="2">
  <advance width="677.0"/>
  <unicode hex="0056"/>
  <anchor x="339.0" y="0.0" name="bottom"/>
  <anchor x="339.0" y="-83.0" name="btm"/>
  <anchor x="339.0" y="831.0" name="top"/>
  <outline>
    <contour>
      <point x="274.0" y="-3.0" type="line"/>
      <point x="406.0" y="-3.0" type="line"/>
      <point x="679.0" y="743.0" type="line"/>
      <point x="514.0" y="743.0" type="line"/>
      <point x="382.0" y="337.0" type="line"/>
      <point x="342.0" y="196.0" type="line"/>
      <point x="303.0" y="337.0" type="line"/>
      <point x="164.0" y="743.0" type="line"/>
      <point x="-2.0" y="743.0" type="line"/>
    </contour>
  </outline>
</glyph>
<glyph name="W" format="2">
  <advance width="963.0"/>
  <unicode hex="0057"/>
  <anchor x="482.0" y="0.0" name="bottom"/>
  <anchor x="472.0" y="-83.0" name="btm"/>
  <anchor x="472.0" y="830.0" name="top"/>
  <outline>
    <contour>
      <point x="202.0" y="-8.0" type="line"/>
      <point x="350.0" y="-8.0" type="line"/>
      <point x="457.0" y="407.0" type="line"/>
      <point x="500.0" y="723.0" type="line"/>
      <point x="456.0" y="723.0" type="line"/>
      <point x="503.0" y="407.0" type="line"/>
      <point x="607.0" y="-8.0" type="line"/>
      <point x="767.0" y="-8.0" type="line"/>
      <point x="961.0" y="743.0" type="line"/>
      <point x="806.0" y="743.0" type="line"/>
      <point x="721.0" y="307.0" type="line"/>
      <point x="687.0" y="65.0" type="line"/>
      <point x="708.0" y="65.0" type="line"/>
      <point x="666.0" y="307.0" type="line"/>
      <point x="552.0" y="743.0" type="line"/>
      <point x="413.0" y="743.0" type="line"/>
      <point x="306.0" y="307.0" type="line"/>
      <point x="266.0" y="66.0" type="line"/>
      <point x="285.0" y="66.0" type="line"/>
      <point x="250.0" y="307.0" type="line"/>
      <point x="158.0" y="743.0" type="line"/>
      <point x="2.0" y="743.0" type="line"/>
    </contour>
  </outline>
</glyph>
<glyph name="Y" format="2">
  <advance width="606.0"/>
  <unicode hex="0059"/>
  <anchor x="303.0" y="0.0" name="bottom"/>
  <anchor x="304.0" y="-83.0" name="btm"/>
  <anchor x="304.0" y="830.0" name="top"/>
  <anchor x="20.0" y="743.0" name="topleft"/>
  <outline>
    <contour>
      <point x="225.0" y="0.0" type="line"/>
      <point x="381.0" y="0.0" type="line"/>
      <point x="381.0" y="303.0" type="line"/>
      <point x="366.0" y="231.0" type="line"/>
      <point x="630.0" y="743.0" type="line"/>
      <point x="464.0" y="743.0" type="line"/>
      <point x="323.0" y="455.0" type="line"/>
      <point x="296.0" y="375.0" type="line"/>
      <point x="314.0" y="375.0" type="line"/>
      <point x="283.0" y="455.0" type="line"/>
      <point x="146.0" y="743.0" type="line"/>
      <point x="-24.0" y="743.0" type="line"/>
      <point x="240.0" y="232.0" type="line"/>
      <point x="225.0" y="306.0" type="line"/>
    </contour>
  </outline>
</glyph>
<glyph name="e" format="2">
  <advance width="581.0"/>
  <unicode hex="0065"/>
  <anchor x="291.0" y="0.0" name="bottom"/>
  <anchor x="310.0" y="-83.0" name="btm"/>
  <anchor x="402.0" y="25.0" name="ogonek"/>
  <anchor x="310.0" y="831.0" name="top"/>
  <outline>
    <contour>
      <point x="309.0" y="-8.0" type="curve" smooth="yes"/>
      <point x="396.0" y="-8.0"/>
      <point x="479.0" y="18.0"/>
      <point x="516.0" y="48.0" type="curve"/>
      <point x="491.0" y="134.0" type="line"/>
      <point x="461.0" y="118.0"/>
      <point x="387.0" y="105.0"/>
      <point x="348.0" y="105.0" type="curve" smooth="yes"/>
      <point x="259.0" y="105.0"/>
      <point x="202.0" y="150.0"/>
      <point x="199.0" y="251.0" type="curve" smooth="yes"/>
      <point x="196.0" y="410.0"/>
      <point x="239.0" y="456.0"/>
      <point x="308.0" y="456.0" type="curve" smooth="yes"/>
      <point x="376.0" y="456.0"/>
      <point x="397.0" y="408.0"/>
      <point x="392.0" y="326.0" type="curve"/>
      <point x="138.0" y="326.0" type="line"/>
      <point x="128.0" y="242.0" type="line"/>
      <point x="528.0" y="242.0" type="line"/>
      <point x="532.0" y="267.0"/>
      <point x="534.0" y="304.0"/>
      <point x="534.0" y="346.0" type="curve" smooth="yes"/>
      <point x="532.0" y="508.0"/>
      <point x="428.0" y="565.0"/>
      <point x="313.0" y="564.0" type="curve" smooth="yes"/>
      <point x="142.0" y="563.0"/>
      <point x="46.0" y="442.0"/>
      <point x="46.0" y="280.0" type="curve" smooth="yes"/>
      <point x="46.0" y="100.0"/>
      <point x="139.0" y="-8.0"/>
    </contour>
  </outline>
</glyph>
<glyph name="f" format="2">
  <advance width="419.0"/>
  <unicode hex="0066"/>
  <anchor x="210.0" y="0.0" name="bottom"/>
  <anchor x="203.0" y="-83.0" name="btm"/>
  <anchor x="158.0" y="994.0" name="top"/>
  <outline>
    <contour>
      <point x="116.0" y="0.0" type="line"/>
      <point x="268.0" y="0.0" type="line"/>
      <point x="268.0" y="451.0" type="line"/>
      <point x="398.0" y="451.0" type="line"/>
      <point x="398.0" y="557.0" type="line"/>
      <point x="268.0" y="557.0" type="line"/>
      <point x="268.0" y="613.0" type="line" smooth="yes"/>
      <point x="268.0" y="681.0"/>
      <point x="300.0" y="714.0"/>
      <point x="346.0" y="714.0" type="curve" smooth="yes"/>
      <point x="384.0" y="714.0"/>
      <point x="407.0" y="710.0"/>
      <point x="422.0" y="703.0" type="curve"/>
      <point x="422.0" y="811.0" type="line"/>
      <point x="410.0" y="815.0"/>
      <point x="366.0" y="822.0"/>
      <point x="324.0" y="822.0" type="curve" smooth="yes"/>
      <point x="228.0" y="822.0"/>
      <point x="116.0" y="773.0"/>
      <point x="116.0" y="610.0" type="curve" smooth="yes"/>
      <point x="116.0" y="557.0" type="line"/>
      <point x="40.0" y="540.0" type="line"/>
      <point x="40.0" y="451.0" type="line"/>
      <point x="116.0" y="451.0" type="line"/>
    </contour>
  </outline>
</glyph>
<glyph name="h" format="2">
  <advance width="660.0"/>
  <unicode hex="0068"/>
  <anchor x="330.0" y="0.0" name="bottom"/>
  <anchor x="330.0" y="-83.0" name="btm"/>
  <anchor x="330.0" y="492.0" name="center"/>
  <anchor x="159.0" y="869.0" name="top"/>
  <outline>
    <contour>
      <point x="82.0" y="0.0" type="line"/>
      <point x="234.0" y="0.0" type="line"/>
      <point x="234.0" y="395.0" type="line"/>
      <point x="268.0" y="425.0"/>
      <point x="316.0" y="437.0"/>
      <point x="344.0" y="437.0" type="curve" smooth="yes"/>
      <point x="407.0" y="439.0"/>
      <point x="428.0" y="407.0"/>
      <point x="428.0" y="316.0" type="curve" smooth="yes"/>
      <point x="428.0" y="0.0" type="line"/>
      <point x="581.0" y="0.0" type="line"/>
      <point x="581.0" y="347.0" type="line" smooth="yes"/>
      <point x="581.0" y="509.0"/>
      <point x="519.0" y="570.0"/>
      <point x="396.0" y="566.0" type="curve" smooth="yes"/>
      <point x="332.0" y="564.0"/>
      <point x="258.0" y="527.0"/>
      <point x="221.0" y="494.0" type="curve"/>
      <point x="225.0" y="480.0" type="line"/>
      <point x="234.0" y="598.0" type="line"/>
      <point x="234.0" y="812.0" type="line"/>
      <point x="82.0" y="812.0" type="line"/>
    </contour>
  </outline>
</glyph>
<glyph name="k" format="2">
  <advance width="604.0"/>
  <unicode hex="006B"/>
  <anchor x="302.0" y="0.0" name="bottom"/>
  <anchor x="318.0" y="-83.0" name="btm"/>
  <anchor x="383.0" y="830.0" name="top"/>
  <outline>
    <contour>
      <point x="590.0" y="557.0" type="line"/>
      <point x="417.0" y="557.0" type="line"/>
      <point x="205.0" y="309.0" type="line"/>
      <point x="228.0" y="290.0" type="line"/>
      <point x="234.0" y="477.0" type="line"/>
      <point x="234.0" y="811.0" type="line"/>
      <point x="82.0" y="811.0" type="line"/>
      <point x="82.0" y="331.0" type="line"/>
      <point x="82.0" y="0.0" type="line"/>
      <point x="234.0" y="0.0" type="line"/>
      <point x="234.0" y="104.0" type="line"/>
      <point x="231.0" y="192.0" type="line"/>
      <point x="226.0" y="160.0" type="line"/>
    </contour>
    <contour>
      <point x="279.0" y="252.0" type="line"/>
      <point x="436.0" y="0.0" type="line"/>
      <point x="609.0" y="0.0" type="line"/>
      <point x="380.0" y="357.0" type="line"/>
    </contour>
  </outline>
</glyph>
<glyph name="n" format="2">
  <advance width="660.0"/>
  <unicode hex="006E"/>
  <anchor x="330.0" y="0.0" name="bottom"/>
  <anchor x="331.0" y="-83.0" name="btm"/>
  <anchor x="338.0" y="830.0" name="top"/>
  <outline>
    <contour>
      <point x="85.0" y="0.0" type="line"/>
      <point x="237.0" y="0.0" type="line"/>
      <point x="237.0" y="395.0" type="line"/>
      <point x="271.0" y="425.0"/>
      <point x="318.0" y="437.0"/>
      <point x="347.0" y="438.0" type="curve" smooth="yes"/>
      <point x="411.0" y="439.0"/>
      <point x="429.0" y="408.0"/>
      <point x="429.0" y="316.0" type="curve" smooth="yes"/>
      <point x="429.0" y="0.0" type="line"/>
      <point x="581.0" y="0.0" type="line"/>
      <point x="581.0" y="349.0" type="line" smooth="yes"/>
      <point x="581.0" y="512.0"/>
      <point x="525.0" y="570.0"/>
      <point x="407.0" y="566.0" type="curve" smooth="yes"/>
      <point x="339.0" y="564.0"/>
      <point x="264.0" y="525.0"/>
      <point x="226.0" y="497.0" type="curve"/>
      <point x="223.0" y="557.0" type="line"/>
      <point x="85.0" y="557.0" type="line"/>
    </contour>
  </outline>
</glyph>
<glyph name="p" format="2">
  <advance width="650.0"/>
  <unicode hex="0070"/>
  <anchor x="325.0" y="0.0" name="bottom"/>
  <anchor x="357.0" y="-83.0" name="btm"/>
  <anchor x="384.0" y="830.0" name="top"/>
  <outline>
    <contour>
      <point x="82.0" y="-247.0" type="line"/>
      <point x="234.0" y="-247.0" type="line"/>
      <point x="234.0" y="-68.0" type="line"/>
      <point x="232.0" y="18.0" type="line"/>
      <point x="234.0" y="96.0" type="line"/>
      <point x="234.0" y="477.0" type="line"/>
      <point x="224.0" y="489.0" type="line"/>
      <point x="224.0" y="557.0" type="line"/>
      <point x="82.0" y="557.0" type="line"/>
    </contour>
    <contour>
      <point x="325.0" y="-8.0" type="curve" smooth="yes"/>
      <point x="494.0" y="-8.0"/>
      <point x="608.0" y="114.0"/>
      <point x="608.0" y="299.0" type="curve" smooth="yes"/>
      <point x="608.0" y="479.0"/>
      <point x="504.0" y="564.0"/>
      <point x="386.0" y="564.0" type="curve" smooth="yes"/>
      <point x="286.0" y="564.0"/>
      <point x="239.0" y="516.0"/>
      <point x="216.0" y="491.0" type="curve"/>
      <point x="234.0" y="416.0" type="line"/>
      <point x="257.0" y="435.0"/>
      <point x="297.0" y="451.0"/>
      <point x="339.0" y="451.0" type="curve" smooth="yes"/>
      <point x="405.0" y="451.0"/>
      <point x="449.0" y="414.0"/>
      <point x="448.0" y="287.0" type="curve" smooth="yes"/>
      <point x="447.0" y="167.0"/>
      <point x="393.0" y="99.0"/>
      <point x="320.0" y="99.0" type="curve" smooth="yes"/>
      <point x="287.0" y="99.0"/>
      <point x="254.0" y="104.0"/>
      <point x="234.0" y="122.0" type="curve"/>
      <point x="199.0" y="26.0" type="line"/>
      <point x="211.0" y="15.0"/>
      <point x="257.0" y="-8.0"/>
    </contour>
  </outline>
</glyph>
<glyph name="q" format="2">
  <advance width="650.0"/>
  <unicode hex="0071"/>
  <anchor x="325.0" y="0.0" name="bottom"/>
  <anchor x="290.0" y="-83.0" name="btm"/>
  <anchor x="286.0" y="831.0" name="top"/>
  <outline>
    <contour>
      <point x="416.0" y="-68.0" type="line"/>
      <point x="416.0" y="-247.0" type="line"/>
      <point x="568.0" y="-247.0" type="line"/>
      <point x="568.0" y="557.0" type="line"/>
      <point x="436.0" y="537.0" type="line"/>
      <point x="427.0" y="489.0" type="line"/>
      <point x="416.0" y="477.0" type="line"/>
      <point x="416.0" y="98.0" type="line"/>
      <point x="419.0" y="53.0" type="line"/>
    </contour>
    <contour>
      <point x="264.0" y="-8.0" type="curve" smooth="yes"/>
      <point x="364.0" y="-8.0"/>
      <point x="412.0" y="41.0"/>
      <point x="434.0" y="65.0" type="curve"/>
      <point x="416.0" y="141.0" type="line"/>
      <point x="393.0" y="125.0"/>
      <point x="353.0" y="111.0"/>
      <point x="311.0" y="111.0" type="curve" smooth="yes"/>
      <point x="245.0" y="111.0"/>
      <point x="201.0" y="149.0"/>
      <point x="202.0" y="273.0" type="curve" smooth="yes"/>
      <point x="203.0" y="396.0"/>
      <point x="258.0" y="456.0"/>
      <point x="330.0" y="456.0" type="curve" smooth="yes"/>
      <point x="364.0" y="456.0"/>
      <point x="396.0" y="454.0"/>
      <point x="416.0" y="440.0" type="curve"/>
      <point x="475.0" y="531.0" type="line"/>
      <point x="463.0" y="542.0"/>
      <point x="393.0" y="564.0"/>
      <point x="326.0" y="564.0" type="curve" smooth="yes"/>
      <point x="156.0" y="564.0"/>
      <point x="42.0" y="445.0"/>
      <point x="42.0" y="260.0" type="curve" smooth="yes"/>
      <point x="42.0" y="80.0"/>
      <point x="146.0" y="-8.0"/>
    </contour>
  </outline>
</glyph>
<glyph name="r" format="2">
  <advance width="437.0"/>
  <unicode hex="0072"/>
  <anchor x="219.0" y="0.0" name="bottom"/>
  <anchor x="151.0" y="-83.0" name="btm"/>
  <anchor x="259.0" y="831.0" name="top"/>
  <outline>
    <contour>
      <point x="214.0" y="365.0" type="line"/>
      <point x="236.0" y="388.0"/>
      <point x="277.0" y="426.0"/>
      <point x="349.0" y="426.0" type="curve" smooth="yes"/>
      <point x="389.0" y="426.0"/>
      <point x="405.0" y="418.0"/>
      <point x="415.0" y="412.0" type="curve"/>
      <point x="415.0" y="559.0" type="line"/>
      <point x="406.0" y="564.0"/>
      <point x="391.0" y="566.0"/>
      <point x="372.0" y="566.0" type="curve" smooth="yes"/>
      <point x="297.0" y="566.0"/>
      <point x="228.0" y="515.0"/>
      <point x="210.0" y="471.0" type="curve"/>
    </contour>
    <contour>
      <point x="72.0" y="0.0" type="line"/>
      <point x="224.0" y="0.0" type="line"/>
      <point x="224.0" y="443.0" type="line"/>
      <point x="215.0" y="471.0" type="line"/>
      <point x="207.0" y="557.0" type="line"/>
      <point x="72.0" y="557.0" type="line"/>
    </contour>
  </outline>
</glyph>
<glyph name="s" format="2">
  <advance width="512.0"/>
  <unicode hex="0073"/>
  <anchor x="256.0" y="0.0" name="bottom"/>
  <anchor x="261.0" y="-83.0" name="btm"/>
  <anchor x="264.0" y="830.0" name="top"/>
  <outline>
    <contour>
      <point x="56.0" y="35.0" type="line"/>
      <point x="86.0" y="15.0"/>
      <point x="169.0" y="-8.0"/>
      <point x="250.0" y="-8.0" type="curve" smooth="yes"/>
      <point x="384.0" y="-8.0"/>
      <point x="469.0" y="48.0"/>
      <point x="469.0" y="163.0" type="curve" smooth="yes"/>
      <point x="469.0" y="245.0"/>
      <point x="426.0" y="292.0"/>
      <point x="313.0" y="331.0" type="curve" smooth="yes"/>
      <point x="231.0" y="358.0"/>
      <point x="203.0" y="375.0"/>
      <point x="204.0" y="409.0" type="curve" smooth="yes"/>
      <point x="204.0" y="440.0"/>
      <point x="232.0" y="453.0"/>
      <point x="298.0" y="453.0" type="curve" smooth="yes"/>
      <point x="345.0" y="453.0"/>
      <point x="401.0" y="435.0"/>
      <point x="423.0" y="416.0" type="curve"/>
      <point x="439.0" y="533.0" type="line"/>
      <point x="419.0" y="544.0"/>
      <point x="362.0" y="564.0"/>
      <point x="283.0" y="564.0" type="curve" smooth="yes"/>
      <point x="154.0" y="564.0"/>
      <point x="59.0" y="510.0"/>
      <point x="58.0" y="404.0" type="curve" smooth="yes"/>
      <point x="58.0" y="324.0"/>
      <point x="96.0" y="267.0"/>
      <point x="198.0" y="233.0" type="curve" smooth="yes"/>
      <point x="279.0" y="207.0"/>
      <point x="319.0" y="183.0"/>
      <point x="319.0" y="151.0" type="curve" smooth="yes"/>
      <point x="319.0" y="117.0"/>
      <point x="291.0" y="104.0"/>
      <point x="231.0" y="104.0" type="curve" smooth="yes"/>
      <point x="160.0" y="104.0"/>
      <point x="88.0" y="135.0"/>
      <point x="72.0" y="148.0" type="curve"/>
    </contour>
  </outline>
</glyph>
<glyph name="w" format="2">
  <advance width="858.0"/>
  <unicode hex="0077"/>
  <anchor x="429.0" y="0.0" name="bottom"/>
  <anchor x="432.0" y="-82.0" name="btm"/>
  <anchor x="432.0" y="833.0" name="top"/>
  <outline>
    <contour>
      <point x="179.0" y="-8.0" type="line"/>
      <point x="320.0" y="-8.0" type="line"/>
      <point x="407.0" y="289.0" type="line"/>
      <point x="444.0" y="467.0" type="line"/>
      <point x="415.0" y="467.0" type="line"/>
      <point x="451.0" y="289.0" type="line"/>
      <point x="540.0" y="-8.0" type="line"/>
      <point x="675.0" y="-8.0" type="line"/>
      <point x="849.0" y="557.0" type="line"/>
      <point x="702.0" y="557.0" type="line"/>
      <point x="637.0" y="286.0" type="line"/>
      <point x="596.0" y="67.0" type="line"/>
      <point x="628.0" y="67.0" type="line"/>
      <point x="587.0" y="288.0" type="line"/>
      <point x="506.0" y="557.0" type="line"/>
      <point x="364.0" y="557.0" type="line"/>
      <point x="284.0" y="287.0" type="line"/>
      <point x="237.0" y="65.0" type="line"/>
      <point x="272.0" y="65.0" type="line"/>
      <point x="230.0" y="288.0" type="line"/>
      <point x="161.0" y="557.0" type="line"/>
      <point x="9.0" y="557.0" type="line"/>
    </contour>
  </outline>
</glyph>
<glyph name="x" format="2">
  <advance width="596.0"/>
  <unicode hex="0078"/>
  <anchor x="298.0" y="0.0" name="bottom"/>
  <anchor x="305.0" y="-83.0" name="btm"/>
  <anchor x="305.0" y="830.0" name="top"/>
  <outline>
    <contour>
      <point x="18.0" y="0.0" type="line"/>
      <point x="192.0" y="0.0" type="line"/>
      <point x="282.0" y="156.0" type="line"/>
      <point x="314.0" y="222.0" type="line"/>
      <point x="270.0" y="222.0" type="line"/>
      <point x="311.0" y="157.0" type="line"/>
      <point x="411.0" y="0.0" type="line"/>
      <point x="585.0" y="0.0" type="line"/>
      <point x="370.0" y="304.0" type="line"/>
      <point x="370.0" y="265.0" type="line"/>
      <point x="582.0" y="557.0" type="line"/>
      <point x="410.0" y="557.0" type="line"/>
      <point x="318.0" y="412.0" type="line"/>
      <point x="285.0" y="347.0" type="line"/>
      <point x="324.0" y="347.0" type="line"/>
      <point x="286.0" y="412.0" type="line"/>
      <point x="190.0" y="557.0" type="line"/>
      <point x="18.0" y="557.0" type="line"/>
      <point x="227.0" y="263.0" type="line"/>
      <point x="224.0" y="296.0" type="line"/>
    </contour>
  </outline>
</glyph>
<glyph name="bar" format="2">
  <advance width="422.0"/>
  <unicode hex="007C"/>
  <outline>
    <contour>
      <point x="149.0" y="-91.0" type="line"/>
      <point x="273.0" y="-91.0" type="line"/>
      <point x="273.0" y="869.0" type="line"/>
      <point x="149.0" y="869.0" type="line"/>
    </contour>
  </outline>
</glyph>
<glyph name="asciitilde" format="2">
  <advance width="707.0"/>
  <unicode hex="007E"/>
  <outline>
    <contour>
      <point x="165.0" y="343.0" type="line"/>
      <point x="187.0" y="366.0"/>
      <point x="215.0" y="395.0"/>
      <point x="261.0" y="395.0" type="curve" smooth="yes"/>
      <point x="338.0" y="395.0"/>
      <point x="342.0" y="317.0"/>
      <point x="443.0" y="317.0" type="curve" smooth="yes"/>
      <point x="526.0" y="317.0"/>
      <point x="591.0" y="375.0"/>
      <point x="605.0" y="420.0" type="curve"/>
      <point x="548.0" y="487.0" type="line"/>
      <point x="527.0" y="464.0"/>
      <point x="497.0" y="436.0"/>
      <point x="450.0" y="436.0" type="curve" smooth="yes"/>
      <point x="378.0" y="436.0"/>
      <point x="362.0" y="513.0"/>
      <point x="260.0" y="513.0" type="curve" smooth="yes"/>
      <point x="181.0" y="513.0"/>
      <point x="114.0" y="444.0"/>
      <point x="102.0" y="405.0" type="curve"/>
    </contour>
  </outline>
</glyph>
<glyph name="currency" format="2">
  <advance width="754.0"/>
  <unicode hex="00A4"/>
  <outline>
    <contour>
      <point x="373.0" y="155.0" type="curve" smooth="yes"/>
      <point x="494.0" y="155.0"/>
      <point x="593.0" y="253.0"/>
      <point x="593.0" y="377.0" type="curve" smooth="yes"/>
      <point x="593.0" y="501.0"/>
      <point x="494.0" y="600.0"/>
      <point x="373.0" y="600.0" type="curve" smooth="yes"/>
      <point x="252.0" y="600.0"/>
      <point x="154.0" y="501.0"/>
      <point x="154.0" y="377.0" type="curve"/>
      <point x="154.0" y="253.0"/>
      <point x="252.0" y="155.0"/>
    </contour>
    <contour>
      <point x="374.0" y="262.0" type="curve" smooth="yes"/>
      <point x="313.0" y="262.0"/>
      <point x="263.0" y="316.0"/>
      <point x="263.0" y="377.0" type="curve" smooth="yes"/>
      <point x="263.0" y="439.0"/>
      <point x="313.0" y="493.0"/>
      <point x="374.0" y="493.0" type="curve" smooth="yes"/>
      <point x="435.0" y="493.0"/>
      <point x="484.0" y="439.0"/>
      <point x="484.0" y="377.0" type="curve" smooth="yes"/>
      <point x="484.0" y="316.0"/>
      <point x="435.0" y="262.0"/>
    </contour>
    <contour>
      <point x="205.0" y="490.0" type="line"/>
      <point x="273.0" y="561.0" type="line"/>
      <point x="166.0" y="671.0" type="line"/>
      <point x="98.0" y="599.0" type="line"/>
    </contour>
    <contour>
      <point x="543.0" y="488.0" type="line"/>
      <point x="656.0" y="603.0" type="line"/>
      <point x="587.0" y="674.0" type="line"/>
      <point x="474.0" y="561.0" type="line"/>
    </contour>
    <contour>
      <point x="167.0" y="83.0" type="line"/>
      <point x="273.0" y="192.0" type="line"/>
      <point x="205.0" y="262.0" type="line"/>
      <point x="98.0" y="153.0" type="line"/>
    </contour>
    <contour>
      <point x="582.0" y="83.0" type="line"/>
      <point x="650.0" y="154.0" type="line"/>
      <point x="543.0" y="263.0" type="line"/>
      <point x="474.0" y="192.0" type="line"/>
    </contour>
  </outline>
</glyph>
<glyph name="brokenbar" format="2">
  <advance width="422.0"/>
  <unicode hex="00A6"/>
  <outline>
    <contour>
      <point x="149.0" y="471.0" type="line"/>
      <point x="273.0" y="471.0" type="line"/>
      <point x="273.0" y="869.0" type="line"/>
      <point x="149.0" y="869.0" type="line"/>
    </contour>
    <contour>
      <point x="149.0" y="-91.0" type="line"/>
      <point x="273.0" y="-91.0" type="line"/>
      <point x="273.0" y="303.0" type="line"/>
      <point x="149.0" y="303.0" type="line"/>
    </contour>
  </outline>
</glyph>
<glyph name="section" format="2">
  <advance width="685.0"/>
  <unicode hex="00A7"/>
  <outline>
    <contour>
      <point x="124.0" y="646.0" type="curve" smooth="yes"/>
      <point x="124.0" y="428.0"/>
      <point x="463.0" y="458.0"/>
      <point x="463.0" y="306.0" type="curve" smooth="yes"/>
      <point x="463.0" y="265.0"/>
      <point x="426.0" y="198.0"/>
      <point x="407.0" y="172.0" type="curve"/>
      <point x="469.0" y="147.0" type="line"/>
      <point x="539.0" y="192.0"/>
      <point x="591.0" y="255.0"/>
      <point x="591.0" y="331.0" type="curve" smooth="yes"/>
      <point x="591.0" y="539.0"/>
      <point x="270.0" y="542.0"/>
      <point x="270.0" y="646.0" type="curve" smooth="yes"/>
      <point x="270.0" y="691.0"/>
      <point x="310.0" y="708.0"/>
      <point x="364.0" y="708.0" type="curve" smooth="yes"/>
      <point x="446.0" y="708.0"/>
      <point x="492.0" y="687.0"/>
      <point x="513.0" y="671.0" type="curve"/>
      <point x="534.0" y="781.0" type="line"/>
      <point x="505.0" y="798.0"/>
      <point x="446.0" y="817.0"/>
      <point x="355.0" y="817.0" type="curve" smooth="yes"/>
      <point x="253.0" y="817.0"/>
      <point x="124.0" y="771.0"/>
    </contour>
    <contour>
      <point x="572.0" y="78.0" type="curve" smooth="yes"/>
      <point x="572.0" y="308.0"/>
      <point x="230.0" y="256.0"/>
      <point x="230.0" y="399.0" type="curve" smooth="yes"/>
      <point x="230.0" y="440.0"/>
      <point x="267.0" y="492.0"/>
      <point x="286.0" y="518.0" type="curve"/>
      <point x="219.0" y="547.0" type="line"/>
      <point x="150.0" y="506.0"/>
      <point x="99.0" y="444.0"/>
      <point x="99.0" y="375.0" type="curve" smooth="yes"/>
      <point x="99.0" y="166.0"/>
      <point x="426.0" y="176.0"/>
      <point x="426.0" y="81.0" type="curve" smooth="yes"/>
      <point x="426.0" y="32.0"/>
      <point x="382.0" y="15.0"/>
      <point x="324.0" y="15.0" type="curve" smooth="yes"/>
      <point x="240.0" y="14.0"/>
      <point x="180.0" y="42.0"/>
      <point x="155.0" y="61.0" type="curve"/>
      <point x="134.0" y="-49.0" type="line"/>
      <point x="165.0" y="-70.0"/>
      <point x="241.0" y="-94.0"/>
      <point x="333.0" y="-94.0" type="curve" smooth="yes"/>
      <point x="440.0" y="-94.0"/>
      <point x="572.0" y="-46.0"/>
    </contour>
  </outline>
</glyph>
<glyph name="ordfeminine" format="2">
  <advance width="521.0"/>
  <unicode hex="00AA"/>
  <outline>
    <contour>
      <point x="202.0" y="326.0" type="curve" smooth="yes"/>
      <point x="259.0" y="326.0"/>
      <point x="315.0" y="354.0"/>
      <point x="334.0" y="374.0" type="curve"/>
      <point x="350.0" y="404.0" type="line"/>
      <point x="329.0" y="443.0" type="line"/>
      <point x="319.0" y="436.0"/>
      <point x="283.0" y="419.0"/>
      <point x="243.0" y="419.0" type="curve" smooth="yes"/>
      <point x="211.0" y="419.0"/>
      <point x="183.0" y="435.0"/>
      <point x="183.0" y="468.0" type="curve" smooth="yes"/>
      <point x="183.0" y="494.0"/>
      <point x="191.0" y="514.0"/>
      <point x="220.0" y="530.0" type="curve" smooth="yes"/>
      <point x="249.0" y="546.0"/>
      <point x="287.0" y="547.0"/>
      <point x="329.0" y="547.0" type="curve"/>
      <point x="350.0" y="576.0" type="line"/>
      <point x="329.0" y="618.0" type="line"/>
      <point x="273.0" y="618.0"/>
      <point x="210.0" y="613.0"/>
      <point x="152.0" y="591.0" type="curve" smooth="yes"/>
      <point x="99.0" y="570.0"/>
      <point x="59.0" y="527.0"/>
      <point x="59.0" y="459.0" type="curve" smooth="yes"/>
      <point x="59.0" y="379.0"/>
      <point x="112.0" y="326.0"/>
    </contour>
    <contour>
      <point x="456.0" y="331.0" type="line"/>
      <point x="456.0" y="570.0" type="line"/>
      <point x="456.0" y="638.0" type="line" smooth="yes"/>
      <point x="456.0" y="751.0"/>
      <point x="390.0" y="789.0"/>
      <point x="267.0" y="789.0" type="curve" smooth="yes"/>
      <point x="189.0" y="789.0"/>
      <point x="90.0" y="752.0"/>
      <point x="72.0" y="735.0" type="curve"/>
      <point x="99.0" y="659.0" type="line"/>
      <point x="121.0" y="674.0"/>
      <point x="198.0" y="697.0"/>
      <point x="243.0" y="697.0" type="curve" smooth="yes"/>
      <point x="303.0" y="697.0"/>
      <point x="329.0" y="688.0"/>
      <point x="329.0" y="635.0" type="curve" smooth="yes"/>
      <point x="329.0" y="399.0" type="line"/>
      <point x="334.0" y="399.0" type="line"/>
      <point x="334.0" y="367.0" type="line" smooth="yes"/>
      <point x="334.0" y="328.0"/>
      <point x="355.0" y="331.0"/>
      <point x="392.0" y="331.0" type="curve" smooth="yes"/>
    </contour>
  </outline>
</glyph>
<glyph name="guillemetleft" format="2">
  <advance width="976.0"/>
  <unicode hex="00AB"/>
  <outline>
    <contour>
      <point x="115.0" y="240.0" type="line"/>
      <point x="425.0" y="37.0" type="line"/>
      <point x="462.0" y="142.0" type="line"/>
      <point x="226.0" y="327.0" type="line"/>
      <point x="226.0" y="273.0" type="line"/>
      <point x="462.0" y="459.0" type="line"/>
      <point x="425.0" y="565.0" type="line"/>
      <point x="115.0" y="359.0" type="line"/>
    </contour>
    <contour>
      <point x="497.0" y="240.0" type="line"/>
      <point x="817.0" y="37.0" type="line"/>
      <point x="854.0" y="142.0" type="line"/>
      <point x="608.0" y="327.0" type="line"/>
      <point x="608.0" y="273.0" type="line"/>
      <point x="854.0" y="459.0" type="line"/>
      <point x="817.0" y="565.0" type="line"/>
      <point x="497.0" y="359.0" type="line"/>
    </contour>
  </outline>
</glyph>
<glyph name="logicalnot" format="2">
  <advance width="723.0"/>
  <unicode hex="00AC"/>
  <outline>
    <contour>
      <point x="120.0" y="312.0" type="line"/>
      <point x="484.0" y="312.0" type="line"/>
      <point x="484.0" y="158.0" type="line"/>
      <point x="603.0" y="158.0" type="line"/>
      <point x="603.0" y="416.0" type="line"/>
      <point x="120.0" y="416.0" type="line"/>
    </contour>
  </outline>
</glyph>
<glyph name="macron" format="2">
  <advance width="342.0"/>
  <unicode hex="00AF"/>
  <anchor x="171.0" y="831.0" name="_top"/>
  <outline>
    <contour>
      <point x="27.0" y="693.0" type="line"/>
      <point x="315.0" y="693.0" type="line"/>
      <point x="315.0" y="794.0" type="line"/>
      <point x="27.0" y="794.0" type="line"/>
    </contour>
  </outline>
</glyph>
<glyph name="acute" format="2">
  <advance width="325.0"/>
  <unicode hex="00B4"/>
  <anchor x="92.0" y="831.0" name="_top"/>
  <outline>
    <contour>
      <point x="100.0" y="611.0" type="line"/>
      <point x="139.0" y="628.0"/>
      <point x="269.0" y="731.0"/>
      <point x="298.0" y="798.0" type="curve"/>
      <point x="193.0" y="883.0" type="line"/>
      <point x="144.0" y="802.0"/>
      <point x="82.0" y="730.0"/>
      <point x="27.0" y="678.0" type="curve"/>
    </contour>
  </outline>
</glyph>
<glyph name="cedilla" format="2">
  <advance width="253.0"/>
  <unicode hex="00B8"/>
  <anchor x="155.0" y="-83.0" name="_btm"/>
  <outline>
    <contour>
      <point x="16.0" y="-213.0" type="line"/>
      <point x="28.0" y="-221.0"/>
      <point x="76.0" y="-227.0"/>
      <point x="104.0" y="-227.0" type="curve" smooth="yes"/>
      <point x="169.0" y="-227.0"/>
      <point x="226.0" y="-191.0"/>
      <point x="229.0" y="-108.0" type="curve" smooth="yes"/>
      <point x="230.0" y="-60.0"/>
      <point x="221.0" y="-6.0"/>
      <point x="198.0" y="15.0" type="curve"/>
      <point x="174.0" y="17.0" type="line"/>
      <point x="107.0" y="15.0" type="line"/>
      <point x="117.0" y="-2.0"/>
      <point x="125.0" y="-23.0"/>
      <point x="123.0" y="-66.0" type="curve" smooth="yes"/>
      <point x="121.0" y="-116.0"/>
      <point x="95.0" y="-139.0"/>
      <point x="63.0" y="-139.0" type="curve" smooth="yes"/>
      <point x="48.0" y="-139.0"/>
      <point x="34.0" y="-138.0"/>
      <point x="26.0" y="-132.0" type="curve"/>
    </contour>
  </outline>
</glyph>
<glyph name="ordmasculine" format="2">
  <advance width="520.0"/>
  <unicode hex="00BA"/>
  <outline>
    <contour>
      <point x="41.0" y="564.0" type="curve" smooth="yes"/>
      <point x="39.0" y="421.0"/>
      <point x="115.0" y="327.0"/>
      <point x="258.0" y="327.0" type="curve" smooth="yes"/>
      <point x="371.0" y="327.0"/>
      <point x="477.0" y="391.0"/>
      <point x="479.0" y="555.0" type="curve" smooth="yes"/>
      <point x="481.0" y="693.0"/>
      <point x="410.0" y="790.0"/>
      <point x="270.0" y="790.0" type="curve" smooth="yes"/>
      <point x="160.0" y="790.0"/>
      <point x="43.0" y="729.0"/>
    </contour>
    <contour>
      <point x="171.0" y="564.0" type="curve" smooth="yes"/>
      <point x="171.0" y="660.0"/>
      <point x="206.0" y="696.0"/>
      <point x="264.0" y="697.0" type="curve" smooth="yes"/>
      <point x="323.0" y="698.0"/>
      <point x="349.0" y="643.0"/>
      <point x="349.0" y="554.0" type="curve" smooth="yes"/>
      <point x="349.0" y="459.0"/>
      <point x="323.0" y="421.0"/>
      <point x="264.0" y="420.0" type="curve" smooth="yes"/>
      <point x="201.0" y="419.0"/>
      <point x="171.0" y="477.0"/>
    </contour>
  </outline>
</glyph>
<glyph name="Eth" format="2">
  <advance width="759.0"/>
  <unicode hex="00D0"/>
  <anchor x="380.0" y="0.0" name="bottom"/>
  <anchor x="341.0" y="-83.0" name="btm"/>
  <anchor x="380.0" y="372.0" name="center"/>
  <anchor x="374.0" y="830.0" name="top"/>
  <outline>
    <contour>
      <point x="34.0" y="339.0" type="line"/>
      <point x="413.0" y="339.0" type="line"/>
      <point x="413.0" y="437.0" type="line"/>
      <point x="34.0" y="437.0" type="line"/>
    </contour>
    <component base="D"/>
  </outline>
</glyph>
<glyph name="eth" format="2">
  <advance width="632.0"/>
  <unicode hex="00F0"/>
  <outline>
    <contour>
      <point x="319.0" y="-13.0" type="curve" smooth="yes"/>
      <point x="472.0" y="-12.0"/>
      <point x="593.0" y="100.0"/>
      <point x="593.0" y="318.0" type="curve" smooth="yes"/>
      <point x="593.0" y="514.0"/>
      <point x="491.0" y="702.0"/>
      <point x="332.0" y="785.0" type="curve" smooth="yes"/>
      <point x="323.0" y="790.0"/>
      <point x="294.0" y="805.0"/>
      <point x="286.0" y="810.0" type="curve" smooth="yes"/>
      <point x="241.0" y="837.0"/>
      <point x="196.0" y="854.0"/>
      <point x="133.0" y="873.0" type="curve"/>
      <point x="107.0" y="787.0" type="line"/>
      <point x="147.0" y="775.0"/>
      <point x="187.0" y="755.0"/>
      <point x="222.0" y="732.0" type="curve" smooth="yes"/>
      <point x="229.0" y="727.0"/>
      <point x="237.0" y="719.0"/>
      <point x="245.0" y="715.0" type="curve" smooth="yes"/>
      <point x="326.0" y="668.0"/>
      <point x="394.0" y="585.0"/>
      <point x="407.0" y="499.0" type="curve"/>
      <point x="456.0" y="463.0" type="line"/>
      <point x="440.0" y="511.0"/>
      <point x="389.0" y="561.0"/>
      <point x="305.0" y="561.0" type="curve" smooth="yes"/>
      <point x="140.0" y="561.0"/>
      <point x="46.0" y="446.0"/>
      <point x="46.0" y="269.0" type="curve" smooth="yes"/>
      <point x="46.0" y="101.0"/>
      <point x="153.0" y="-14.0"/>
    </contour>
    <contour>
      <point x="322.0" y="99.0" type="curve" smooth="yes"/>
      <point x="250.0" y="99.0"/>
      <point x="205.0" y="156.0"/>
      <point x="205.0" y="267.0" type="curve" smooth="yes"/>
      <point x="205.0" y="387.0"/>
      <point x="249.0" y="455.0"/>
      <point x="322.0" y="455.0" type="curve" smooth="yes"/>
      <point x="378.0" y="455.0"/>
      <point x="417.0" y="424.0"/>
      <point x="433.0" y="398.0" type="curve"/>
      <point x="435.0" y="368.0"/>
      <point x="436.0" y="316.0"/>
      <point x="436.0" y="280.0" type="curve" smooth="yes"/>
      <point x="436.0" y="163.0"/>
      <point x="386.0" y="99.0"/>
    </contour>
    <contour>
      <point x="220.0" y="616.0" type="line"/>
      <point x="301.0" y="725.0" type="line"/>
      <point x="313.0" y="743.0" type="line"/>
      <point x="338.0" y="769.0"/>
      <point x="403.0" y="855.0"/>
      <point x="403.0" y="855.0" type="curve"/>
      <point x="329.0" y="904.0" type="line"/>
      <point x="329.0" y="904.0"/>
      <point x="262.0" y="809.0"/>
      <point x="241.0" y="786.0" type="curve"/>
      <point x="229.0" y="770.0" type="line"/>
      <point x="147.0" y="665.0" type="line"/>
    </contour>
  </outline>
</glyph>
<glyph name="divide" format="2">
  <advance width="685.0"/>
  <unicode hex="00F7"/>
  <outline>
    <contour>
      <point x="348.0" y="500.0" type="curve" smooth="yes"/>
      <point x="403.0" y="500.0"/>
      <point x="447.0" y="546.0"/>
      <point x="447.0" y="602.0" type="curve" smooth="yes"/>
      <point x="447.0" y="654.0"/>
      <point x="415.0" y="693.0"/>
      <point x="357.0" y="693.0" type="curve" smooth="yes"/>
      <point x="303.0" y="693.0"/>
      <point x="257.0" y="646.0"/>
      <point x="257.0" y="592.0" type="curve" smooth="yes"/>
      <point x="257.0" y="539.0"/>
      <point x="295.0" y="500.0"/>
    </contour>
    <contour>
      <point x="346.0" y="67.0" type="curve" smooth="yes"/>
      <point x="401.0" y="67.0"/>
      <point x="445.0" y="113.0"/>
      <point x="445.0" y="168.0" type="curve" smooth="yes"/>
      <point x="445.0" y="220.0"/>
      <point x="413.0" y="259.0"/>
      <point x="356.0" y="259.0" type="curve" smooth="yes"/>
      <point x="302.0" y="259.0"/>
      <point x="255.0" y="213.0"/>
      <point x="255.0" y="159.0" type="curve" smooth="yes"/>
      <point x="255.0" y="105.0"/>
      <point x="293.0" y="67.0"/>
    </contour>
    <contour>
      <point x="99.0" y="320.0" type="line"/>
      <point x="586.0" y="320.0" type="line"/>
      <point x="586.0" y="434.0" type="line"/>
      <point x="99.0" y="434.0" type="line"/>
    </contour>
  </outline>
</glyph>
<glyph name="thorn" format="2">
  <advance width="650.0"/>
  <unicode hex="00FE"/>
  <anchor x="325.0" y="0.0" name="bottom"/>
  <anchor x="325.0" y="557.0" name="top"/>
  <anchor x="362.0" y="-83.0" name="btm"/>
  <outline>
    <contour>
      <point x="82.0" y="31.0" type="line"/>
      <point x="82.0" y="-248.0" type="line"/>
      <point x="237.0" y="-248.0" type="line"/>
      <point x="237.0" y="-83.0" type="line"/>
      <point x="235.0" y="7.0" type="line"/>
    </contour>
    <component base="b"/>
  </outline>
</glyph>
<glyph name="Aogonek" format="2">
  <advance width="694.0"/>
  <unicode hex="0104"/>
  <anchor x="347.0" y="0.0" name="bottom"/>
  <anchor x="332.0" y="-83.0" name="btm"/>
  <anchor x="625.0" y="10.0" name="ogonek"/>
  <anchor x="347.0" y="830.0" name="top"/>
  <outline>
    <contour>
      <point x="460.0" y="-154.0" type="curve"/>
      <point x="463.0" y="-216.0"/>
      <point x="526.0" y="-252.0"/>
      <point x="587.0" y="-252.0" type="curve" smooth="yes"/>
      <point x="628.0" y="-252.0"/>
      <point x="671.0" y="-240.0"/>
      <point x="700.0" y="-219.0" type="curve"/>
      <point x="700.0" y="-142.0" type="line"/>
      <point x="679.0" y="-148.0"/>
      <point x="658.0" y="-152.0"/>
      <point x="639.0" y="-152.0" type="curve" smooth="yes"/>
      <point x="606.0" y="-152.0"/>
      <point x="581.0" y="-141.0"/>
      <point x="580.0" y="-109.0" type="curve"/>
      <point x="576.0" y="-60.0"/>
      <point x="623.0" y="-28.0"/>
      <point x="677.0" y="6.0" type="curve"/>
      <point x="625.0" y="26.0" type="line"/>
      <point x="566.0" y="0.0" type="line"/>
      <point x="515.0" y="-28.0"/>
      <point x="456.0" y="-81.0"/>
    </contour>
    <component base="A"/>
  </outline>
</glyph>
<glyph name="dcroat" format="2">
  <advance width="654.0"/>
  <unicode hex="0111"/>
  <anchor x="325.0" y="0.0" name="bottom"/>
  <anchor x="315.0" y="-83.0" name="btm"/>
  <anchor x="325.0" y="279.0" name="center"/>
  <anchor x="202.0" y="831.0" name="top"/>
  <anchor x="630.0" y="557.0" name="topright"/>
  <outline>
    <contour>
      <point x="309.0" y="631.0" type="line"/>
      <point x="634.0" y="631.0" type="line"/>
      <point x="634.0" y="719.0" type="line"/>
      <point x="309.0" y="719.0" type="line"/>
    </contour>
    <component base="d"/>
  </outline>
</glyph>
<glyph name="Hbar" format="2">
  <advance width="792.0"/>
  <unicode hex="0126"/>
  <outline>
    <contour>
      <point x="92.0" y="0.0" type="line"/>
      <point x="249.0" y="0.0" type="line"/>
      <point x="249.0" y="303.0" type="line"/>
      <point x="542.0" y="303.0" type="line"/>
      <point x="542.0" y="0.0" type="line"/>
      <point x="700.0" y="0.0" type="line"/>
      <point x="700.0" y="743.0" type="line"/>
      <point x="542.0" y="743.0" type="line"/>
      <point x="542.0" y="417.0" type="line"/>
      <point x="249.0" y="417.0" type="line"/>
      <point x="249.0" y="743.0" type="line"/>
      <point x="92.0" y="743.0" type="line"/>
    </contour>
    <contour>
      <point x="12.0" y="510.0" type="line"/>
      <point x="781.0" y="510.0" type="line"/>
      <point x="781.0" y="604.0" type="line"/>
      <point x="12.0" y="604.0" type="line"/>
    </contour>
  </outline>
</glyph>
<glyph name="hbar" format="2">
  <advance width="660.0"/>
  <unicode hex="0127"/>
  <anchor x="330.0" y="0.0" name="bottom"/>
  <anchor x="330.0" y="-83.0" name="btm"/>
  <anchor x="330.0" y="492.0" name="center"/>
  <anchor x="159.0" y="869.0" name="top"/>
  <outline>
    <contour>
      <point x="18.0" y="631.0" type="line"/>
      <point x="343.0" y="631.0" type="line"/>
      <point x="343.0" y="719.0" type="line"/>
      <point x="18.0" y="719.0" type="line"/>
    </contour>
    <component base="h"/>
  </outline>
</glyph>
<glyph name="Lslash" format="2">
  <advance width="547.0"/>
  <unicode hex="0141"/>
  <anchor x="274.0" y="0.0" name="bottom"/>
  <anchor x="298.0" y="-83.0" name="btm"/>
  <anchor x="274.0" y="372.0" name="center"/>
  <anchor x="170.0" y="830.0" name="top"/>
  <anchor x="527.0" y="743.0" name="topright"/>
  <outline>
    <contour>
      <point x="12.0" y="360.0" type="line"/>
      <point x="44.0" y="277.0" type="line"/>
      <point x="432.0" y="419.0" type="line"/>
      <point x="400.0" y="503.0" type="line"/>
    </contour>
    <component base="L"/>
  </outline>
</glyph>
<glyph name="Eng" format="2">
  <advance width="791.0"/>
  <unicode hex="014A"/>
  <outline>
    <contour>
      <point x="245.0" y="0.0" type="line"/>
      <point x="245.0" y="362.0" type="line"/>
      <point x="215.0" y="640.0" type="line"/>
      <point x="174.0" y="640.0" type="line"/>
      <point x="283.0" y="420.0" type="line"/>
      <point x="540.0" y="9.0" type="line"/>
      <point x="540.0" y="-59.0"/>
      <point x="445.0" y="-130.0"/>
      <point x="362.0" y="-154.0" type="curve"/>
      <point x="396.0" y="-215.0" type="line"/>
      <point x="527.0" y="-209.0"/>
      <point x="653.0" y="-130.0"/>
      <point x="684.0" y="-18.0" type="curve" smooth="yes"/>
      <point x="702.0" y="47.0"/>
      <point x="699.0" y="108.0"/>
      <point x="699.0" y="200.0" type="curve" smooth="yes"/>
      <point x="699.0" y="743.0" type="line"/>
      <point x="545.0" y="743.0" type="line"/>
      <point x="545.0" y="374.0" type="line"/>
      <point x="568.0" y="135.0" type="line"/>
      <point x="594.0" y="135.0" type="line"/>
      <point x="507.0" y="306.0" type="line"/>
      <point x="242.0" y="743.0" type="line"/>
      <point x="91.0" y="743.0" type="line"/>
      <point x="92.0" y="0.0" type="line"/>
    </contour>
  </outline>
</glyph>
<glyph name="OE" format="2">
  <advance width="1042.0"/>
  <unicode hex="0152"/>
  <anchor x="521.0" y="0.0" name="bottom"/>
  <anchor x="522.0" y="-83.0" name="btm"/>
  <anchor x="522.0" y="830.0" name="top"/>
  <outline>
    <contour>
      <point x="52.0" y="375.0" type="curve" smooth="yes"/>
      <point x="47.0" y="153.0"/>
      <point x="173.0" y="-9.0"/>
      <point x="386.0" y="-8.0" type="curve" smooth="yes"/>
      <point x="452.0" y="-7.0"/>
      <point x="512.0" y="9.0"/>
      <point x="547.0" y="44.0" type="curve"/>
      <point x="538.0" y="194.0" type="line"/>
      <point x="509.0" y="129.0"/>
      <point x="461.0" y="108.0"/>
      <point x="393.0" y="108.0" type="curve" smooth="yes"/>
      <point x="275.0" y="108.0"/>
      <point x="210.0" y="213.0"/>
      <point x="210.0" y="370.0" type="curve" smooth="yes"/>
      <point x="210.0" y="578.0"/>
      <point x="309.0" y="633.0"/>
      <point x="400.0" y="633.0" type="curve" smooth="yes"/>
      <point x="475.0" y="633.0"/>
      <point x="512.0" y="588.0"/>
      <point x="536.0" y="553.0" type="curve"/>
      <point x="548.0" y="704.0" type="line"/>
      <point x="515.0" y="737.0"/>
      <point x="463.0" y="751.0"/>
      <point x="400.0" y="751.0" type="curve" smooth="yes"/>
      <point x="206.0" y="749.0"/>
      <point x="57.0" y="621.0"/>
    </contour>
    <contour>
      <point x="515.0" y="0.0" type="line"/>
      <point x="1000.0" y="0.0" type="line"/>
      <point x="1000.0" y="123.0" type="line"/>
      <point x="670.0" y="123.0" type="line"/>
      <point x="670.0" y="324.0" type="line"/>
      <point x="890.0" y="324.0" type="line"/>
      <point x="890.0" y="441.0" type="line"/>
      <point x="670.0" y="441.0" type="line"/>
      <point x="670.0" y="624.0" type="line"/>
      <point x="968.0" y="624.0" type="line"/>
      <point x="968.0" y="743.0" type="line"/>
      <point x="515.0" y="743.0" type="line"/>
    </contour>
  </outline>
</glyph>
<glyph name="oe" format="2">
  <advance width="958.0"/>
  <unicode hex="0153"/>
  <anchor x="479.0" y="0.0" name="bottom"/>
  <anchor x="512.0" y="-83.0" name="btm"/>
  <anchor x="512.0" y="830.0" name="top"/>
  <outline>
    <contour>
      <point x="686.0" y="-8.0" type="curve" smooth="yes"/>
      <point x="772.0" y="-8.0"/>
      <point x="856.0" y="18.0"/>
      <point x="893.0" y="48.0" type="curve"/>
      <point x="868.0" y="134.0" type="line"/>
      <point x="838.0" y="118.0"/>
      <point x="764.0" y="105.0"/>
      <point x="725.0" y="105.0" type="curve" smooth="yes"/>
      <point x="636.0" y="105.0"/>
      <point x="579.0" y="150.0"/>
      <point x="576.0" y="251.0" type="curve"/>
      <point x="573.0" y="410.0"/>
      <point x="616.0" y="456.0"/>
      <point x="685.0" y="456.0" type="curve" smooth="yes"/>
      <point x="753.0" y="456.0"/>
      <point x="774.0" y="408.0"/>
      <point x="769.0" y="326.0" type="curve"/>
      <point x="515.0" y="326.0" type="line"/>
      <point x="505.0" y="242.0" type="line"/>
      <point x="905.0" y="242.0" type="line"/>
      <point x="909.0" y="267.0"/>
      <point x="911.0" y="304.0"/>
      <point x="911.0" y="346.0" type="curve" smooth="yes"/>
      <point x="911.0" y="508.0"/>
      <point x="805.0" y="565.0"/>
      <point x="689.0" y="564.0" type="curve" smooth="yes"/>
      <point x="519.0" y="563.0"/>
      <point x="427.0" y="442.0"/>
      <point x="427.0" y="280.0" type="curve" smooth="yes"/>
      <point x="427.0" y="100.0"/>
      <point x="516.0" y="-8.0"/>
    </contour>
    <contour>
      <point x="313.0" y="100.0" type="curve" smooth="yes"/>
      <point x="234.0" y="101.0"/>
      <point x="205.0" y="189.0"/>
      <point x="205.0" y="286.0" type="curve" smooth="yes"/>
      <point x="205.0" y="394.0"/>
      <point x="236.0" y="457.0"/>
      <point x="317.0" y="456.0" type="curve"/>
      <point x="397.0" y="455.0"/>
      <point x="426.0" y="369.0"/>
      <point x="426.0" y="274.0" type="curve" smooth="yes"/>
      <point x="426.0" y="162.0"/>
      <point x="394.0" y="99.0"/>
    </contour>
    <contour>
      <point x="310.0" y="-8.0" type="curve" smooth="yes"/>
      <point x="468.0" y="-8.0"/>
      <point x="572.0" y="88.0"/>
      <point x="575.0" y="267.0" type="curve" smooth="yes"/>
      <point x="577.0" y="425.0"/>
      <point x="517.0" y="564.0"/>
      <point x="320.0" y="564.0" type="curve" smooth="yes"/>
      <point x="162.0" y="564.0"/>
      <point x="49.0" y="469.0"/>
      <point x="47.0" y="290.0" type="curve" smooth="yes"/>
      <point x="44.0" y="131.0"/>
      <point x="114.0" y="-8.0"/>
    </contour>
  </outline>
</glyph>
<glyph name="Tbar" format="2">
  <advance width="610.0"/>
  <unicode hex="0166"/>
  <anchor x="305.0" y="0.0" name="bottom"/>
  <anchor x="303.0" y="-83.0" name="btm"/>
  <anchor x="305.0" y="372.0" name="center"/>
  <anchor x="303.0" y="830.0" name="top"/>
  <outline>
    <contour>
      <point x="94.0" y="292.0" type="line"/>
      <point x="525.0" y="292.0" type="line"/>
      <point x="525.0" y="389.0" type="line"/>
      <point x="94.0" y="389.0" type="line"/>
    </contour>
    <component base="T"/>
  </outline>
</glyph>
<glyph name="tbar" format="2">
  <advance width="446.0"/>
  <unicode hex="0167"/>
  <anchor x="223.0" y="0.0" name="bottom"/>
  <anchor x="253.0" y="-83.0" name="btm"/>
  <anchor x="223.0" y="279.0" name="center"/>
  <anchor x="211.0" y="913.0" name="top"/>
  <anchor x="426.0" y="557.0" name="topright"/>
  <outline>
    <contour>
      <point x="40.0" y="255.0" type="line"/>
      <point x="410.0" y="255.0" type="line"/>
      <point x="410.0" y="360.0" type="line"/>
      <point x="40.0" y="360.0" type="line"/>
    </contour>
    <component base="t"/>
  </outline>
</glyph>
<glyph name="Schwa" format="2">
  <advance width="751.0"/>
  <unicode hex="018F"/>
  <anchor x="376.0" y="0.0" name="bottom"/>
  <anchor x="361.0" y="-83.0" name="btm"/>
  <anchor x="357.0" y="831.0" name="top"/>
  <outline>
    <contour>
      <point x="347.0" y="-8.0" type="curve" smooth="yes"/>
      <point x="580.0" y="-8.0"/>
      <point x="703.0" y="140.0"/>
      <point x="703.0" y="372.0" type="curve" smooth="yes"/>
      <point x="703.0" y="634.0"/>
      <point x="541.0" y="751.0"/>
      <point x="360.0" y="752.0" type="curve" smooth="yes"/>
      <point x="230.0" y="753.0"/>
      <point x="135.0" y="707.0"/>
      <point x="88.0" y="673.0" type="curve"/>
      <point x="120.0" y="557.0" type="line"/>
      <point x="171.0" y="592.0"/>
      <point x="252.0" y="628.0"/>
      <point x="358.0" y="628.0" type="curve" smooth="yes"/>
      <point x="471.0" y="628.0"/>
      <point x="549.0" y="536.0"/>
      <point x="549.0" y="381.0" type="curve" smooth="yes"/>
      <point x="549.0" y="231.0"/>
      <point x="492.0" y="111.0"/>
      <point x="358.0" y="114.0" type="curve" smooth="yes"/>
      <point x="261.0" y="116.0"/>
      <point x="190.0" y="203.0"/>
      <point x="196.0" y="313.0" type="curve"/>
      <point x="572.0" y="313.0" type="line"/>
      <point x="585.0" y="424.0" type="line"/>
      <point x="55.0" y="424.0" type="line"/>
      <point x="51.0" y="393.0"/>
      <point x="48.0" y="373.0"/>
      <point x="48.0" y="319.0" type="curve" smooth="yes"/>
      <point x="48.0" y="90.0"/>
      <point x="196.0" y="-8.0"/>
    </contour>
  </outline>
</glyph>
<glyph name="jdotless" format="2">
  <advance width="314.0"/>
  <unicode hex="0237"/>
  <anchor x="157.0" y="-273.0" name="bottom"/>
  <anchor x="161.0" y="831.0" name="top"/>
  <outline>
    <contour>
      <point x="-51.0" y="-236.0" type="line"/>
      <point x="-39.0" y="-241.0"/>
      <point x="16.0" y="-248.0"/>
      <point x="35.0" y="-248.0" type="curve" smooth="yes"/>
      <point x="161.0" y="-248.0"/>
      <point x="237.0" y="-167.0"/>
      <point x="237.0" y="40.0" type="curve" smooth="yes"/>
      <point x="237.0" y="557.0" type="line"/>
      <point x="85.0" y="557.0" type="line"/>
      <point x="85.0" y="0.0" type="line" smooth="yes"/>
      <point x="85.0" y="-111.0"/>
      <point x="65.0" y="-148.0"/>
      <point x="6.0" y="-148.0" type="curve" smooth="yes"/>
      <point x="-10.0" y="-148.0"/>
      <point x="-42.0" y="-142.0"/>
      <point x="-51.0" y="-138.0" type="curve"/>
    </contour>
  </outline>
</glyph>
<glyph name="commaturnedmod" format="2">
  <unicode hex="02BB"/>
  <outline>
    <contour>
      <point x="6.0" y="640.0" type="curve" smooth="yes"/>
      <point x="11.0" y="640.0" type="line" smooth="yes"/>
      <point x="26.0" y="640.0"/>
      <point x="65.0" y="647.0"/>
      <point x="65.0" y="688.0" type="curve" smooth="yes"/>
      <point x="65.0" y="711.0"/>
      <point x="54.0" y="721.0"/>
      <point x="42.0" y="729.0" type="curve" smooth="yes"/>
      <point x="30.0" y="737.0"/>
      <point x="16.0" y="747.0"/>
      <point x="16.0" y="769.0" type="curve" smooth="yes"/>
      <point x="16.0" y="803.0"/>
      <point x="33.0" y="825.0"/>
      <point x="58.0" y="836.0" type="curve"/>
      <point x="58.0" y="843.0" type="line"/>
      <point x="25.0" y="864.0" type="line"/>
      <point x="23.0" y="864.0" type="line"/>
      <point x="10.0" y="860.0"/>
      <point x="-68.0" y="805.0"/>
      <point x="-68.0" y="728.0" type="curve" smooth="yes"/>
      <point x="-68.0" y="671.0"/>
      <point x="-39.0" y="640.0"/>
    </contour>
  </outline>
</glyph>
<glyph name="circumflex" format="2">
  <advance width="429.0"/>
  <unicode hex="02C6"/>
  <anchor x="214.0" y="831.0" name="_top"/>
  <outline>
    <contour>
      <point x="97.0" y="604.0" type="line"/>
      <point x="215.0" y="724.0" type="line"/>
      <point x="329.0" y="604.0" type="line"/>
      <point x="408.0" y="648.0" type="line"/>
      <point x="270.0" y="830.0" type="line"/>
      <point x="161.0" y="830.0" type="line"/>
      <point x="21.0" y="647.0" type="line"/>
    </contour>
  </outline>
</glyph>
<glyph name="breve" format="2">
  <unicode hex="02D8"/>
  <anchor x="199.0" y="831.0" name="_top"/>
  <outline>
    <contour>
      <point x="199.0" y="634.0" type="curve" smooth="yes"/>
      <point x="309.0" y="634.0"/>
      <point x="381.0" y="720.0"/>
      <point x="377.0" y="823.0" type="curve"/>
      <point x="283.0" y="823.0" type="line"/>
      <point x="280.0" y="801.0"/>
      <point x="274.0" y="740.0"/>
      <point x="200.0" y="740.0" type="curve" smooth="yes"/>
      <point x="123.0" y="740.0"/>
      <point x="119.0" y="801.0"/>
      <point x="117.0" y="823.0" type="curve"/>
      <point x="21.0" y="823.0" type="line"/>
      <point x="18.0" y="720.0"/>
      <point x="84.0" y="634.0"/>
    </contour>
  </outline>
</glyph>
<glyph name="ring" format="2">
  <advance width="375.0"/>
  <unicode hex="02DA"/>
  <anchor x="188.0" y="831.0" name="_top"/>
  <outline>
    <contour>
      <point x="186.0" y="642.0" type="curve" smooth="yes"/>
      <point x="272.0" y="642.0"/>
      <point x="353.0" y="684.0"/>
      <point x="354.0" y="783.0" type="curve" smooth="yes"/>
      <point x="354.0" y="873.0"/>
      <point x="292.0" y="922.0"/>
      <point x="190.0" y="922.0" type="curve" smooth="yes"/>
      <point x="108.0" y="922.0"/>
      <point x="22.0" y="885.0"/>
      <point x="21.0" y="785.0" type="curve" smooth="yes"/>
      <point x="19.0" y="697.0"/>
      <point x="81.0" y="642.0"/>
    </contour>
    <contour>
      <point x="187.0" y="716.0" type="curve" smooth="yes"/>
      <point x="142.0" y="716.0"/>
      <point x="110.0" y="744.0"/>
      <point x="110.0" y="785.0" type="curve" smooth="yes"/>
      <point x="110.0" y="835.0"/>
      <point x="146.0" y="851.0"/>
      <point x="187.0" y="851.0" type="curve" smooth="yes"/>
      <point x="231.0" y="850.0"/>
      <point x="265.0" y="825.0"/>
      <point x="265.0" y="781.0" type="curve" smooth="yes"/>
      <point x="265.0" y="730.0"/>
      <point x="233.0" y="715.0"/>
    </contour>
  </outline>
</glyph>
<glyph name="tilde" format="2">
  <advance width="458.0"/>
  <unicode hex="02DC"/>
  <anchor x="233.0" y="831.0" name="_top"/>
  <outline>
    <contour>
      <point x="77.0" y="671.0" type="line"/>
      <point x="95.0" y="694.0"/>
      <point x="124.0" y="721.0"/>
      <point x="152.0" y="721.0" type="curve" smooth="yes"/>
      <point x="208.0" y="721.0"/>
      <point x="219.0" y="656.0"/>
      <point x="298.0" y="656.0" type="curve" smooth="yes"/>
      <point x="373.0" y="656.0"/>
      <point x="421.0" y="704.0"/>
      <point x="443.0" y="768.0" type="curve"/>
      <point x="382.0" y="820.0" type="line"/>
      <point x="364.0" y="795.0"/>
      <point x="339.0" y="766.0"/>
      <point x="306.0" y="766.0" type="curve" smooth="yes"/>
      <point x="256.0" y="766.0"/>
      <point x="247.0" y="830.0"/>
      <point x="163.0" y="830.0" type="curve" smooth="yes"/>
      <point x="88.0" y="830.0"/>
      <point x="37.0" y="781.0"/>
      <point x="16.0" y="719.0" type="curve"/>
    </contour>
  </outline>
</glyph>
<glyph name="hungarumlaut" format="2">
  <advance width="510.0"/>
  <unicode hex="02DD"/>
  <anchor x="205.0" y="824.0" name="_top"/>
  <outline>
    <contour>
      <point x="90.0" y="645.0" type="line"/>
      <point x="135.0" y="671.0"/>
      <point x="224.0" y="772.0"/>
      <point x="255.0" y="822.0" type="curve"/>
      <point x="160.0" y="889.0" type="line"/>
      <point x="28.0" y="690.0" type="line"/>
    </contour>
    <contour>
      <point x="341.0" y="645.0" type="line"/>
      <point x="388.0" y="667.0"/>
      <point x="479.0" y="772.0"/>
      <point x="510.0" y="821.0" type="curve"/>
      <point x="414.0" y="887.0" type="line"/>
      <point x="281.0" y="690.0" type="line"/>
    </contour>
  </outline>
</glyph>
<glyph name="circumflexcomb" format="2">
  <unicode hex="0302"/>
  <anchor x="0.0" y="830.0" name="_top"/>
  <anchor x="0.0" y="1057.0" name="top"/>
  <outline>
    <contour>
      <point x="-118.0" y="617.0" type="line"/>
      <point x="0.0" y="722.0" type="line"/>
      <point x="114.0" y="617.0" type="line"/>
      <point x="191.0" y="658.0" type="line"/>
      <point x="50.0" y="833.0" type="line"/>
      <point x="-49.0" y="833.0" type="line"/>
      <point x="-192.0" y="657.0" type="line"/>
    </contour>
  </outline>
</glyph>
<glyph name="tildecomb" format="2">
  <unicode hex="0303"/>
  <anchor x="0.0" y="830.0" name="_top"/>
  <anchor x="0.0" y="1029.0" name="top"/>
  <outline>
    <contour>
      <point x="69.0" y="644.0" type="curve" smooth="yes"/>
      <point x="154.0" y="644.0"/>
      <point x="176.0" y="707.0"/>
      <point x="190.0" y="769.0" type="curve"/>
      <point x="125.0" y="792.0" type="line"/>
      <point x="119.0" y="762.0"/>
      <point x="108.0" y="741.0"/>
      <point x="74.0" y="742.0" type="curve" smooth="yes"/>
      <point x="30.0" y="743.0"/>
      <point x="10.0" y="818.0"/>
      <point x="-64.0" y="818.0" type="curve" smooth="yes"/>
      <point x="-151.0" y="818.0"/>
      <point x="-177.0" y="754.0"/>
      <point x="-195.0" y="692.0" type="curve"/>
      <point x="-127.0" y="672.0" type="line"/>
      <point x="-122.0" y="700.0"/>
      <point x="-107.0" y="720.0"/>
      <point x="-76.0" y="720.0" type="curve" smooth="yes"/>
      <point x="-33.0" y="720.0"/>
      <point x="-1.0" y="644.0"/>
    </contour>
  </outline>
</glyph>
<glyph name="brevecomb" format="2">
  <unicode hex="0306"/>
  <anchor x="0.0" y="831.0" name="_top"/>
  <anchor x="0.0" y="983.0" name="top"/>
  <outline>
    <contour>
      <point x="0.0" y="634.0" type="curve" smooth="yes"/>
      <point x="110.0" y="634.0"/>
      <point x="182.0" y="720.0"/>
      <point x="178.0" y="823.0" type="curve"/>
      <point x="84.0" y="823.0" type="line"/>
      <point x="81.0" y="801.0"/>
      <point x="75.0" y="740.0"/>
      <point x="1.0" y="740.0" type="curve" smooth="yes"/>
      <point x="-76.0" y="740.0"/>
      <point x="-80.0" y="801.0"/>
      <point x="-82.0" y="823.0" type="curve"/>
      <point x="-178.0" y="823.0" type="line"/>
      <point x="-181.0" y="720.0"/>
      <point x="-115.0" y="634.0"/>
    </contour>
  </outline>
</glyph>
<glyph name="dotaccentcomb" format="2">
  <unicode hex="0307"/>
  <anchor x="0.0" y="831.0" name="_top"/>
  <anchor x="0.0" y="1007.0" name="top"/>
  <outline>
    <contour>
      <point x="-5.0" y="642.0" type="curve" smooth="yes"/>
      <point x="47.0" y="642.0"/>
      <point x="92.0" y="684.0"/>
      <point x="92.0" y="734.0" type="curve" smooth="yes"/>
      <point x="92.0" y="782.0"/>
      <point x="58.0" y="817.0"/>
      <point x="4.0" y="817.0" type="curve" smooth="yes"/>
      <point x="-47.0" y="817.0"/>
      <point x="-93.0" y="775.0"/>
      <point x="-93.0" y="726.0" type="curve" smooth="yes"/>
      <point x="-93.0" y="677.0"/>
      <point x="-55.0" y="642.0"/>
    </contour>
  </outline>
</glyph>
<glyph name="dieresiscomb" format="2">
  <unicode hex="0308"/>
  <anchor x="0.0" y="830.0" name="_top"/>
  <anchor x="0.0" y="1023.0" name="top"/>
  <outline>
    <contour>
      <point x="-123.0" y="643.0" type="curve" smooth="yes"/>
      <point x="-72.0" y="643.0"/>
      <point x="-33.0" y="683.0"/>
      <point x="-33.0" y="733.0" type="curve" smooth="yes"/>
      <point x="-33.0" y="780.0"/>
      <point x="-60.0" y="815.0"/>
      <point x="-113.0" y="815.0" type="curve" smooth="yes"/>
      <point x="-163.0" y="815.0"/>
      <point x="-204.0" y="774.0"/>
      <point x="-204.0" y="725.0" type="curve" smooth="yes"/>
      <point x="-204.0" y="677.0"/>
      <point x="-172.0" y="643.0"/>
    </contour>
    <contour>
      <point x="114.0" y="643.0" type="curve" smooth="yes"/>
      <point x="165.0" y="643.0"/>
      <point x="203.0" y="683.0"/>
      <point x="203.0" y="733.0" type="curve" smooth="yes"/>
      <point x="203.0" y="780.0"/>
      <point x="177.0" y="815.0"/>
      <point x="123.0" y="815.0" type="curve" smooth="yes"/>
      <point x="74.0" y="815.0"/>
      <point x="33.0" y="774.0"/>
      <point x="33.0" y="725.0" type="curve" smooth="yes"/>
      <point x="33.0" y="677.0"/>
      <point x="65.0" y="643.0"/>
    </contour>
  </outline>
</glyph>
<glyph name="ringcomb" format="2">
  <unicode hex="030A"/>
  <anchor x="0.0" y="830.0" name="_top"/>
  <anchor x="83.0" y="1037.0" name="top"/>
  <outline>
    <contour>
      <point x="-2.0" y="642.0" type="curve" smooth="yes"/>
      <point x="84.0" y="642.0"/>
      <point x="166.0" y="684.0"/>
      <point x="167.0" y="783.0" type="curve" smooth="yes"/>
      <point x="168.0" y="873.0"/>
      <point x="104.0" y="922.0"/>
      <point x="2.0" y="922.0" type="curve" smooth="yes"/>
      <point x="-80.0" y="922.0"/>
      <point x="-166.0" y="885.0"/>
      <point x="-167.0" y="785.0" type="curve" smooth="yes"/>
      <point x="-168.0" y="697.0"/>
      <point x="-107.0" y="642.0"/>
    </contour>
    <contour>
      <point x="-1.0" y="716.0" type="curve" smooth="yes"/>
      <point x="-46.0" y="717.0"/>
      <point x="-78.0" y="744.0"/>
      <point x="-78.0" y="785.0" type="curve" smooth="yes"/>
      <point x="-78.0" y="835.0"/>
      <point x="-42.0" y="851.0"/>
      <point x="-1.0" y="851.0" type="curve" smooth="yes"/>
      <point x="43.0" y="851.0"/>
      <point x="77.0" y="825.0"/>
      <point x="77.0" y="781.0" type="curve" smooth="yes"/>
      <point x="77.0" y="730.0"/>
      <point x="45.0" y="715.0"/>
    </contour>
  </outline>
</glyph>
<glyph name="hungarumlautcomb" format="2">
  <unicode hex="030B"/>
  <anchor x="0.0" y="824.0" name="_top"/>
  <anchor x="64.0" y="889.0" name="top"/>
  <outline>
    <contour>
      <point x="-115.0" y="645.0" type="line"/>
      <point x="-70.0" y="671.0"/>
      <point x="19.0" y="772.0"/>
      <point x="50.0" y="822.0" type="curve"/>
      <point x="-45.0" y="889.0" type="line"/>
      <point x="-89.0" y="823.0"/>
      <point x="-133.0" y="756.0"/>
      <point x="-177.0" y="690.0" type="curve"/>
    </contour>
    <contour>
      <point x="136.0" y="645.0" type="line"/>
      <point x="183.0" y="667.0"/>
      <point x="274.0" y="772.0"/>
      <point x="305.0" y="821.0" type="curve"/>
      <point x="209.0" y="887.0" type="line"/>
      <point x="165.0" y="821.0"/>
      <point x="120.0" y="756.0"/>
      <point x="76.0" y="690.0" type="curve"/>
    </contour>
  </outline>
</glyph>
<glyph name="caroncomb" format="2">
  <unicode hex="030C"/>
  <anchor x="0.0" y="830.0" name="_top"/>
  <anchor x="0.0" y="1031.0" name="top"/>
  <outline>
    <contour>
      <point x="-194.0" y="818.0" type="line"/>
      <point x="-54.0" y="636.0" type="line"/>
      <point x="55.0" y="636.0" type="line"/>
      <point x="193.0" y="818.0" type="line"/>
      <point x="114.0" y="862.0" type="line"/>
      <point x="0.0" y="741.0" type="line"/>
      <point x="-118.0" y="862.0" type="line"/>
    </contour>
  </outline>
</glyph>
<glyph name="dblgravecomb" format="2">
  <unicode hex="030F"/>
  <anchor x="0.0" y="824.0" name="_top"/>
  <anchor x="-28.0" y="889.0" name="top"/>
  <outline>
    <contour>
      <point x="151.0" y="645.0" type="curve"/>
      <point x="213.0" y="690.0" type="line"/>
      <point x="169.0" y="756.0"/>
      <point x="125.0" y="823.0"/>
      <point x="81.0" y="889.0" type="curve"/>
      <point x="-14.0" y="822.0" type="line"/>
      <point x="17.0" y="772.0"/>
      <point x="105.0" y="671.0"/>
    </contour>
    <contour>
      <point x="-100.0" y="645.0" type="curve"/>
      <point x="-41.0" y="690.0" type="line"/>
      <point x="-85.0" y="756.0"/>
      <point x="-130.0" y="821.0"/>
      <point x="-174.0" y="887.0" type="curve"/>
      <point x="-269.0" y="821.0" type="line"/>
      <point x="-238.0" y="772.0"/>
      <point x="-147.0" y="667.0"/>
    </contour>
  </outline>
</glyph>
<glyph name="cedillacomb" format="2">
  <unicode hex="0327"/>
  <anchor x="-32.0" y="0.0" name="_bottom"/>
  <anchor x="0.0" y="-83.0" name="_btm"/>
  <anchor x="-32.0" y="-227.0" name="bottom"/>
  <outline>
    <contour>
      <point x="-139.0" y="-213.0" type="line"/>
      <point x="-127.0" y="-221.0"/>
      <point x="-79.0" y="-227.0"/>
      <point x="-51.0" y="-227.0" type="curve" smooth="yes"/>
      <point x="14.0" y="-227.0"/>
      <point x="71.0" y="-191.0"/>
      <point x="74.0" y="-108.0" type="curve" smooth="yes"/>
      <point x="76.0" y="-60.0"/>
      <point x="66.0" y="-6.0"/>
      <point x="43.0" y="15.0" type="curve"/>
      <point x="19.0" y="17.0" type="line"/>
      <point x="-48.0" y="15.0" type="line"/>
      <point x="-38.0" y="-2.0"/>
      <point x="-30.0" y="-23.0"/>
      <point x="-32.0" y="-66.0" type="curve" smooth="yes"/>
      <point x="-34.0" y="-116.0"/>
      <point x="-60.0" y="-139.0"/>
      <point x="-92.0" y="-139.0" type="curve" smooth="yes"/>
      <point x="-107.0" y="-139.0"/>
      <point x="-121.0" y="-138.0"/>
      <point x="-129.0" y="-132.0" type="curve"/>
    </contour>
  </outline>
</glyph>
<glyph name="ogonekcomb" format="2">
  <unicode hex="0328"/>
  <anchor x="268.0" y="25.0" name="_ogonek"/>
  <outline>
    <contour>
      <point x="157.0" y="-251.0" type="curve" smooth="yes"/>
      <point x="210.0" y="-251.0"/>
      <point x="254.0" y="-236.0"/>
      <point x="281.0" y="-217.0" type="curve"/>
      <point x="277.0" y="-151.0" type="line"/>
      <point x="259.0" y="-156.0"/>
      <point x="230.0" y="-165.0"/>
      <point x="204.0" y="-165.0" type="curve" smooth="yes"/>
      <point x="168.0" y="-165.0"/>
      <point x="146.0" y="-153.0"/>
      <point x="145.0" y="-124.0" type="curve" smooth="yes"/>
      <point x="142.0" y="-71.0"/>
      <point x="203.0" y="-21.0"/>
      <point x="260.0" y="9.0" type="curve"/>
      <point x="202.0" y="4.0" type="line"/>
      <point x="144.0" y="-3.0" type="line"/>
      <point x="88.0" y="-32.0"/>
      <point x="26.0" y="-86.0"/>
      <point x="30.0" y="-160.0" type="curve" smooth="yes"/>
      <point x="33.0" y="-221.0"/>
      <point x="94.0" y="-252.0"/>
    </contour>
  </outline>
</glyph>
<glyph name="slashshortcomb" format="2">
  <unicode hex="0337"/>
  <anchor x="0.0" y="227.0" name="_center"/>
  <outline>
    <contour>
      <point x="138.0" y="555.0" type="line"/>
      <point x="-243.0" y="-101.0" type="line"/>
      <point x="-136.0" y="-101.0" type="line"/>
      <point x="243.0" y="555.0" type="line"/>
    </contour>
  </outline>
</glyph>
<glyph name="slashlongcomb" format="2">
  <unicode hex="0338"/>
  <anchor x="0.0" y="351.0" name="_center"/>
  <outline>
    <contour>
      <point x="136.0" y="803.0" type="line"/>
      <point x="-245.0" y="-101.0" type="line"/>
      <point x="-134.0" y="-101.0" type="line"/>
      <point x="245.0" y="803.0" type="line"/>
    </contour>
  </outline>
</glyph>
<glyph name="figuredash" format="2">
  <advance width="607.0"/>
  <unicode hex="2012"/>
  <outline>
    <contour>
      <point x="90.0" y="284.0" type="line"/>
      <point x="517.0" y="284.0" type="line"/>
      <point x="517.0" y="404.0" type="line"/>
      <point x="90.0" y="404.0" type="line"/>
    </contour>
  </outline>
</glyph>
<glyph name="quoteleft" format="2">
  <advance width="273.0"/>
  <unicode hex="2018"/>
  <outline>
    <contour>
      <point x="136.0" y="459.0" type="curve"/>
      <point x="219.0" y="520.0" type="line"/>
      <point x="219.0" y="554.0" type="line"/>
      <point x="199.0" y="564.0"/>
      <point x="175.0" y="608.0"/>
      <point x="175.0" y="663.0" type="curve" smooth="yes"/>
      <point x="175.0" y="708.0"/>
      <point x="188.0" y="769.0"/>
      <point x="209.0" y="793.0" type="curve"/>
      <point x="209.0" y="807.0" type="line"/>
      <point x="146.0" y="848.0" type="line"/>
      <point x="114.0" y="824.0"/>
      <point x="46.0" y="746.0"/>
      <point x="46.0" y="628.0" type="curve" smooth="yes"/>
      <point x="46.0" y="538.0"/>
      <point x="88.0" y="477.0"/>
    </contour>
  </outline>
</glyph>
<glyph name="dagger" format="2">
  <advance width="506.0"/>
  <unicode hex="2020"/>
  <outline>
    <contour>
      <point x="198.0" y="98.0" type="line"/>
      <point x="310.0" y="98.0" type="line"/>
      <point x="315.0" y="526.0" type="line"/>
      <point x="454.0" y="525.0" type="line"/>
      <point x="454.0" y="629.0" type="line"/>
      <point x="315.0" y="628.0" type="line"/>
      <point x="315.0" y="810.0" type="line"/>
      <point x="190.0" y="810.0" type="line"/>
      <point x="190.0" y="628.0" type="line"/>
      <point x="53.0" y="629.0" type="line"/>
      <point x="52.0" y="525.0" type="line"/>
      <point x="190.0" y="526.0" type="line"/>
    </contour>
  </outline>
</glyph>
<glyph name="bullet" format="2">
  <advance width="442.0"/>
  <unicode hex="2022"/>
  <outline>
    <contour>
      <point x="216.0" y="228.0" type="curve" smooth="yes"/>
      <point x="289.0" y="228.0"/>
      <point x="349.0" y="290.0"/>
      <point x="351.0" y="360.0" type="curve" smooth="yes"/>
      <point x="352.0" y="433.0"/>
      <point x="299.0" y="486.0"/>
      <point x="227.0" y="486.0" type="curve" smooth="yes"/>
      <point x="155.0" y="486.0"/>
      <point x="93.0" y="425.0"/>
      <point x="91.0" y="354.0" type="curve" smooth="yes"/>
      <point x="90.0" y="283.0"/>
      <point x="144.0" y="228.0"/>
    </contour>
  </outline>
</glyph>
<glyph name="colonsign" format="2">
  <advance width="702.0"/>
  <unicode hex="20A1"/>
  <outline>
    <contour>
      <point x="280.0" y="-173.0" type="line"/>
      <point x="337.0" y="-173.0" type="line"/>
      <point x="349.0" y="0.0" type="line"/>
      <point x="370.0" y="-3.0"/>
      <point x="392.0" y="-6.0"/>
      <point x="415.0" y="-7.0" type="curve"/>
      <point x="404.0" y="-173.0" type="line"/>
      <point x="461.0" y="-173.0" type="line"/>
      <point x="472.0" y="-7.0" type="line"/>
      <point x="544.0" y="-3.0"/>
      <point x="593.0" y="17.0"/>
      <point x="626.0" y="31.0" type="curve"/>
      <point x="626.0" y="178.0" type="line"/>
      <point x="603.0" y="157.0"/>
      <point x="542.0" y="134.0"/>
      <point x="481.0" y="130.0" type="curve"/>
      <point x="513.0" y="605.0" type="line"/>
      <point x="571.0" y="598.0"/>
      <point x="602.0" y="577.0"/>
      <point x="613.0" y="569.0" type="curve"/>
      <point x="636.0" y="721.0" type="line"/>
      <point x="610.0" y="728.0"/>
      <point x="577.0" y="740.0"/>
      <point x="522.0" y="747.0" type="curve"/>
      <point x="532.0" y="886.0" type="line"/>
      <point x="475.0" y="886.0" type="line"/>
      <point x="465.0" y="750.0" type="line"/>
      <point x="455.0" y="752.0"/>
      <point x="423.0" y="750.0"/>
      <point x="398.0" y="749.0" type="curve"/>
      <point x="408.0" y="886.0" type="line"/>
      <point x="351.0" y="886.0" type="line"/>
      <point x="341.0" y="740.0" type="line"/>
      <point x="172.0" y="705.0"/>
      <point x="48.0" y="581.0"/>
      <point x="48.0" y="370.0" type="curve" smooth="yes"/>
      <point x="48.0" y="188.0"/>
      <point x="132.0" y="60.0"/>
      <point x="292.0" y="13.0" type="curve"/>
    </contour>
    <contour>
      <point x="358.0" y="148.0" type="curve"/>
      <point x="389.0" y="600.0" type="line"/>
      <point x="410.0" y="605.0"/>
      <point x="432.0" y="608.0"/>
      <point x="456.0" y="608.0" type="curve"/>
      <point x="424.0" y="132.0" type="line"/>
      <point x="400.0" y="135.0"/>
      <point x="378.0" y="141.0"/>
    </contour>
    <contour>
      <point x="304.0" y="183.0" type="line"/>
      <point x="255.0" y="226.0"/>
      <point x="231.0" y="294.0"/>
      <point x="231.0" y="380.0" type="curve" smooth="yes"/>
      <point x="231.0" y="472.0"/>
      <point x="268.0" y="539.0"/>
      <point x="330.0" y="576.0" type="curve"/>
    </contour>
  </outline>
</glyph>
<glyph name="franc" format="2">
  <advance width="618.0"/>
  <unicode hex="20A3"/>
  <outline>
    <contour>
      <point x="27.0" y="106.0" type="line"/>
      <point x="110.0" y="106.0" type="line"/>
      <point x="110.0" y="0.0" type="line"/>
      <point x="286.0" y="0.0" type="line"/>
      <point x="286.0" y="106.0" type="line"/>
      <point x="417.0" y="106.0" type="line"/>
      <point x="417.0" y="204.0" type="line"/>
      <point x="286.0" y="204.0" type="line"/>
      <point x="286.0" y="291.0" type="line"/>
      <point x="505.0" y="291.0" type="line"/>
      <point x="505.0" y="421.0" type="line"/>
      <point x="286.0" y="421.0" type="line"/>
      <point x="286.0" y="612.0" type="line"/>
      <point x="568.0" y="612.0" type="line"/>
      <point x="568.0" y="743.0" type="line"/>
      <point x="110.0" y="743.0" type="line"/>
      <point x="110.0" y="204.0" type="line"/>
      <point x="27.0" y="204.0" type="line"/>
    </contour>
  </outline>
</glyph>
<glyph name="lira" format="2">
  <advance width="779.0"/>
  <unicode hex="20A4"/>
  <outline>
    <contour>
      <point x="113.0" y="412.0" type="line"/>
      <point x="199.0" y="412.0" type="line"/>
      <point x="199.0" y="354.0" type="line"/>
      <point x="102.0" y="354.0" type="line"/>
      <point x="102.0" y="281.0" type="line"/>
      <point x="199.0" y="281.0" type="line"/>
      <point x="199.0" y="257.0" type="line" smooth="yes"/>
      <point x="199.0" y="213.0"/>
      <point x="197.0" y="161.0"/>
      <point x="184.0" y="147.0" type="curve"/>
      <point x="120.0" y="143.0"/>
      <point x="55.0" y="110.0"/>
      <point x="55.0" y="55.0" type="curve" smooth="yes"/>
      <point x="55.0" y="12.0"/>
      <point x="97.0" y="-3.0"/>
      <point x="129.0" y="-3.0" type="curve" smooth="yes"/>
      <point x="168.0" y="-3.0"/>
      <point x="214.0" y="23.0"/>
      <point x="234.0" y="42.0" type="curve"/>
      <point x="286.0" y="42.0"/>
      <point x="372.0" y="-8.0"/>
      <point x="517.0" y="-8.0" type="curve" smooth="yes"/>
      <point x="676.0" y="-8.0"/>
      <point x="747.0" y="63.0"/>
      <point x="747.0" y="167.0" type="curve" smooth="yes"/>
      <point x="747.0" y="243.0"/>
      <point x="693.0" y="291.0"/>
      <point x="673.0" y="303.0" type="curve"/>
      <point x="547.0" y="246.0" type="line"/>
      <point x="560.0" y="240.0"/>
      <point x="583.0" y="211.0"/>
      <point x="583.0" y="180.0" type="curve" smooth="yes"/>
      <point x="583.0" y="136.0"/>
      <point x="551.0" y="103.0"/>
      <point x="476.0" y="103.0" type="curve" smooth="yes"/>
      <point x="416.0" y="103.0"/>
      <point x="379.0" y="122.0"/>
      <point x="332.0" y="133.0" type="curve"/>
      <point x="361.0" y="160.0"/>
      <point x="369.0" y="214.0"/>
      <point x="371.0" y="281.0" type="curve"/>
      <point x="514.0" y="281.0" type="line"/>
      <point x="514.0" y="354.0" type="line"/>
      <point x="371.0" y="354.0" type="line"/>
      <point x="371.0" y="412.0" type="line"/>
      <point x="525.0" y="412.0" type="line"/>
      <point x="525.0" y="485.0" type="line"/>
      <point x="371.0" y="485.0" type="line"/>
      <point x="371.0" y="494.0" type="line" smooth="yes"/>
      <point x="373.0" y="593.0"/>
      <point x="412.0" y="615.0"/>
      <point x="477.0" y="615.0" type="curve" smooth="yes"/>
      <point x="530.0" y="615.0"/>
      <point x="573.0" y="593.0"/>
      <point x="593.0" y="574.0" type="curve"/>
      <point x="663.0" y="699.0" type="line"/>
      <point x="633.0" y="721.0"/>
      <point x="579.0" y="751.0"/>
      <point x="478.0" y="751.0" type="curve" smooth="yes"/>
      <point x="303.0" y="751.0"/>
      <point x="199.0" y="651.0"/>
      <point x="199.0" y="506.0" type="curve" smooth="yes"/>
      <point x="199.0" y="485.0" type="line"/>
      <point x="113.0" y="485.0" type="line"/>
    </contour>
  </outline>
</glyph>
<glyph name="won" format="2">
  <advance width="1063.0"/>
  <unicode hex="20A9"/>
  <anchor x="532.0" y="0.0" name="bottom"/>
  <anchor x="522.0" y="-83.0" name="btm"/>
  <anchor x="522.0" y="830.0" name="top"/>
  <outline>
    <contour>
      <point x="66.0" y="171.0" type="line"/>
      <point x="245.0" y="171.0" type="line"/>
      <point x="244.0" y="272.0" type="line"/>
      <point x="65.0" y="272.0" type="line"/>
    </contour>
    <contour>
      <point x="208.0" y="557.0" type="line"/>
      <point x="30.0" y="557.0" type="line"/>
      <point x="31.0" y="457.0" type="line"/>
      <point x="209.0" y="457.0" type="line"/>
    </contour>
    <contour>
      <point x="813.0" y="170.0" type="line"/>
      <point x="992.0" y="170.0" type="line"/>
      <point x="991.0" y="271.0" type="line"/>
      <point x="812.0" y="271.0" type="line"/>
    </contour>
    <contour>
      <point x="1032.0" y="556.0" type="line"/>
      <point x="854.0" y="556.0" type="line"/>
      <point x="855.0" y="456.0" type="line"/>
      <point x="1033.0" y="456.0" type="line"/>
    </contour>
    <component base="W" xOffset="50.0"/>
  </outline>
</glyph>
<glyph name="dong" format="2">
  <advance width="671.0"/>
  <unicode hex="20AB"/>
  <outline>
    <contour>
      <point x="274.0" y="142.0" type="curve" smooth="yes"/>
      <point x="362.0" y="142.0"/>
      <point x="401.0" y="176.0"/>
      <point x="422.0" y="196.0" type="curve"/>
      <point x="422.0" y="142.0" type="line"/>
      <point x="564.0" y="142.0" type="line"/>
      <point x="564.0" y="661.0" type="line"/>
      <point x="653.0" y="661.0" type="line"/>
      <point x="653.0" y="743.0" type="line"/>
      <point x="564.0" y="743.0" type="line"/>
      <point x="564.0" y="827.0" type="line"/>
      <point x="405.0" y="827.0" type="line"/>
      <point x="405.0" y="743.0" type="line"/>
      <point x="245.0" y="743.0" type="line"/>
      <point x="245.0" y="661.0" type="line"/>
      <point x="405.0" y="661.0" type="line"/>
      <point x="406.0" y="602.0" type="line"/>
      <point x="389.0" y="605.0"/>
      <point x="363.0" y="609.0"/>
      <point x="327.0" y="609.0" type="curve" smooth="yes"/>
      <point x="171.0" y="609.0"/>
      <point x="74.0" y="517.0"/>
      <point x="74.0" y="359.0" type="curve" smooth="yes"/>
      <point x="74.0" y="211.0"/>
      <point x="167.0" y="142.0"/>
    </contour>
    <contour>
      <point x="312.0" y="254.0" type="curve" smooth="yes"/>
      <point x="271.0" y="254.0"/>
      <point x="234.0" y="285.0"/>
      <point x="234.0" y="362.0" type="curve" smooth="yes"/>
      <point x="234.0" y="445.0"/>
      <point x="256.0" y="502.0"/>
      <point x="332.0" y="502.0" type="curve" smooth="yes"/>
      <point x="383.0" y="502.0"/>
      <point x="398.0" y="491.0"/>
      <point x="405.0" y="485.0" type="curve"/>
      <point x="405.0" y="283.0" type="line"/>
      <point x="392.0" y="274.0"/>
      <point x="370.0" y="254.0"/>
    </contour>
    <contour>
      <point x="66.0" y="0.0" type="line"/>
      <point x="605.0" y="0.0" type="line"/>
      <point x="605.0" y="86.0" type="line"/>
      <point x="66.0" y="86.0" type="line"/>
    </contour>
  </outline>
</glyph>
<glyph name="euro" format="2">
  <advance width="734.0"/>
  <unicode hex="20AC"/>
  <outline>
    <contour>
      <point x="463.0" y="-14.0" type="curve" smooth="yes"/>
      <point x="602.0" y="-14.0"/>
      <point x="632.0" y="19.0"/>
      <point x="674.0" y="24.0" type="curve"/>
      <point x="645.0" y="139.0" type="line"/>
      <point x="612.0" y="116.0"/>
      <point x="550.0" y="98.0"/>
      <point x="486.0" y="98.0" type="curve" smooth="yes"/>
      <point x="334.0" y="98.0"/>
      <point x="299.0" y="217.0"/>
      <point x="299.0" y="385.0" type="curve" smooth="yes"/>
      <point x="299.0" y="560.0"/>
      <point x="377.0" y="636.0"/>
      <point x="487.0" y="636.0" type="curve" smooth="yes"/>
      <point x="568.0" y="635.0"/>
      <point x="600.0" y="623.0"/>
      <point x="635.0" y="603.0" type="curve"/>
      <point x="661.0" y="721.0" type="line"/>
      <point x="620.0" y="730.0"/>
      <point x="582.0" y="755.0"/>
      <point x="473.0" y="751.0" type="curve" smooth="yes"/>
      <point x="269.0" y="744.0"/>
      <point x="137.0" y="608.0"/>
      <point x="137.0" y="352.0" type="curve" smooth="yes"/>
      <point x="137.0" y="125.0"/>
      <point x="247.0" y="-14.0"/>
    </contour>
    <contour>
      <point x="63.0" y="418.0" type="line"/>
      <point x="560.0" y="418.0" type="line"/>
      <point x="560.0" y="512.0" type="line"/>
      <point x="63.0" y="512.0" type="line"/>
    </contour>
    <contour>
      <point x="45.0" y="230.0" type="line"/>
      <point x="536.0" y="230.0" type="line"/>
      <point x="536.0" y="324.0" type="line"/>
      <point x="45.0" y="324.0" type="line"/>
    </contour>
  </outline>
</glyph>
<glyph name="tugrik" format="2">
  <advance width="610.0"/>
  <unicode hex="20AE"/>
  <anchor x="305.0" y="0.0" name="bottom"/>
  <anchor x="303.0" y="-83.0" name="btm"/>
  <anchor x="305.0" y="372.0" name="center"/>
  <anchor x="303.0" y="830.0" name="top"/>
  <outline>
    <contour>
      <point x="92.0" y="294.0" type="line"/>
      <point x="523.0" y="434.0" type="line"/>
      <point x="525.0" y="543.0" type="line"/>
      <point x="94.0" y="402.0" type="line"/>
    </contour>
    <contour>
      <point x="88.0" y="73.0" type="line"/>
      <point x="519.0" y="213.0" type="line"/>
      <point x="521.0" y="320.0" type="line"/>
      <point x="90.0" y="180.0" type="line"/>
    </contour>
    <component base="T"/>
  </outline>
</glyph>
<glyph name="guarani" format="2">
  <advance width="745.0"/>
  <unicode hex="20B2"/>
  <outline>
    <contour>
      <point x="38.0" y="368.0" type="curve" smooth="yes"/>
      <point x="38.0" y="158.0"/>
      <point x="154.0" y="23.0"/>
      <point x="333.0" y="-3.0" type="curve"/>
      <point x="332.0" y="-126.0" type="line"/>
      <point x="433.0" y="-126.0" type="line"/>
      <point x="434.0" y="-7.0" type="line"/>
      <point x="575.0" y="-1.0"/>
      <point x="613.0" y="40.0"/>
      <point x="672.0" y="42.0" type="curve"/>
      <point x="672.0" y="411.0" type="line"/>
      <point x="399.0" y="411.0" type="line"/>
      <point x="399.0" y="288.0" type="line"/>
      <point x="512.0" y="279.0" type="line"/>
      <point x="512.0" y="141.0" type="line"/>
      <point x="490.0" y="128.0"/>
      <point x="449.0" y="123.0"/>
      <point x="401.0" y="123.0" type="curve" smooth="yes"/>
      <point x="285.0" y="123.0"/>
      <point x="218.0" y="230.0"/>
      <point x="218.0" y="381.0" type="curve" smooth="yes"/>
      <point x="218.0" y="526.0"/>
      <point x="295.0" y="613.0"/>
      <point x="424.0" y="613.0" type="curve" smooth="yes"/>
      <point x="521.0" y="613.0"/>
      <point x="590.0" y="593.0"/>
      <point x="626.0" y="573.0" type="curve"/>
      <point x="631.0" y="721.0" type="line"/>
      <point x="584.0" y="730.0"/>
      <point x="536.0" y="747.0"/>
      <point x="452.0" y="750.0" type="curve"/>
      <point x="452.0" y="860.0" type="line"/>
      <point x="351.0" y="860.0" type="line"/>
      <point x="351.0" y="747.0" type="line"/>
      <point x="172.0" y="725.0"/>
      <point x="38.0" y="611.0"/>
    </contour>
  </outline>
</glyph>
<glyph name="hryvnia" format="2">
  <advance width="589.0"/>
  <unicode hex="20B4"/>
  <anchor x="295.0" y="-83.0" name="btm"/>
  <anchor x="317.0" y="830.0" name="top"/>
  <outline>
    <contour>
      <point x="0.0" y="321.0" type="line"/>
      <point x="0.0" y="230.0" type="line"/>
      <point x="73.0" y="230.0" type="line"/>
      <point x="72.0" y="220.0"/>
      <point x="71.0" y="210.0"/>
      <point x="71.0" y="199.0" type="curve" smooth="yes"/>
      <point x="71.0" y="65.0"/>
      <point x="175.0" y="-8.0"/>
      <point x="327.0" y="-8.0" type="curve" smooth="yes"/>
      <point x="424.0" y="-8.0"/>
      <point x="508.0" y="19.0"/>
      <point x="536.0" y="36.0" type="curve"/>
      <point x="514.0" y="161.0" type="line"/>
      <point x="472.0" y="138.0"/>
      <point x="416.0" y="114.0"/>
      <point x="336.0" y="114.0" type="curve" smooth="yes"/>
      <point x="254.0" y="114.0"/>
      <point x="228.0" y="140.0"/>
      <point x="228.0" y="189.0" type="curve" smooth="yes"/>
      <point x="228.0" y="205.0"/>
      <point x="231.0" y="218.0"/>
      <point x="237.0" y="230.0" type="curve"/>
      <point x="590.0" y="230.0" type="line"/>
      <point x="590.0" y="321.0" type="line"/>
    </contour>
    <contour>
      <point x="590.0" y="422.0" type="line"/>
      <point x="590.0" y="512.0" type="line"/>
      <point x="518.0" y="512.0" type="line"/>
      <point x="521.0" y="524.0"/>
      <point x="522.0" y="537.0"/>
      <point x="522.0" y="551.0" type="curve" smooth="yes"/>
      <point x="522.0" y="697.0"/>
      <point x="402.0" y="751.0"/>
      <point x="263.0" y="751.0" type="curve" smooth="yes"/>
      <point x="169.0" y="751.0"/>
      <point x="97.0" y="725.0"/>
      <point x="71.0" y="708.0" type="curve"/>
      <point x="96.0" y="587.0" type="line"/>
      <point x="132.0" y="610.0"/>
      <point x="184.0" y="635.0"/>
      <point x="258.0" y="635.0" type="curve" smooth="yes"/>
      <point x="341.0" y="635.0"/>
      <point x="370.0" y="604.0"/>
      <point x="370.0" y="559.0" type="curve" smooth="yes"/>
      <point x="370.0" y="540.0"/>
      <point x="365.0" y="525.0"/>
      <point x="356.0" y="512.0" type="curve"/>
      <point x="1.0" y="512.0" type="line"/>
      <point x="1.0" y="422.0" type="line"/>
    </contour>
  </outline>
</glyph>
<glyph name="rupeeIndian" format="2">
  <advance width="720.0"/>
  <unicode hex="20B9"/>
  <outline>
    <contour>
      <point x="641.0" y="0.0" type="line"/>
      <point x="561.0" y="91.0"/>
      <point x="536.0" y="251.0"/>
      <point x="446.0" y="314.0" type="curve"/>
      <point x="502.0" y="347.0"/>
      <point x="542.0" y="403.0"/>
      <point x="559.0" y="475.0" type="curve"/>
      <point x="660.0" y="475.0" type="line"/>
      <point x="660.0" y="565.0" type="line"/>
      <point x="565.0" y="565.0" type="line"/>
      <point x="563.0" y="605.0"/>
      <point x="554.0" y="634.0"/>
      <point x="542.0" y="655.0" type="curve"/>
      <point x="676.0" y="655.0" type="line"/>
      <point x="676.0" y="743.0" type="line"/>
      <point x="89.0" y="743.0" type="line"/>
      <point x="89.0" y="655.0" type="line"/>
      <point x="269.0" y="655.0" type="line"/>
      <point x="369.0" y="655.0"/>
      <point x="386.0" y="620.0"/>
      <point x="389.0" y="565.0" type="curve"/>
      <point x="89.0" y="565.0" type="line"/>
      <point x="89.0" y="475.0" type="line"/>
      <point x="382.0" y="475.0" type="line"/>
      <point x="364.0" y="405.0"/>
      <point x="314.0" y="371.0"/>
      <point x="254.0" y="371.0" type="curve" smooth="yes"/>
      <point x="169.0" y="371.0"/>
      <point x="110.0" y="370.0"/>
      <point x="89.0" y="372.0" type="curve"/>
      <point x="89.0" y="275.0" type="line"/>
      <point x="147.0" y="270.0"/>
      <point x="212.0" y="271.0"/>
      <point x="293.0" y="277.0" type="curve"/>
      <point x="359.0" y="217.0"/>
      <point x="418.0" y="0.0"/>
      <point x="459.0" y="0.0" type="curve" smooth="yes"/>
    </contour>
  </outline>
</glyph>
<glyph name="liraTurkish" format="2">
  <advance width="722.0"/>
  <unicode hex="20BA"/>
  <outline>
    <contour>
      <point x="162.0" y="0.0" type="line"/>
      <point x="325.0" y="0.0" type="line" smooth="yes"/>
      <point x="540.0" y="0.0"/>
      <point x="679.0" y="125.0"/>
      <point x="679.0" y="324.0" type="curve" smooth="yes"/>
      <point x="679.0" y="351.0" type="line"/>
      <point x="532.0" y="351.0" type="line"/>
      <point x="529.0" y="199.0"/>
      <point x="464.0" y="125.0"/>
      <point x="325.0" y="125.0" type="curve"/>
      <point x="325.0" y="328.0" type="line"/>
      <point x="523.0" y="411.0" type="line"/>
      <point x="523.0" y="493.0" type="line"/>
      <point x="325.0" y="409.0" type="line"/>
      <point x="325.0" y="507.0" type="line"/>
      <point x="534.0" y="597.0" type="line"/>
      <point x="534.0" y="683.0" type="line"/>
      <point x="325.0" y="594.0" type="line"/>
      <point x="325.0" y="751.0" type="line"/>
      <point x="162.0" y="751.0" type="line"/>
      <point x="162.0" y="525.0" type="line"/>
      <point x="58.0" y="480.0" type="line"/>
      <point x="58.0" y="394.0" type="line"/>
      <point x="162.0" y="438.0" type="line"/>
      <point x="162.0" y="341.0" type="line"/>
      <point x="63.0" y="299.0" type="line"/>
      <point x="63.0" y="217.0" type="line"/>
      <point x="162.0" y="259.0" type="line"/>
    </contour>
  </outline>
</glyph>
<glyph name="manat" format="2">
  <advance width="815.0"/>
  <unicode hex="20BC"/>
  <outline>
    <contour>
      <point x="333.0" y="138.0" type="line"/>
      <point x="482.0" y="138.0" type="line"/>
      <point x="482.0" y="785.0" type="line"/>
      <point x="333.0" y="785.0" type="line"/>
    </contour>
    <contour>
      <point x="82.0" y="0.0" type="line"/>
      <point x="235.0" y="0.0" type="line"/>
      <point x="235.0" y="324.0" type="line" smooth="yes"/>
      <point x="235.0" y="449.0"/>
      <point x="306.0" y="495.0"/>
      <point x="408.0" y="495.0" type="curve" smooth="yes"/>
      <point x="513.0" y="495.0"/>
      <point x="580.0" y="449.0"/>
      <point x="580.0" y="324.0" type="curve" smooth="yes"/>
      <point x="580.0" y="2.0" type="line"/>
      <point x="733.0" y="0.0" type="line"/>
      <point x="733.0" y="328.0" type="line" smooth="yes"/>
      <point x="733.0" y="544.0"/>
      <point x="601.0" y="633.0"/>
      <point x="393.0" y="633.0" type="curve" smooth="yes"/>
      <point x="224.0" y="633.0"/>
      <point x="82.0" y="550.0"/>
      <point x="82.0" y="333.0" type="curve" smooth="yes"/>
    </contour>
  </outline>
</glyph>
<glyph name="literSign" format="2">
  <advance width="677.0"/>
  <unicode hex="2113"/>
  <anchor x="217.0" y="10.0" name="btm"/>
  <anchor x="218.0" y="923.0" name="top"/>
  <outline>
    <contour>
      <point x="115.0" y="25.0" type="line"/>
      <point x="382.0" y="181.0"/>
      <point x="593.0" y="388.0"/>
      <point x="593.0" y="627.0" type="curve" smooth="yes"/>
      <point x="593.0" y="728.0"/>
      <point x="544.0" y="797.0"/>
      <point x="450.0" y="797.0" type="curve" smooth="yes"/>
      <point x="224.0" y="797.0"/>
      <point x="128.0" y="482.0"/>
      <point x="128.0" y="294.0" type="curve" smooth="yes"/>
      <point x="128.0" y="58.0"/>
      <point x="259.0" y="-13.0"/>
      <point x="338.0" y="-13.0" type="curve" smooth="yes"/>
      <point x="522.0" y="-13.0"/>
      <point x="573.0" y="104.0"/>
      <point x="618.0" y="183.0" type="curve"/>
      <point x="501.0" y="228.0" type="line"/>
      <point x="472.0" y="162.0"/>
      <point x="422.0" y="102.0"/>
      <point x="358.0" y="102.0" type="curve" smooth="yes"/>
      <point x="270.0" y="102.0"/>
      <point x="264.0" y="219.0"/>
      <point x="264.0" y="270.0" type="curve" smooth="yes"/>
      <point x="264.0" y="458.0"/>
      <point x="346.0" y="683.0"/>
      <point x="422.0" y="683.0" type="curve" smooth="yes"/>
      <point x="450.0" y="683.0"/>
      <point x="455.0" y="650.0"/>
      <point x="455.0" y="623.0" type="curve" smooth="yes"/>
      <point x="460.0" y="405.0"/>
      <point x="165.0" y="179.0"/>
      <point x="-6.0" y="85.0" type="curve"/>
    </contour>
  </outline>
</glyph>
<glyph name="numero" format="2">
  <advance width="1328.0"/>
  <unicode hex="2116"/>
  <outline>
    <contour>
      <point x="92.0" y="0.0" type="line"/>
      <point x="227.0" y="0.0" type="line"/>
      <point x="227.0" y="385.0" type="line"/>
      <point x="222.0" y="660.0" type="line"/>
      <point x="169.0" y="654.0" type="line"/>
      <point x="282.0" y="399.0" type="line"/>
      <point x="519.0" y="0.0" type="line"/>
      <point x="663.0" y="0.0" type="line"/>
      <point x="663.0" y="743.0" type="line"/>
      <point x="529.0" y="743.0" type="line"/>
      <point x="529.0" y="321.0" type="line"/>
      <point x="533.0" y="62.0" type="line"/>
      <point x="591.0" y="62.0" type="line"/>
      <point x="482.0" y="316.0" type="line"/>
      <point x="236.0" y="743.0" type="line"/>
      <point x="92.0" y="743.0" type="line"/>
    </contour>
    <contour>
      <point x="1020.0" y="194.0" type="curve" smooth="yes"/>
      <point x="1174.0" y="194.0"/>
      <point x="1275.0" y="297.0"/>
      <point x="1277.0" y="469.0" type="curve" smooth="yes"/>
      <point x="1278.0" y="621.0"/>
      <point x="1206.0" y="747.0"/>
      <point x="1029.0" y="747.0" type="curve" smooth="yes"/>
      <point x="872.0" y="747.0"/>
      <point x="768.0" y="652.0"/>
      <point x="765.0" y="479.0" type="curve" smooth="yes"/>
      <point x="763.0" y="329.0"/>
      <point x="821.0" y="194.0"/>
    </contour>
    <contour>
      <point x="1022.0" y="297.0" type="curve" smooth="yes"/>
      <point x="950.0" y="298.0"/>
      <point x="914.0" y="366.0"/>
      <point x="914.0" y="478.0" type="curve" smooth="yes"/>
      <point x="914.0" y="590.0"/>
      <point x="952.0" y="644.0"/>
      <point x="1026.0" y="643.0" type="curve" smooth="yes"/>
      <point x="1096.0" y="643.0"/>
      <point x="1128.0" y="576.0"/>
      <point x="1128.0" y="469.0" type="curve" smooth="yes"/>
      <point x="1128.0" y="352.0"/>
      <point x="1095.0" y="296.0"/>
    </contour>
    <contour>
      <point x="804.0" y="0.0" type="line"/>
      <point x="1247.0" y="0.0" type="line"/>
      <point x="1247.0" y="106.0" type="line"/>
      <point x="804.0" y="106.0" type="line"/>
    </contour>
  </outline>
</glyph>
<glyph name="trademark" format="2">
  <advance width="1088.0"/>
  <unicode hex="2122"/>
  <outline>
    <contour>
      <point x="194.0" y="375.0" type="line"/>
      <point x="301.0" y="375.0" type="line"/>
      <point x="301.0" y="660.0" type="line"/>
      <point x="426.0" y="660.0" type="line"/>
      <point x="426.0" y="753.0" type="line"/>
      <point x="72.0" y="753.0" type="line"/>
      <point x="73.0" y="660.0" type="line"/>
      <point x="194.0" y="660.0" type="line"/>
    </contour>
    <contour>
      <point x="583.0" y="375.0" type="line"/>
      <point x="591.0" y="612.0" type="line"/>
      <point x="593.0" y="691.0" type="line"/>
      <point x="586.0" y="691.0" type="line"/>
      <point x="617.0" y="597.0" type="line"/>
      <point x="706.0" y="373.0" type="line"/>
      <point x="778.0" y="373.0" type="line"/>
      <point x="860.0" y="597.0" type="line"/>
      <point x="887.0" y="690.0" type="line"/>
      <point x="881.0" y="690.0" type="line"/>
      <point x="885.0" y="612.0" type="line"/>
      <point x="900.0" y="375.0" type="line"/>
      <point x="1005.0" y="375.0" type="line"/>
      <point x="972.0" y="753.0" type="line"/>
      <point x="808.0" y="753.0" type="line"/>
      <point x="755.0" y="587.0" type="line"/>
      <point x="729.0" y="448.0" type="line"/>
      <point x="760.0" y="448.0" type="line"/>
      <point x="727.0" y="587.0" type="line"/>
      <point x="671.0" y="753.0" type="line"/>
      <point x="498.0" y="753.0" type="line"/>
      <point x="477.0" y="375.0" type="line"/>
    </contour>
  </outline>
</glyph>
<glyph name="Ohm" format="2">
  <advance width="896.0"/>
  <unicode hex="2126"/>
  <outline>
    <contour>
      <point x="385.0" y="87.0" type="line"/>
      <point x="326.0" y="123.0"/>
      <point x="251.0" y="236.0"/>
      <point x="251.0" y="399.0" type="curve" smooth="yes"/>
      <point x="251.0" y="576.0"/>
      <point x="344.0" y="646.0"/>
      <point x="448.0" y="646.0" type="curve" smooth="yes"/>
      <point x="546.0" y="646.0"/>
      <point x="636.0" y="575.0"/>
      <point x="636.0" y="399.0" type="curve" smooth="yes"/>
      <point x="636.0" y="236.0"/>
      <point x="576.0" y="123.0"/>
      <point x="517.0" y="87.0" type="curve"/>
      <point x="517.0" y="0.0" type="line"/>
      <point x="523.0" y="3.0"/>
      <point x="590.0" y="65.0"/>
      <point x="598.0" y="68.0" type="curve"/>
      <point x="704.0" y="110.0"/>
      <point x="794.0" y="258.0"/>
      <point x="797.0" y="412.0" type="curve" smooth="yes"/>
      <point x="801.0" y="647.0"/>
      <point x="658.0" y="754.0"/>
      <point x="448.0" y="754.0" type="curve" smooth="yes"/>
      <point x="262.0" y="754.0"/>
      <point x="96.0" y="660.0"/>
      <point x="91.0" y="412.0" type="curve" smooth="yes"/>
      <point x="88.0" y="258.0"/>
      <point x="200.0" y="107.0"/>
      <point x="286.0" y="71.0" type="curve"/>
      <point x="385.0" y="0.0" type="line"/>
    </contour>
    <contour>
      <point x="83.0" y="0.0" type="line"/>
      <point x="385.0" y="0.0" type="line"/>
      <point x="289.0" y="106.0" type="line"/>
      <point x="83.0" y="106.0" type="line"/>
    </contour>
    <contour>
      <point x="813.0" y="0.0" type="line"/>
      <point x="813.0" y="106.0" type="line"/>
      <point x="575.0" y="106.0" type="line"/>
      <point x="517.0" y="0.0" type="line"/>
    </contour>
  </outline>
</glyph>
<glyph name="partialdiff" format="2">
  <advance width="691.0"/>
  <unicode hex="2202"/>
  <outline>
    <contour>
      <point x="327.0" y="-15.0" type="curve" smooth="yes"/>
      <point x="543.0" y="-15.0"/>
      <point x="636.0" y="143.0"/>
      <point x="636.0" y="400.0" type="curve" smooth="yes"/>
      <point x="636.0" y="624.0"/>
      <point x="531.0" y="843.0"/>
      <point x="267.0" y="843.0" type="curve" smooth="yes"/>
      <point x="199.0" y="843.0"/>
      <point x="122.0" y="822.0"/>
      <point x="68.0" y="781.0" type="curve"/>
      <point x="118.0" y="696.0" type="line"/>
      <point x="149.0" y="716.0"/>
      <point x="202.0" y="730.0"/>
      <point x="245.0" y="730.0" type="curve" smooth="yes"/>
      <point x="406.0" y="730.0"/>
      <point x="480.0" y="612.0"/>
      <point x="484.0" y="444.0" type="curve" smooth="yes"/>
      <point x="484.0" y="421.0"/>
      <point x="483.0" y="390.0"/>
      <point x="483.0" y="356.0" type="curve" smooth="yes"/>
      <point x="483.0" y="267.0"/>
      <point x="469.0" y="94.0"/>
      <point x="351.0" y="94.0" type="curve" smooth="yes"/>
      <point x="250.0" y="94.0"/>
      <point x="222.0" y="162.0"/>
      <point x="219.0" y="254.0" type="curve" smooth="yes"/>
      <point x="215.0" y="382.0"/>
      <point x="272.0" y="435.0"/>
      <point x="358.0" y="435.0" type="curve" smooth="yes"/>
      <point x="425.0" y="435.0"/>
      <point x="467.0" y="416.0"/>
      <point x="521.0" y="373.0" type="curve"/>
      <point x="521.0" y="409.0"/>
      <point x="521.0" y="446.0"/>
      <point x="521.0" y="482.0" type="curve"/>
      <point x="478.0" y="509.0"/>
      <point x="430.0" y="535.0"/>
      <point x="356.0" y="535.0" type="curve" smooth="yes"/>
      <point x="202.0" y="535.0"/>
      <point x="57.0" y="452.0"/>
      <point x="62.0" y="242.0" type="curve" smooth="yes"/>
      <point x="65.0" y="93.0"/>
      <point x="187.0" y="-15.0"/>
    </contour>
  </outline>
</glyph>
<glyph name="minus" format="2">
  <advance width="664.0"/>
  <unicode hex="2212"/>
  <outline>
    <contour>
      <point x="125.0" y="314.0" type="line"/>
      <point x="540.0" y="314.0" type="line"/>
      <point x="540.0" y="434.0" type="line"/>
      <point x="125.0" y="434.0" type="line"/>
    </contour>
  </outline>
</glyph>
<glyph name="infinity" format="2">
  <advance width="979.0"/>
  <unicode hex="221E"/>
  <outline>
    <contour>
      <point x="277.0" y="89.0" type="curve" smooth="yes"/>
      <point x="411.0" y="90.0"/>
      <point x="500.0" y="204.0"/>
      <point x="544.0" y="292.0" type="curve"/>
      <point x="471.0" y="354.0" type="line"/>
      <point x="413.0" y="251.0"/>
      <point x="356.0" y="193.0"/>
      <point x="293.0" y="193.0" type="curve" smooth="yes"/>
      <point x="209.0" y="193.0"/>
      <point x="173.0" y="244.0"/>
      <point x="173.0" y="302.0" type="curve" smooth="yes"/>
      <point x="173.0" y="367.0"/>
      <point x="213.0" y="408.0"/>
      <point x="267.0" y="408.0" type="curve" smooth="yes"/>
      <point x="340.0" y="408.0"/>
      <point x="402.0" y="320.0"/>
      <point x="438.0" y="254.0" type="curve"/>
      <point x="558.0" y="311.0" type="line"/>
      <point x="503.0" y="405.0"/>
      <point x="447.0" y="514.0"/>
      <point x="273.0" y="514.0" type="curve" smooth="yes"/>
      <point x="132.0" y="514.0"/>
      <point x="41.0" y="417.0"/>
      <point x="41.0" y="301.0" type="curve" smooth="yes"/>
      <point x="41.0" y="191.0"/>
      <point x="121.0" y="86.0"/>
    </contour>
    <contour>
      <point x="705.0" y="87.0" type="curve" smooth="yes"/>
      <point x="851.0" y="87.0"/>
      <point x="938.0" y="183.0"/>
      <point x="938.0" y="300.0" type="curve" smooth="yes"/>
      <point x="938.0" y="407.0"/>
      <point x="867.0" y="515.0"/>
      <point x="703.0" y="512.0" type="curve"/>
      <point x="572.0" y="511.0"/>
      <point x="483.0" y="395.0"/>
      <point x="438.0" y="310.0" type="curve"/>
      <point x="513.0" y="247.0" type="line"/>
      <point x="570.0" y="350.0"/>
      <point x="625.0" y="405.0"/>
      <point x="688.0" y="405.0" type="curve" smooth="yes"/>
      <point x="769.0" y="405.0"/>
      <point x="805.0" y="358.0"/>
      <point x="805.0" y="300.0" type="curve" smooth="yes"/>
      <point x="805.0" y="235.0"/>
      <point x="768.0" y="190.0"/>
      <point x="710.0" y="190.0" type="curve" smooth="yes"/>
      <point x="636.0" y="190.0"/>
      <point x="579.0" y="282.0"/>
      <point x="542.0" y="349.0" type="curve"/>
      <point x="422.0" y="292.0" type="line"/>
      <point x="478.0" y="198.0"/>
      <point x="530.0" y="87.0"/>
    </contour>
  </outline>
</glyph>
<glyph name="lessequal" format="2">
  <advance width="673.0"/>
  <unicode hex="2264"/>
  <outline>
    <contour>
      <point x="85.0" y="0.0" type="line"/>
      <point x="559.0" y="0.0" type="line"/>
      <point x="559.0" y="100.0" type="line"/>
      <point x="85.0" y="100.0" type="line"/>
    </contour>
    <contour>
      <point x="559.0" y="136.0" type="line"/>
      <point x="559.0" y="264.0" type="line"/>
      <point x="234.0" y="384.0" type="line"/>
      <point x="234.0" y="372.0" type="line"/>
      <point x="559.0" y="493.0" type="line"/>
      <point x="559.0" y="621.0" type="line"/>
      <point x="85.0" y="416.0" type="line"/>
      <point x="85.0" y="340.0" type="line"/>
    </contour>
  </outline>
</glyph>
<glyph name="rightBlackTriangle" format="2">
  <advance width="593.0"/>
  <unicode hex="25B6"/>
  <outline>
    <contour>
      <point x="90.0" y="517.0" type="line"/>
      <point x="90.0" y="-72.0" type="line"/>
      <point x="568.0" y="223.0" type="line"/>
    </contour>
  </outline>
</glyph>
<glyph name="acutecomb.case" format="2">
  <anchor x="0.0" y="830.0" name="_top"/>
  <anchor x="0.0" y="1043.0" name="top"/>
  <outline>
    <contour>
      <point x="-22.0" y="813.0" type="line"/>
      <point x="34.0" y="833.0"/>
      <point x="117.0" y="906.0"/>
      <point x="162.0" y="953.0" type="curve"/>
      <point x="64.0" y="1018.0" type="line"/>
      <point x="61.0" y="1011.0"/>
      <point x="-84.0" y="867.0"/>
      <point x="-88.0" y="864.0" type="curve"/>
    </contour>
  </outline>
</glyph>
<glyph name="ae.sc" format="2">
  <advance width="917.0"/>
  <anchor x="459.0" y="0.0" name="bottom"/>
  <anchor x="661.0" y="-72.0" name="btm"/>
  <anchor x="482.0" y="913.0" name="top"/>
  <outline>
    <contour>
      <point x="-51.0" y="0.0" type="line"/>
      <point x="118.0" y="0.0" type="line"/>
      <point x="423.0" y="595.0" type="line"/>
      <point x="302.0" y="646.0" type="line"/>
    </contour>
    <contour>
      <point x="406.0" y="646.0" type="line"/>
      <point x="302.0" y="646.0" type="line"/>
      <point x="319.0" y="585.0" type="line"/>
      <point x="432.0" y="585.0" type="line"/>
    </contour>
    <contour>
      <point x="125.0" y="139.0" type="line"/>
      <point x="474.0" y="139.0" type="line"/>
      <point x="471.0" y="247.0" type="line"/>
      <point x="148.0" y="247.0" type="line"/>
    </contour>
    <contour>
      <point x="406.0" y="0.0" type="line"/>
      <point x="874.0" y="0.0" type="line"/>
      <point x="874.0" y="121.0" type="line"/>
      <point x="562.0" y="121.0" type="line"/>
      <point x="562.0" y="274.0" type="line"/>
      <point x="779.0" y="274.0" type="line"/>
      <point x="779.0" y="390.0" type="line"/>
      <point x="562.0" y="390.0" type="line"/>
      <point x="562.0" y="528.0" type="line"/>
      <point x="844.0" y="528.0" type="line"/>
      <point x="844.0" y="646.0" type="line"/>
      <point x="406.0" y="646.0" type="line"/>
    </contour>
  </outline>
</glyph>
<glyph name="b.sc" format="2">
  <advance width="675.0"/>
  <anchor x="338.0" y="0.0" name="bottom"/>
  <anchor x="384.0" y="-72.0" name="btm"/>
  <anchor x="328.0" y="909.0" name="top"/>
  <outline>
    <contour>
      <point x="88.0" y="0.0" type="line"/>
      <point x="167.0" y="0.0" type="line"/>
      <point x="207.0" y="-2.0"/>
      <point x="284.0" y="-6.0"/>
      <point x="342.0" y="-6.0" type="curve" smooth="yes"/>
      <point x="567.0" y="-6.0"/>
      <point x="635.0" y="78.0"/>
      <point x="635.0" y="196.0" type="curve" smooth="yes"/>
      <point x="635.0" y="277.0"/>
      <point x="574.0" y="333.0"/>
      <point x="490.0" y="342.0" type="curve"/>
      <point x="559.0" y="360.0"/>
      <point x="597.0" y="419.0"/>
      <point x="597.0" y="487.0" type="curve" smooth="yes"/>
      <point x="597.0" y="588.0"/>
      <point x="518.0" y="653.0"/>
      <point x="333.0" y="653.0" type="curve" smooth="yes"/>
      <point x="260.0" y="653.0"/>
      <point x="212.0" y="646.0"/>
      <point x="164.0" y="646.0" type="curve"/>
      <point x="88.0" y="647.0" type="line"/>
    </contour>
    <contour>
      <point x="244.0" y="383.0" type="curve"/>
      <point x="244.0" y="540.0" type="line"/>
      <point x="254.0" y="544.0"/>
      <point x="299.0" y="545.0"/>
      <point x="316.0" y="545.0" type="curve" smooth="yes"/>
      <point x="400.0" y="545.0"/>
      <point x="448.0" y="526.0"/>
      <point x="448.0" y="472.0" type="curve" smooth="yes"/>
      <point x="448.0" y="404.0"/>
      <point x="411.0" y="380.0"/>
      <point x="328.0" y="380.0" type="curve" smooth="yes"/>
      <point x="309.0" y="380.0"/>
      <point x="262.0" y="380.0"/>
    </contour>
    <contour>
      <point x="244.0" y="108.0" type="curve"/>
      <point x="244.0" y="277.0" type="line"/>
      <point x="257.0" y="280.0"/>
      <point x="311.0" y="281.0"/>
      <point x="341.0" y="281.0" type="curve" smooth="yes"/>
      <point x="435.0" y="281.0"/>
      <point x="476.0" y="251.0"/>
      <point x="476.0" y="194.0" type="curve" smooth="yes"/>
      <point x="476.0" y="125.0"/>
      <point x="430.0" y="98.0"/>
      <point x="343.0" y="98.0" type="curve" smooth="yes"/>
      <point x="311.0" y="98.0"/>
      <point x="255.0" y="101.0"/>
    </contour>
  </outline>
</glyph>
<glyph name="breve.case" format="2">
  <advance width="398.0"/>
  <anchor x="200.0" y="831.0" name="_top"/>
  <outline>
    <contour>
      <point x="199.0" y="788.0" type="curve" smooth="yes"/>
      <point x="314.0" y="788.0"/>
      <point x="380.0" y="858.0"/>
      <point x="376.0" y="957.0" type="curve"/>
      <point x="285.0" y="957.0" type="line"/>
      <point x="283.0" y="934.0"/>
      <point x="274.0" y="887.0"/>
      <point x="199.0" y="887.0" type="curve" smooth="yes"/>
      <point x="123.0" y="887.0"/>
      <point x="117.0" y="934.0"/>
      <point x="115.0" y="957.0" type="curve"/>
      <point x="21.0" y="957.0" type="line"/>
      <point x="18.0" y="858.0"/>
      <point x="78.0" y="788.0"/>
    </contour>
  </outline>
</glyph>
<glyph name="brevecomb.case" format="2">
  <anchor x="0.0" y="830.0" name="_top"/>
  <anchor x="0.0" y="1013.0" name="top"/>
  <outline>
    <contour>
      <point x="0.0" y="796.0" type="curve" smooth="yes"/>
      <point x="110.0" y="796.0"/>
      <point x="182.0" y="882.0"/>
      <point x="178.0" y="980.0" type="curve"/>
      <point x="84.0" y="980.0" type="line"/>
      <point x="81.0" y="958.0"/>
      <point x="75.0" y="902.0"/>
      <point x="1.0" y="902.0" type="curve" smooth="yes"/>
      <point x="-76.0" y="902.0"/>
      <point x="-80.0" y="958.0"/>
      <point x="-82.0" y="980.0" type="curve"/>
      <point x="-178.0" y="980.0" type="line"/>
      <point x="-181.0" y="882.0"/>
      <point x="-115.0" y="796.0"/>
    </contour>
  </outline>
</glyph>
<glyph name="brevecomb_acutecomb" format="2">
  <anchor x="0.0" y="830.0" name="_top"/>
  <anchor x="10.0" y="1023.0" name="top"/>
  <outline>
    <contour>
      <point x="10.0" y="633.0" type="curve" smooth="yes"/>
      <point x="125.0" y="633.0"/>
      <point x="191.0" y="710.0"/>
      <point x="187.0" y="809.0" type="curve"/>
      <point x="96.0" y="809.0" type="line"/>
      <point x="94.0" y="786.0"/>
      <point x="85.0" y="732.0"/>
      <point x="10.0" y="732.0" type="curve" smooth="yes"/>
      <point x="-66.0" y="732.0"/>
      <point x="-72.0" y="786.0"/>
      <point x="-74.0" y="809.0" type="curve"/>
      <point x="-168.0" y="809.0" type="line"/>
      <point x="-171.0" y="710.0"/>
      <point x="-111.0" y="633.0"/>
    </contour>
    <contour>
      <point x="6.0" y="819.0" type="line"/>
      <point x="39.0" y="836.0"/>
      <point x="106.0" y="898.0"/>
      <point x="151.0" y="960.0" type="curve"/>
      <point x="68.0" y="1023.0" type="line"/>
      <point x="25.0" y="964.0"/>
      <point x="-18.0" y="910.0"/>
      <point x="-51.0" y="876.0" type="curve"/>
    </contour>
  </outline>
</glyph>
<glyph name="brevecomb_gravecomb" format="2">
  <anchor x="0.0" y="830.0" name="_top"/>
  <anchor x="0.0" y="983.0" name="top"/>
  <outline>
    <contour>
      <point x="10.0" y="633.0" type="curve" smooth="yes"/>
      <point x="125.0" y="633.0"/>
      <point x="191.0" y="710.0"/>
      <point x="187.0" y="809.0" type="curve"/>
      <point x="96.0" y="809.0" type="line"/>
      <point x="94.0" y="786.0"/>
      <point x="85.0" y="732.0"/>
      <point x="10.0" y="732.0" type="curve" smooth="yes"/>
      <point x="-66.0" y="732.0"/>
      <point x="-72.0" y="786.0"/>
      <point x="-74.0" y="809.0" type="curve"/>
      <point x="-168.0" y="809.0" type="line"/>
      <point x="-171.0" y="710.0"/>
      <point x="-111.0" y="633.0"/>
    </contour>
    <contour>
      <point x="13.0" y="819.0" type="curve"/>
      <point x="70.0" y="876.0" type="line"/>
      <point x="37.0" y="910.0"/>
      <point x="-6.0" y="964.0"/>
      <point x="-49.0" y="1023.0" type="curve"/>
      <point x="-132.0" y="960.0" type="line"/>
      <point x="-87.0" y="898.0"/>
      <point x="-20.0" y="836.0"/>
    </contour>
  </outline>
</glyph>
<glyph name="brevecomb_hookabovecomb.case" format="2">
  <anchor x="0.0" y="830.0" name="_top"/>
  <anchor x="14.0" y="1191.0" name="top"/>
  <outline>
    <contour>
      <point x="10.0" y="788.0" type="curve" smooth="yes"/>
      <point x="125.0" y="788.0"/>
      <point x="191.0" y="858.0"/>
      <point x="187.0" y="957.0" type="curve"/>
      <point x="96.0" y="957.0" type="line"/>
      <point x="94.0" y="934.0"/>
      <point x="85.0" y="887.0"/>
      <point x="10.0" y="887.0" type="curve" smooth="yes"/>
      <point x="-66.0" y="887.0"/>
      <point x="-72.0" y="934.0"/>
      <point x="-74.0" y="957.0" type="curve"/>
      <point x="-168.0" y="957.0" type="line"/>
      <point x="-171.0" y="858.0"/>
      <point x="-111.0" y="788.0"/>
    </contour>
    <contour>
      <point x="-19.0" y="976.0" type="curve"/>
      <point x="48.0" y="976.0" type="line"/>
      <point x="40.0" y="1005.0"/>
      <point x="48.0" y="1031.0"/>
      <point x="67.0" y="1046.0" type="curve" smooth="yes"/>
      <point x="90.0" y="1064.0"/>
      <point x="121.0" y="1096.0"/>
      <point x="121.0" y="1139.0" type="curve" smooth="yes"/>
      <point x="121.0" y="1192.0"/>
      <point x="72.0" y="1232.0"/>
      <point x="-21.0" y="1232.0" type="curve" smooth="yes"/>
      <point x="-54.0" y="1232.0"/>
      <point x="-88.0" y="1223.0"/>
      <point x="-109.0" y="1214.0" type="curve"/>
      <point x="-107.0" y="1139.0" type="line"/>
      <point x="-96.0" y="1147.0"/>
      <point x="-66.0" y="1155.0"/>
      <point x="-47.0" y="1155.0" type="curve" smooth="yes"/>
      <point x="-6.0" y="1155.0"/>
      <point x="16.0" y="1139.0"/>
      <point x="16.0" y="1112.0" type="curve"/>
      <point x="16.0" y="1074.0"/>
      <point x="-32.0" y="1078.0"/>
      <point x="-32.0" y="1020.0" type="curve"/>
      <point x="-32.0" y="1000.0"/>
      <point x="-27.0" y="990.0"/>
    </contour>
  </outline>
</glyph>
<glyph name="brevecomb_hookabovecomb" format="2">
  <anchor x="0.0" y="830.0" name="_top"/>
  <anchor x="10.0" y="1035.0" name="top"/>
  <outline>
    <contour>
      <point x="10.0" y="633.0" type="curve" smooth="yes"/>
      <point x="125.0" y="633.0"/>
      <point x="191.0" y="710.0"/>
      <point x="187.0" y="809.0" type="curve"/>
      <point x="96.0" y="809.0" type="line"/>
      <point x="94.0" y="786.0"/>
      <point x="85.0" y="732.0"/>
      <point x="10.0" y="732.0" type="curve" smooth="yes"/>
      <point x="-66.0" y="732.0"/>
      <point x="-72.0" y="786.0"/>
      <point x="-74.0" y="809.0" type="curve"/>
      <point x="-168.0" y="809.0" type="line"/>
      <point x="-171.0" y="710.0"/>
      <point x="-111.0" y="633.0"/>
    </contour>
    <contour>
      <point x="-14.0" y="809.0" type="curve"/>
      <point x="60.0" y="809.0" type="line"/>
      <point x="52.0" y="834.0"/>
      <point x="51.0" y="857.0"/>
      <point x="68.0" y="871.0" type="curve" smooth="yes"/>
      <point x="89.0" y="888.0"/>
      <point x="118.0" y="915.0"/>
      <point x="118.0" y="953.0" type="curve" smooth="yes"/>
      <point x="118.0" y="1000.0"/>
      <point x="72.0" y="1035.0"/>
      <point x="-15.0" y="1035.0" type="curve" smooth="yes"/>
      <point x="-46.0" y="1035.0"/>
      <point x="-78.0" y="1027.0"/>
      <point x="-98.0" y="1019.0" type="curve"/>
      <point x="-96.0" y="953.0" type="line"/>
      <point x="-86.0" y="960.0"/>
      <point x="-58.0" y="967.0"/>
      <point x="-40.0" y="967.0" type="curve" smooth="yes"/>
      <point x="-10.0" y="967.0"/>
      <point x="10.0" y="953.0"/>
      <point x="10.0" y="929.0" type="curve" smooth="yes"/>
      <point x="10.0" y="895.0"/>
      <point x="-26.0" y="899.0"/>
      <point x="-26.0" y="848.0" type="curve" smooth="yes"/>
      <point x="-26.0" y="830.0"/>
      <point x="-21.0" y="821.0"/>
    </contour>
  </outline>
</glyph>
<glyph name="brevecomb_tildecomb.case" format="2">
  <anchor x="0.0" y="830.0" name="_top"/>
  <anchor x="12.0" y="1248.0" name="top"/>
  <outline>
    <contour>
      <point x="10.0" y="808.0" type="curve" smooth="yes"/>
      <point x="118.0" y="808.0"/>
      <point x="180.0" y="870.0"/>
      <point x="177.0" y="966.0" type="curve"/>
      <point x="91.0" y="966.0" type="line"/>
      <point x="89.0" y="944.0"/>
      <point x="81.0" y="898.0"/>
      <point x="10.0" y="898.0" type="curve" smooth="yes"/>
      <point x="-62.0" y="898.0"/>
      <point x="-67.0" y="944.0"/>
      <point x="-69.0" y="966.0" type="curve"/>
      <point x="-158.0" y="966.0" type="line"/>
      <point x="-160.0" y="870.0"/>
      <point x="-104.0" y="808.0"/>
    </contour>
    <contour>
      <point x="69.0" y="1016.0" type="curve" smooth="yes"/>
      <point x="132.0" y="1016.0"/>
      <point x="169.0" y="1064.0"/>
      <point x="188.0" y="1125.0" type="curve"/>
      <point x="129.0" y="1147.0" type="line"/>
      <point x="123.0" y="1119.0"/>
      <point x="103.0" y="1100.0"/>
      <point x="75.0" y="1100.0" type="curve" smooth="yes"/>
      <point x="34.0" y="1100.0"/>
      <point x="19.0" y="1165.0"/>
      <point x="-51.0" y="1165.0" type="curve" smooth="yes"/>
      <point x="-113.0" y="1165.0"/>
      <point x="-153.0" y="1110.0"/>
      <point x="-170.0" y="1058.0" type="curve"/>
      <point x="-111.0" y="1032.0" type="line"/>
      <point x="-105.0" y="1059.0"/>
      <point x="-84.0" y="1082.0"/>
      <point x="-56.0" y="1082.0" type="curve" smooth="yes"/>
      <point x="-14.0" y="1082.0"/>
      <point x="3.0" y="1016.0"/>
    </contour>
  </outline>
</glyph>
<glyph name="breveinvertedcomb.case" format="2">
  <anchor x="0.0" y="830.0" name="_top"/>
  <anchor x="0.0" y="1043.0" name="top"/>
  <outline>
    <contour>
      <point x="0.0" y="1000.0" type="curve" smooth="yes"/>
      <point x="-115.0" y="1000.0"/>
      <point x="-181.0" y="914.0"/>
      <point x="-178.0" y="816.0" type="curve"/>
      <point x="-82.0" y="816.0" type="line"/>
      <point x="-80.0" y="838.0"/>
      <point x="-76.0" y="894.0"/>
      <point x="1.0" y="894.0" type="curve" smooth="yes"/>
      <point x="75.0" y="894.0"/>
      <point x="81.0" y="838.0"/>
      <point x="84.0" y="816.0" type="curve"/>
      <point x="178.0" y="816.0" type="line"/>
      <point x="182.0" y="914.0"/>
      <point x="110.0" y="1000.0"/>
    </contour>
  </outline>
</glyph>
<glyph name="bullet.case" format="2">
  <advance width="442.0"/>
  <outline>
    <contour>
      <point x="216.0" y="251.0" type="curve" smooth="yes"/>
      <point x="289.0" y="251.0"/>
      <point x="349.0" y="313.0"/>
      <point x="351.0" y="383.0" type="curve" smooth="yes"/>
      <point x="353.0" y="456.0"/>
      <point x="299.0" y="509.0"/>
      <point x="227.0" y="509.0" type="curve" smooth="yes"/>
      <point x="155.0" y="509.0"/>
      <point x="93.0" y="448.0"/>
      <point x="91.0" y="377.0" type="curve" smooth="yes"/>
      <point x="89.0" y="306.0"/>
      <point x="144.0" y="251.0"/>
    </contour>
  </outline>
</glyph>
<glyph name="c.sc" format="2">
  <advance width="613.0"/>
  <anchor x="307.0" y="0.0" name="bottom"/>
  <anchor x="383.0" y="-72.0" name="btm"/>
  <anchor x="385.0" y="896.0" name="top"/>
  <outline>
    <contour>
      <point x="47.0" y="322.0" type="curve" smooth="yes"/>
      <point x="47.0" y="123.0"/>
      <point x="182.0" y="-7.0"/>
      <point x="406.0" y="-7.0" type="curve" smooth="yes"/>
      <point x="492.0" y="-7.0"/>
      <point x="544.0" y="13.0"/>
      <point x="584.0" y="27.0" type="curve"/>
      <point x="584.0" y="157.0" type="line"/>
      <point x="560.0" y="139.0"/>
      <point x="485.0" y="115.0"/>
      <point x="422.0" y="115.0" type="curve" smooth="yes"/>
      <point x="286.0" y="115.0"/>
      <point x="209.0" y="203.0"/>
      <point x="209.0" y="331.0" type="curve" smooth="yes"/>
      <point x="209.0" y="458.0"/>
      <point x="297.0" y="529.0"/>
      <point x="411.0" y="529.0" type="curve" smooth="yes"/>
      <point x="503.0" y="529.0"/>
      <point x="546.0" y="504.0"/>
      <point x="571.0" y="491.0" type="curve"/>
      <point x="592.0" y="627.0" type="line"/>
      <point x="548.0" y="635.0"/>
      <point x="504.0" y="653.0"/>
      <point x="400.0" y="653.0" type="curve" smooth="yes"/>
      <point x="203.0" y="653.0"/>
      <point x="47.0" y="540.0"/>
    </contour>
  </outline>
</glyph>
<glyph name="circumflexcomb_acutecomb" format="2">
  <anchor x="0.0" y="830.0" name="_top"/>
  <anchor x="0.0" y="1057.0" name="top"/>
  <outline>
    <contour>
      <point x="-118.0" y="617.0" type="line"/>
      <point x="0.0" y="712.0" type="line"/>
      <point x="114.0" y="617.0" type="line"/>
      <point x="191.0" y="658.0" type="line"/>
      <point x="50.0" y="823.0" type="line"/>
      <point x="-49.0" y="823.0" type="line"/>
      <point x="-192.0" y="657.0" type="line"/>
    </contour>
    <contour>
      <point x="191.0" y="789.0" type="line"/>
      <point x="224.0" y="806.0"/>
      <point x="297.0" y="858.0"/>
      <point x="342.0" y="920.0" type="curve"/>
      <point x="255.0" y="993.0" type="line"/>
      <point x="212.0" y="934.0"/>
      <point x="167.0" y="880.0"/>
      <point x="134.0" y="846.0" type="curve"/>
    </contour>
  </outline>
</glyph>
<glyph name="circumflexcomb_gravecomb" format="2">
  <anchor x="0.0" y="830.0" name="_top"/>
  <anchor x="55.0" y="953.0" name="top"/>
  <outline>
    <contour>
      <point x="-118.0" y="617.0" type="line"/>
      <point x="0.0" y="712.0" type="line"/>
      <point x="114.0" y="617.0" type="line"/>
      <point x="191.0" y="658.0" type="line"/>
      <point x="50.0" y="823.0" type="line"/>
      <point x="-49.0" y="823.0" type="line"/>
      <point x="-192.0" y="657.0" type="line"/>
    </contour>
    <contour>
      <point x="245.0" y="749.0" type="curve"/>
      <point x="302.0" y="806.0" type="line"/>
      <point x="269.0" y="840.0"/>
      <point x="226.0" y="894.0"/>
      <point x="183.0" y="953.0" type="curve"/>
      <point x="100.0" y="890.0" type="line"/>
      <point x="145.0" y="828.0"/>
      <point x="212.0" y="766.0"/>
    </contour>
  </outline>
</glyph>
<glyph name="circumflexcomb_hookabovecomb" format="2">
  <anchor x="0.0" y="830.0" name="_top"/>
  <anchor x="49.0" y="1000.0" name="top"/>
  <outline>
    <contour>
      <point x="-118.0" y="617.0" type="line"/>
      <point x="0.0" y="712.0" type="line"/>
      <point x="114.0" y="617.0" type="line"/>
      <point x="191.0" y="658.0" type="line"/>
      <point x="50.0" y="823.0" type="line"/>
      <point x="-49.0" y="823.0" type="line"/>
      <point x="-192.0" y="657.0" type="line"/>
    </contour>
    <contour>
      <point x="157.0" y="774.0" type="curve"/>
      <point x="231.0" y="774.0" type="line"/>
      <point x="223.0" y="799.0"/>
      <point x="222.0" y="822.0"/>
      <point x="239.0" y="836.0" type="curve" smooth="yes"/>
      <point x="260.0" y="853.0"/>
      <point x="289.0" y="880.0"/>
      <point x="289.0" y="918.0" type="curve" smooth="yes"/>
      <point x="289.0" y="965.0"/>
      <point x="243.0" y="1000.0"/>
      <point x="156.0" y="1000.0" type="curve" smooth="yes"/>
      <point x="125.0" y="1000.0"/>
      <point x="93.0" y="992.0"/>
      <point x="73.0" y="984.0" type="curve"/>
      <point x="75.0" y="918.0" type="line"/>
      <point x="85.0" y="925.0"/>
      <point x="113.0" y="932.0"/>
      <point x="131.0" y="932.0" type="curve" smooth="yes"/>
      <point x="161.0" y="932.0"/>
      <point x="181.0" y="918.0"/>
      <point x="181.0" y="894.0" type="curve" smooth="yes"/>
      <point x="181.0" y="860.0"/>
      <point x="145.0" y="864.0"/>
      <point x="145.0" y="813.0" type="curve" smooth="yes"/>
      <point x="145.0" y="795.0"/>
      <point x="150.0" y="786.0"/>
    </contour>
  </outline>
</glyph>
<glyph name="circumflexcomb_tildecomb.case" format="2">
  <anchor x="0.0" y="831.0" name="_top"/>
  <anchor x="12.0" y="1248.0" name="top"/>
  <outline>
    <contour>
      <point x="-108.0" y="762.0" type="line"/>
      <point x="0.0" y="859.0" type="line"/>
      <point x="108.0" y="762.0" type="line"/>
      <point x="189.0" y="807.0" type="line"/>
      <point x="54.0" y="957.0" type="line"/>
      <point x="-53.0" y="957.0" type="line"/>
      <point x="-187.0" y="806.0" type="line"/>
    </contour>
    <contour>
      <point x="69.0" y="1016.0" type="curve" smooth="yes"/>
      <point x="132.0" y="1016.0"/>
      <point x="169.0" y="1064.0"/>
      <point x="188.0" y="1125.0" type="curve"/>
      <point x="129.0" y="1147.0" type="line"/>
      <point x="123.0" y="1119.0"/>
      <point x="103.0" y="1100.0"/>
      <point x="75.0" y="1100.0" type="curve" smooth="yes"/>
      <point x="34.0" y="1100.0"/>
      <point x="19.0" y="1165.0"/>
      <point x="-51.0" y="1165.0" type="curve" smooth="yes"/>
      <point x="-113.0" y="1165.0"/>
      <point x="-153.0" y="1110.0"/>
      <point x="-170.0" y="1058.0" type="curve"/>
      <point x="-111.0" y="1032.0" type="line"/>
      <point x="-105.0" y="1059.0"/>
      <point x="-84.0" y="1082.0"/>
      <point x="-56.0" y="1082.0" type="curve" smooth="yes"/>
      <point x="-14.0" y="1082.0"/>
      <point x="3.0" y="1016.0"/>
    </contour>
  </outline>
</glyph>
<glyph name="dblgravecomb.case" format="2">
  <anchor x="0.0" y="830.0" name="_top"/>
  <anchor x="-50.0" y="1017.0" name="top"/>
  <outline>
    <contour>
      <point x="-48.0" y="864.0" type="line"/>
      <point x="-61.0" y="877.0"/>
      <point x="-183.0" y="992.0"/>
      <point x="-192.0" y="1017.0" type="curve"/>
      <point x="-298.0" y="953.0" type="line"/>
      <point x="-260.0" y="900.0"/>
      <point x="-163.0" y="818.0"/>
      <point x="-119.0" y="803.0" type="curve"/>
    </contour>
    <contour>
      <point x="198.0" y="864.0" type="line"/>
      <point x="185.0" y="878.0"/>
      <point x="63.0" y="993.0"/>
      <point x="54.0" y="1017.0" type="curve"/>
      <point x="-52.0" y="953.0" type="line"/>
      <point x="-14.0" y="900.0"/>
      <point x="83.0" y="818.0"/>
      <point x="127.0" y="803.0" type="curve"/>
    </contour>
  </outline>
</glyph>
<glyph name="dotbelowcomb.case" format="2">
  <anchor x="-3.0" y="0.0" name="_bottom"/>
  <anchor x="0.0" y="-83.0" name="_btm"/>
  <anchor x="-3.0" y="-234.0" name="bottom"/>
  <outline>
    <contour>
      <point x="-7.0" y="-234.0" type="curve" smooth="yes"/>
      <point x="45.0" y="-234.0"/>
      <point x="90.0" y="-192.0"/>
      <point x="90.0" y="-142.0" type="curve" smooth="yes"/>
      <point x="90.0" y="-94.0"/>
      <point x="56.0" y="-59.0"/>
      <point x="2.0" y="-59.0" type="curve" smooth="yes"/>
      <point x="-49.0" y="-59.0"/>
      <point x="-95.0" y="-101.0"/>
      <point x="-95.0" y="-150.0" type="curve" smooth="yes"/>
      <point x="-95.0" y="-199.0"/>
      <point x="-57.0" y="-234.0"/>
    </contour>
  </outline>
</glyph>
<glyph name="eight.dnom" format="2">
  <advance width="535.0"/>
  <outline>
    <contour>
      <point x="274.0" y="-6.0" type="curve" smooth="yes"/>
      <point x="398.0" y="-6.0"/>
      <point x="492.0" y="53.0"/>
      <point x="491.0" y="154.0" type="curve" smooth="yes"/>
      <point x="490.0" y="318.0"/>
      <point x="192.0" y="317.0"/>
      <point x="192.0" y="426.0" type="curve" smooth="yes"/>
      <point x="192.0" y="455.0"/>
      <point x="222.0" y="484.0"/>
      <point x="271.0" y="484.0" type="curve" smooth="yes"/>
      <point x="322.0" y="484.0"/>
      <point x="348.0" y="455.0"/>
      <point x="347.0" y="423.0" type="curve" smooth="yes"/>
      <point x="346.0" y="380.0"/>
      <point x="325.0" y="344.0"/>
      <point x="268.0" y="328.0" type="curve"/>
      <point x="315.0" y="277.0" type="line"/>
      <point x="425.0" y="302.0"/>
      <point x="465.0" y="362.0"/>
      <point x="465.0" y="427.0" type="curve" smooth="yes"/>
      <point x="465.0" y="503.0"/>
      <point x="396.0" y="559.0"/>
      <point x="268.0" y="559.0" type="curve" smooth="yes"/>
      <point x="142.0" y="559.0"/>
      <point x="68.0" y="494.0"/>
      <point x="68.0" y="415.0" type="curve" smooth="yes"/>
      <point x="68.0" y="228.0"/>
      <point x="356.0" y="239.0"/>
      <point x="356.0" y="140.0" type="curve" smooth="yes"/>
      <point x="356.0" y="106.0"/>
      <point x="318.0" y="69.0"/>
      <point x="273.0" y="69.0" type="curve" smooth="yes"/>
      <point x="204.0" y="69.0"/>
      <point x="175.0" y="111.0"/>
      <point x="175.0" y="150.0" type="curve" smooth="yes"/>
      <point x="175.0" y="195.0"/>
      <point x="210.0" y="222.0"/>
      <point x="259.0" y="243.0" type="curve"/>
      <point x="212.0" y="297.0" type="line"/>
      <point x="93.0" y="266.0"/>
      <point x="49.0" y="206.0"/>
      <point x="49.0" y="144.0" type="curve" smooth="yes"/>
      <point x="49.0" y="54.0"/>
      <point x="136.0" y="-6.0"/>
    </contour>
  </outline>
</glyph>
<glyph name="eight.osf" format="2">
  <advance width="662.0"/>
  <outline>
    <contour>
      <point x="338.0" y="-8.0" type="curve" smooth="yes"/>
      <point x="487.0" y="-8.0"/>
      <point x="604.0" y="64.0"/>
      <point x="603.0" y="200.0" type="curve" smooth="yes"/>
      <point x="601.0" y="408.0"/>
      <point x="229.0" y="433.0"/>
      <point x="229.0" y="583.0" type="curve" smooth="yes"/>
      <point x="229.0" y="630.0"/>
      <point x="274.0" y="662.0"/>
      <point x="331.0" y="662.0" type="curve" smooth="yes"/>
      <point x="398.0" y="662.0"/>
      <point x="437.0" y="626.0"/>
      <point x="437.0" y="580.0" type="curve" smooth="yes"/>
      <point x="439.0" y="522.0"/>
      <point x="406.0" y="465.0"/>
      <point x="332.0" y="443.0" type="curve"/>
      <point x="393.0" y="380.0" type="line"/>
      <point x="517.0" y="414.0"/>
      <point x="572.0" y="513.0"/>
      <point x="572.0" y="592.0" type="curve" smooth="yes"/>
      <point x="572.0" y="694.0"/>
      <point x="483.0" y="764.0"/>
      <point x="333.0" y="764.0" type="curve" smooth="yes"/>
      <point x="182.0" y="764.0"/>
      <point x="88.0" y="687.0"/>
      <point x="88.0" y="573.0" type="curve" smooth="yes"/>
      <point x="88.0" y="328.0"/>
      <point x="451.0" y="329.0"/>
      <point x="451.0" y="185.0" type="curve" smooth="yes"/>
      <point x="451.0" y="130.0"/>
      <point x="398.0" y="100.0"/>
      <point x="338.0" y="100.0" type="curve" smooth="yes"/>
      <point x="245.0" y="100.0"/>
      <point x="207.0" y="143.0"/>
      <point x="207.0" y="197.0" type="curve" smooth="yes"/>
      <point x="207.0" y="270.0"/>
      <point x="257.0" y="315.0"/>
      <point x="324.0" y="341.0" type="curve"/>
      <point x="258.0" y="405.0" type="line"/>
      <point x="114.0" y="351.0"/>
      <point x="63.0" y="267.0"/>
      <point x="63.0" y="188.0" type="curve" smooth="yes"/>
      <point x="63.0" y="57.0"/>
      <point x="180.0" y="-8.0"/>
    </contour>
  </outline>
</glyph>
<glyph name="eight.tosf" format="2">
  <advance width="677.0"/>
  <outline>
    <contour>
      <point x="346.0" y="-8.0" type="curve" smooth="yes"/>
      <point x="496.0" y="-8.0"/>
      <point x="616.0" y="64.0"/>
      <point x="615.0" y="200.0" type="curve" smooth="yes"/>
      <point x="613.0" y="414.0"/>
      <point x="233.0" y="434.0"/>
      <point x="233.0" y="584.0" type="curve" smooth="yes"/>
      <point x="233.0" y="631.0"/>
      <point x="280.0" y="663.0"/>
      <point x="339.0" y="663.0" type="curve" smooth="yes"/>
      <point x="407.0" y="663.0"/>
      <point x="447.0" y="629.0"/>
      <point x="448.0" y="581.0" type="curve" smooth="yes"/>
      <point x="449.0" y="520.0"/>
      <point x="416.0" y="466.0"/>
      <point x="340.0" y="444.0" type="curve"/>
      <point x="402.0" y="381.0" type="line"/>
      <point x="528.0" y="415.0"/>
      <point x="583.0" y="514.0"/>
      <point x="583.0" y="593.0" type="curve" smooth="yes"/>
      <point x="583.0" y="695.0"/>
      <point x="492.0" y="765.0"/>
      <point x="341.0" y="765.0" type="curve" smooth="yes"/>
      <point x="189.0" y="765.0"/>
      <point x="92.0" y="688.0"/>
      <point x="92.0" y="574.0" type="curve" smooth="yes"/>
      <point x="92.0" y="329.0"/>
      <point x="463.0" y="330.0"/>
      <point x="463.0" y="185.0" type="curve" smooth="yes"/>
      <point x="463.0" y="130.0"/>
      <point x="407.0" y="100.0"/>
      <point x="346.0" y="100.0" type="curve" smooth="yes"/>
      <point x="250.0" y="100.0"/>
      <point x="210.0" y="143.0"/>
      <point x="210.0" y="197.0" type="curve" smooth="yes"/>
      <point x="210.0" y="270.0"/>
      <point x="261.0" y="315.0"/>
      <point x="331.0" y="342.0" type="curve"/>
      <point x="264.0" y="406.0" type="line"/>
      <point x="114.0" y="350.0"/>
      <point x="66.0" y="264.0"/>
      <point x="66.0" y="188.0" type="curve" smooth="yes"/>
      <point x="66.0" y="57.0"/>
      <point x="187.0" y="-8.0"/>
    </contour>
  </outline>
</glyph>
<glyph name="exclamdown.case" format="2">
  <advance width="303.0"/>
  <outline>
    <contour>
      <point x="212.0" y="598.0" type="line"/>
      <point x="81.0" y="598.0" type="line"/>
      <point x="65.0" y="0.0" type="line"/>
      <point x="234.0" y="0.0" type="line"/>
    </contour>
    <contour>
      <point x="156.0" y="880.0" type="curve" smooth="yes"/>
      <point x="100.0" y="880.0"/>
      <point x="56.0" y="832.0"/>
      <point x="57.0" y="776.0" type="curve" smooth="yes"/>
      <point x="57.0" y="723.0"/>
      <point x="90.0" y="682.0"/>
      <point x="147.0" y="682.0" type="curve" smooth="yes"/>
      <point x="202.0" y="682.0"/>
      <point x="247.0" y="730.0"/>
      <point x="246.0" y="786.0" type="curve" smooth="yes"/>
      <point x="246.0" y="839.0"/>
      <point x="208.0" y="880.0"/>
    </contour>
  </outline>
</glyph>
<glyph name="f.sc" format="2">
  <advance width="543.0"/>
  <anchor x="272.0" y="0.0" name="bottom"/>
  <anchor x="318.0" y="-72.0" name="btm"/>
  <anchor x="297.0" y="896.0" name="top"/>
  <outline>
    <contour>
      <point x="88.0" y="0.0" type="line"/>
      <point x="246.0" y="0.0" type="line"/>
      <point x="246.0" y="254.0" type="line"/>
      <point x="452.0" y="254.0" type="line"/>
      <point x="452.0" y="372.0" type="line"/>
      <point x="246.0" y="372.0" type="line"/>
      <point x="246.0" y="528.0" type="line"/>
      <point x="524.0" y="528.0" type="line"/>
      <point x="524.0" y="646.0" type="line"/>
      <point x="88.0" y="646.0" type="line"/>
    </contour>
  </outline>
</glyph>
<glyph name="five.osf" format="2">
  <advance width="631.0"/>
  <outline>
    <contour>
      <point x="160.0" y="-173.0" type="curve" smooth="yes"/>
      <point x="406.0" y="-171.0"/>
      <point x="562.0" y="-43.0"/>
      <point x="562.0" y="120.0" type="curve" smooth="yes"/>
      <point x="562.0" y="250.0"/>
      <point x="483.0" y="334.0"/>
      <point x="347.0" y="334.0" type="curve" smooth="yes"/>
      <point x="309.0" y="334.0"/>
      <point x="271.0" y="328.0"/>
      <point x="224.0" y="317.0" type="curve"/>
      <point x="240.0" y="481.0" type="line"/>
      <point x="529.0" y="481.0" type="line"/>
      <point x="543.0" y="611.0" type="line"/>
      <point x="129.0" y="611.0" type="line"/>
      <point x="97.0" y="203.0" type="line"/>
      <point x="122.0" y="188.0" type="line"/>
      <point x="174.0" y="205.0"/>
      <point x="225.0" y="220.0"/>
      <point x="267.0" y="220.0" type="curve" smooth="yes"/>
      <point x="369.0" y="220.0"/>
      <point x="406.0" y="185.0"/>
      <point x="406.0" y="114.0" type="curve" smooth="yes"/>
      <point x="406.0" y="10.0"/>
      <point x="294.0" y="-61.0"/>
      <point x="133.0" y="-61.0" type="curve" smooth="yes"/>
      <point x="120.0" y="-61.0"/>
      <point x="107.0" y="-61.0"/>
      <point x="94.0" y="-60.0" type="curve"/>
      <point x="94.0" y="-167.0" type="line"/>
      <point x="112.0" y="-172.0"/>
      <point x="142.0" y="-173.0"/>
    </contour>
  </outline>
</glyph>
<glyph name="five.tf" format="2">
  <advance width="658.0"/>
  <outline>
    <contour>
      <point x="168.0" y="-10.0" type="curve" smooth="yes"/>
      <point x="424.0" y="-10.0"/>
      <point x="584.0" y="101.0"/>
      <point x="584.0" y="264.0" type="curve" smooth="yes"/>
      <point x="584.0" y="394.0"/>
      <point x="502.0" y="479.0"/>
      <point x="358.0" y="479.0" type="curve" smooth="yes"/>
      <point x="317.0" y="479.0"/>
      <point x="276.0" y="472.0"/>
      <point x="230.0" y="462.0" type="curve"/>
      <point x="248.0" y="614.0" type="line"/>
      <point x="550.0" y="614.0" type="line"/>
      <point x="564.0" y="744.0" type="line"/>
      <point x="136.0" y="744.0" type="line"/>
      <point x="103.0" y="348.0" type="line"/>
      <point x="129.0" y="333.0" type="line"/>
      <point x="183.0" y="350.0"/>
      <point x="238.0" y="365.0"/>
      <point x="279.0" y="365.0" type="curve" smooth="yes"/>
      <point x="388.0" y="365.0"/>
      <point x="428.0" y="329.0"/>
      <point x="428.0" y="258.0" type="curve" smooth="yes"/>
      <point x="428.0" y="154.0"/>
      <point x="308.0" y="102.0"/>
      <point x="140.0" y="102.0" type="curve" smooth="yes"/>
      <point x="126.0" y="102.0"/>
      <point x="113.0" y="102.0"/>
      <point x="100.0" y="103.0" type="curve"/>
      <point x="100.0" y="-4.0" type="line"/>
      <point x="119.0" y="-9.0"/>
      <point x="148.0" y="-10.0"/>
    </contour>
  </outline>
</glyph>
<glyph name="four.osf" format="2">
  <advance width="689.0"/>
  <outline>
    <contour>
      <point x="86.0" y="0.0" type="line"/>
      <point x="665.0" y="0.0" type="line"/>
      <point x="665.0" y="114.0" type="line"/>
      <point x="215.0" y="114.0" type="line"/>
      <point x="252.0" y="176.0" type="line"/>
      <point x="327.0" y="314.0"/>
      <point x="402.0" y="453.0"/>
      <point x="477.0" y="591.0" type="curve"/>
      <point x="358.0" y="651.0" type="line"/>
      <point x="322.0" y="651.0" type="line"/>
      <point x="231.0" y="456.0"/>
      <point x="140.0" y="260.0"/>
      <point x="49.0" y="65.0" type="curve"/>
    </contour>
    <contour>
      <point x="404.0" y="-184.0" type="line"/>
      <point x="551.0" y="-184.0" type="line"/>
      <point x="551.0" y="314.0" type="line"/>
      <point x="423.0" y="314.0" type="line"/>
      <point x="404.0" y="114.0" type="line"/>
    </contour>
  </outline>
</glyph>
<glyph name="four.tf" format="2">
  <advance width="658.0"/>
  <outline>
    <contour>
      <point x="70.0" y="147.0" type="line"/>
      <point x="630.0" y="147.0" type="line"/>
      <point x="630.0" y="261.0" type="line"/>
      <point x="197.0" y="261.0" type="line"/>
      <point x="236.0" y="323.0" type="line"/>
      <point x="307.0" y="462.0"/>
      <point x="354.0" y="553.0"/>
      <point x="425.0" y="691.0" type="curve"/>
      <point x="310.0" y="751.0" type="line"/>
      <point x="272.0" y="751.0" type="line"/>
      <point x="189.0" y="556.0"/>
      <point x="125.0" y="410.0"/>
      <point x="33.0" y="212.0" type="curve"/>
    </contour>
    <contour>
      <point x="376.0" y="0.0" type="line"/>
      <point x="522.0" y="0.0" type="line"/>
      <point x="522.0" y="499.0" type="line"/>
      <point x="394.0" y="499.0" type="line"/>
      <point x="376.0" y="298.0" type="line"/>
    </contour>
  </outline>
</glyph>
<glyph name="four.tosf" format="2">
  <advance width="677.0"/>
  <outline>
    <contour>
      <point x="83.0" y="0.0" type="line"/>
      <point x="655.0" y="0.0" type="line"/>
      <point x="655.0" y="114.0" type="line"/>
      <point x="211.0" y="114.0" type="line"/>
      <point x="248.0" y="176.0" type="line"/>
      <point x="322.0" y="314.0"/>
      <point x="395.0" y="454.0"/>
      <point x="469.0" y="592.0" type="curve"/>
      <point x="351.0" y="652.0" type="line"/>
      <point x="315.0" y="652.0" type="line"/>
      <point x="225.0" y="457.0"/>
      <point x="136.0" y="260.0"/>
      <point x="46.0" y="65.0" type="curve"/>
    </contour>
    <contour>
      <point x="396.0" y="-184.0" type="line"/>
      <point x="543.0" y="-184.0" type="line"/>
      <point x="543.0" y="314.0" type="line"/>
      <point x="415.0" y="314.0" type="line"/>
      <point x="396.0" y="114.0" type="line"/>
    </contour>
  </outline>
</glyph>
<glyph name="g.sc" format="2">
  <advance width="705.0"/>
  <anchor x="353.0" y="0.0" name="bottom"/>
  <anchor x="384.0" y="-72.0" name="btm"/>
  <anchor x="387.0" y="892.0" name="top"/>
  <outline>
    <contour>
      <point x="47.0" y="320.0" type="curve" smooth="yes"/>
      <point x="47.0" y="115.0"/>
      <point x="175.0" y="-7.0"/>
      <point x="390.0" y="-7.0" type="curve" smooth="yes"/>
      <point x="545.0" y="-7.0"/>
      <point x="601.0" y="35.0"/>
      <point x="647.0" y="37.0" type="curve"/>
      <point x="647.0" y="361.0" type="line"/>
      <point x="393.0" y="361.0" type="line"/>
      <point x="393.0" y="247.0" type="line"/>
      <point x="522.0" y="240.0" type="line"/>
      <point x="500.0" y="259.0" type="line"/>
      <point x="500.0" y="125.0" type="line"/>
      <point x="474.0" y="117.0"/>
      <point x="440.0" y="111.0"/>
      <point x="385.0" y="111.0" type="curve" smooth="yes"/>
      <point x="266.0" y="111.0"/>
      <point x="209.0" y="205.0"/>
      <point x="209.0" y="331.0" type="curve" smooth="yes"/>
      <point x="209.0" y="455.0"/>
      <point x="285.0" y="529.0"/>
      <point x="408.0" y="529.0" type="curve" smooth="yes"/>
      <point x="510.0" y="529.0"/>
      <point x="561.0" y="513.0"/>
      <point x="604.0" y="495.0" type="curve"/>
      <point x="608.0" y="628.0" type="line"/>
      <point x="548.0" y="637.0"/>
      <point x="514.0" y="653.0"/>
      <point x="406.0" y="653.0" type="curve" smooth="yes"/>
      <point x="204.0" y="653.0"/>
      <point x="47.0" y="558.0"/>
    </contour>
  </outline>
</glyph>
<glyph name="gravecomb.case" format="2">
  <anchor x="0.0" y="830.0" name="_top"/>
  <anchor x="-55.0" y="1017.0" name="top"/>
  <outline>
    <contour>
      <point x="70.0" y="864.0" type="line"/>
      <point x="57.0" y="877.0"/>
      <point x="-65.0" y="992.0"/>
      <point x="-74.0" y="1017.0" type="curve"/>
      <point x="-180.0" y="953.0" type="line"/>
      <point x="-142.0" y="900.0"/>
      <point x="-45.0" y="818.0"/>
      <point x="-1.0" y="803.0" type="curve"/>
    </contour>
  </outline>
</glyph>
<glyph name="hbar.sc" format="2">
  <advance width="767.0"/>
  <outline>
    <contour>
      <point x="88.0" y="0.0" type="line"/>
      <point x="247.0" y="0.0" type="line"/>
      <point x="247.0" y="247.0" type="line"/>
      <point x="519.0" y="247.0" type="line"/>
      <point x="519.0" y="0.0" type="line"/>
      <point x="679.0" y="0.0" type="line"/>
      <point x="679.0" y="646.0" type="line"/>
      <point x="519.0" y="646.0" type="line"/>
      <point x="519.0" y="358.0" type="line"/>
      <point x="247.0" y="358.0" type="line"/>
      <point x="247.0" y="646.0" type="line"/>
      <point x="88.0" y="646.0" type="line"/>
    </contour>
    <contour>
      <point x="14.0" y="440.0" type="line"/>
      <point x="754.0" y="440.0" type="line"/>
      <point x="754.0" y="532.0" type="line"/>
      <point x="14.0" y="532.0" type="line"/>
    </contour>
  </outline>
</glyph>
<glyph name="m.sc" format="2">
  <advance width="900.0"/>
  <anchor x="450.0" y="0.0" name="bottom"/>
  <anchor x="457.0" y="-72.0" name="btm"/>
  <anchor x="457.0" y="722.0" name="top"/>
  <outline>
    <contour>
      <point x="34.0" y="0.0" type="line"/>
      <point x="179.0" y="0.0" type="line"/>
      <point x="209.0" y="344.0" type="line"/>
      <point x="225.0" y="532.0" type="line"/>
      <point x="277.0" y="340.0" type="line"/>
      <point x="387.0" y="-4.0" type="line"/>
      <point x="515.0" y="-4.0" type="line"/>
      <point x="616.0" y="340.0" type="line"/>
      <point x="667.0" y="532.0" type="line"/>
      <point x="679.0" y="344.0" type="line"/>
      <point x="713.0" y="0.0" type="line"/>
      <point x="866.0" y="0.0" type="line"/>
      <point x="779.0" y="646.0" type="line"/>
      <point x="568.0" y="646.0" type="line"/>
      <point x="485.0" y="314.0" type="line"/>
      <point x="457.0" y="164.0" type="line"/>
      <point x="423.0" y="314.0" type="line"/>
      <point x="330.0" y="646.0" type="line"/>
      <point x="112.0" y="646.0" type="line"/>
    </contour>
  </outline>
</glyph>
<glyph name="n.sc" format="2">
  <advance width="764.0"/>
  <anchor x="382.0" y="0.0" name="bottom"/>
  <anchor x="366.0" y="-72.0" name="btm"/>
  <anchor x="383.0" y="722.0" name="top"/>
  <outline>
    <contour>
      <point x="88.0" y="0.0" type="line"/>
      <point x="233.0" y="0.0" type="line"/>
      <point x="233.0" y="285.0" type="line"/>
      <point x="205.0" y="546.0" type="line"/>
      <point x="165.0" y="546.0" type="line"/>
      <point x="270.0" y="349.0" type="line"/>
      <point x="518.0" y="0.0" type="line"/>
      <point x="676.0" y="0.0" type="line"/>
      <point x="676.0" y="646.0" type="line"/>
      <point x="531.0" y="646.0" type="line"/>
      <point x="531.0" y="357.0" type="line"/>
      <point x="552.0" y="117.0" type="line"/>
      <point x="579.0" y="117.0" type="line"/>
      <point x="494.0" y="288.0" type="line"/>
      <point x="234.0" y="646.0" type="line"/>
      <point x="88.0" y="646.0" type="line"/>
    </contour>
  </outline>
</glyph>
<glyph name="nine.osf" format="2">
  <advance width="697.0"/>
  <outline>
    <contour>
      <point x="66.0" y="346.0" type="curve" smooth="yes"/>
      <point x="66.0" y="222.0"/>
      <point x="142.0" y="114.0"/>
      <point x="278.0" y="114.0" type="curve" smooth="yes"/>
      <point x="356.0" y="114.0"/>
      <point x="404.0" y="141.0"/>
      <point x="421.0" y="160.0" type="curve"/>
      <point x="392.0" y="247.0" type="line"/>
      <point x="376.0" y="240.0"/>
      <point x="359.0" y="231.0"/>
      <point x="317.0" y="231.0" type="curve" smooth="yes"/>
      <point x="261.0" y="231.0"/>
      <point x="219.0" y="276.0"/>
      <point x="219.0" y="386.0" type="curve" smooth="yes"/>
      <point x="219.0" y="462.0"/>
      <point x="263.0" y="514.0"/>
      <point x="341.0" y="514.0" type="curve" smooth="yes"/>
      <point x="434.0" y="514.0"/>
      <point x="469.0" y="417.0"/>
      <point x="467.0" y="283.0" type="curve" smooth="yes"/>
      <point x="465.0" y="144.0"/>
      <point x="350.0" y="-54.0"/>
      <point x="156.0" y="-103.0" type="curve"/>
      <point x="197.0" y="-192.0" type="line"/>
      <point x="376.0" y="-163.0"/>
      <point x="629.0" y="32.0"/>
      <point x="629.0" y="327.0" type="curve"/>
      <point x="629.0" y="487.0"/>
      <point x="531.0" y="621.0"/>
      <point x="356.0" y="621.0" type="curve" smooth="yes"/>
      <point x="162.0" y="621.0"/>
      <point x="66.0" y="500.0"/>
    </contour>
  </outline>
</glyph>
<glyph name="nine.tf" format="2">
  <advance width="658.0"/>
  <outline>
    <contour>
      <point x="59.0" y="492.0" type="curve" smooth="yes"/>
      <point x="59.0" y="376.0"/>
      <point x="133.0" y="273.0"/>
      <point x="258.0" y="273.0" type="curve" smooth="yes"/>
      <point x="333.0" y="273.0"/>
      <point x="381.0" y="298.0"/>
      <point x="396.0" y="316.0" type="curve"/>
      <point x="368.0" y="398.0" type="line"/>
      <point x="354.0" y="392.0"/>
      <point x="340.0" y="383.0"/>
      <point x="300.0" y="383.0" type="curve" smooth="yes"/>
      <point x="249.0" y="383.0"/>
      <point x="211.0" y="426.0"/>
      <point x="211.0" y="530.0" type="curve" smooth="yes"/>
      <point x="211.0" y="601.0"/>
      <point x="251.0" y="650.0"/>
      <point x="322.0" y="650.0" type="curve" smooth="yes"/>
      <point x="407.0" y="650.0"/>
      <point x="440.0" y="555.0"/>
      <point x="438.0" y="433.0" type="curve" smooth="yes"/>
      <point x="436.0" y="302.0"/>
      <point x="331.0" y="115.0"/>
      <point x="149.0" y="69.0" type="curve"/>
      <point x="188.0" y="-15.0" type="line"/>
      <point x="356.0" y="12.0"/>
      <point x="599.0" y="196.0"/>
      <point x="599.0" y="474.0" type="curve"/>
      <point x="599.0" y="625.0"/>
      <point x="501.0" y="751.0"/>
      <point x="338.0" y="751.0" type="curve" smooth="yes"/>
      <point x="152.0" y="751.0"/>
      <point x="59.0" y="636.0"/>
    </contour>
  </outline>
</glyph>
<glyph name="nine.tosf" format="2">
  <advance width="677.0"/>
  <outline>
    <contour>
      <point x="62.0" y="349.0" type="curve" smooth="yes"/>
      <point x="62.0" y="225.0"/>
      <point x="137.0" y="116.0"/>
      <point x="268.0" y="116.0" type="curve" smooth="yes"/>
      <point x="345.0" y="116.0"/>
      <point x="392.0" y="143.0"/>
      <point x="409.0" y="162.0" type="curve"/>
      <point x="380.0" y="249.0" type="line"/>
      <point x="364.0" y="242.0"/>
      <point x="348.0" y="233.0"/>
      <point x="308.0" y="233.0" type="curve" smooth="yes"/>
      <point x="254.0" y="233.0"/>
      <point x="213.0" y="279.0"/>
      <point x="213.0" y="389.0" type="curve" smooth="yes"/>
      <point x="213.0" y="465.0"/>
      <point x="256.0" y="517.0"/>
      <point x="331.0" y="517.0" type="curve" smooth="yes"/>
      <point x="419.0" y="517.0"/>
      <point x="455.0" y="421.0"/>
      <point x="453.0" y="286.0" type="curve" smooth="yes"/>
      <point x="451.0" y="147.0"/>
      <point x="340.0" y="-52.0"/>
      <point x="151.0" y="-101.0" type="curve"/>
      <point x="191.0" y="-190.0" type="line"/>
      <point x="367.0" y="-161.0"/>
      <point x="613.0" y="36.0"/>
      <point x="613.0" y="330.0" type="curve"/>
      <point x="613.0" y="489.0"/>
      <point x="516.0" y="624.0"/>
      <point x="346.0" y="624.0" type="curve" smooth="yes"/>
      <point x="157.0" y="624.0"/>
      <point x="62.0" y="503.0"/>
    </contour>
  </outline>
</glyph>
<glyph name="oe.sc" format="2">
  <advance width="1008.0"/>
  <anchor x="504.0" y="0.0" name="bottom"/>
  <anchor x="503.0" y="-72.0" name="btm"/>
  <anchor x="503.0" y="722.0" name="top"/>
  <outline>
    <contour>
      <point x="51.0" y="326.0" type="curve" smooth="yes"/>
      <point x="47.0" y="130.0"/>
      <point x="166.0" y="-8.0"/>
      <point x="371.0" y="-7.0" type="curve" smooth="yes"/>
      <point x="430.0" y="-7.0"/>
      <point x="493.0" y="12.0"/>
      <point x="525.0" y="38.0" type="curve"/>
      <point x="517.0" y="186.0" type="line"/>
      <point x="491.0" y="129.0"/>
      <point x="444.0" y="112.0"/>
      <point x="380.0" y="112.0" type="curve" smooth="yes"/>
      <point x="272.0" y="112.0"/>
      <point x="211.0" y="185.0"/>
      <point x="211.0" y="322.0" type="curve" smooth="yes"/>
      <point x="211.0" y="503.0"/>
      <point x="306.0" y="531.0"/>
      <point x="388.0" y="531.0" type="curve" smooth="yes"/>
      <point x="456.0" y="531.0"/>
      <point x="493.0" y="500.0"/>
      <point x="515.0" y="463.0" type="curve"/>
      <point x="525.0" y="612.0" type="line"/>
      <point x="496.0" y="637.0"/>
      <point x="448.0" y="653.0"/>
      <point x="385.0" y="653.0" type="curve" smooth="yes"/>
      <point x="200.0" y="653.0"/>
      <point x="56.0" y="549.0"/>
    </contour>
    <contour>
      <point x="496.0" y="0.0" type="line"/>
      <point x="965.0" y="0.0" type="line"/>
      <point x="965.0" y="121.0" type="line"/>
      <point x="652.0" y="121.0" type="line"/>
      <point x="652.0" y="274.0" type="line"/>
      <point x="862.0" y="274.0" type="line"/>
      <point x="862.0" y="390.0" type="line"/>
      <point x="652.0" y="390.0" type="line"/>
      <point x="652.0" y="528.0" type="line"/>
      <point x="935.0" y="528.0" type="line"/>
      <point x="935.0" y="646.0" type="line"/>
      <point x="496.0" y="646.0" type="line"/>
    </contour>
  </outline>
</glyph>
<glyph name="ogonekcomb.case" format="2">
  <anchor x="201.0" y="25.0" name="_ogonek"/>
  <outline>
    <contour>
      <point x="110.0" y="-221.0" type="curve" smooth="yes"/>
      <point x="163.0" y="-220.0"/>
      <point x="207.0" y="-206.0"/>
      <point x="234.0" y="-187.0" type="curve"/>
      <point x="230.0" y="-121.0" type="line"/>
      <point x="212.0" y="-126.0"/>
      <point x="183.0" y="-135.0"/>
      <point x="157.0" y="-135.0" type="curve" smooth="yes"/>
      <point x="121.0" y="-135.0"/>
      <point x="99.0" y="-123.0"/>
      <point x="98.0" y="-94.0" type="curve" smooth="yes"/>
      <point x="96.0" y="-41.0"/>
      <point x="156.0" y="9.0"/>
      <point x="213.0" y="39.0" type="curve"/>
      <point x="155.0" y="34.0" type="line"/>
      <point x="97.0" y="27.0" type="line"/>
      <point x="41.0" y="-2.0"/>
      <point x="-21.0" y="-56.0"/>
      <point x="-17.0" y="-130.0" type="curve" smooth="yes"/>
      <point x="-14.0" y="-191.0"/>
      <point x="47.0" y="-222.0"/>
    </contour>
  </outline>
</glyph>
<glyph name="one.osf" format="2">
  <advance width="490.0"/>
  <outline>
    <contour>
      <point x="191.0" y="0.0" type="line"/>
      <point x="348.0" y="0.0" type="line"/>
      <point x="349.0" y="612.0" type="line"/>
      <point x="273.0" y="624.0" type="line"/>
      <point x="236.0" y="593.0"/>
      <point x="127.0" y="538.0"/>
      <point x="62.0" y="521.0" type="curve"/>
      <point x="75.0" y="431.0" type="line"/>
      <point x="113.0" y="438.0"/>
      <point x="152.0" y="444.0"/>
      <point x="191.0" y="454.0" type="curve"/>
    </contour>
  </outline>
</glyph>
<glyph name="oslash.sc" format="2">
  <advance width="753.0"/>
  <anchor x="377.0" y="0.0" name="bottom"/>
  <anchor x="388.0" y="722.0" name="top"/>
  <outline>
    <contour>
      <point x="238.0" y="-98.0" type="line"/>
      <point x="575.0" y="756.0" type="line"/>
      <point x="515.0" y="767.0" type="line"/>
      <point x="178.0" y="-87.0" type="line"/>
    </contour>
    <contour>
      <point x="373.0" y="-7.0" type="curve" smooth="yes"/>
      <point x="564.0" y="-4.0"/>
      <point x="700.0" y="96.0"/>
      <point x="705.0" y="325.0" type="curve" smooth="yes"/>
      <point x="709.0" y="528.0"/>
      <point x="586.0" y="658.0"/>
      <point x="387.0" y="653.0" type="curve" smooth="yes"/>
      <point x="191.0" y="648.0"/>
      <point x="52.0" y="555.0"/>
      <point x="47.0" y="326.0" type="curve" smooth="yes"/>
      <point x="43.0" y="120.0"/>
      <point x="168.0" y="-11.0"/>
    </contour>
    <contour>
      <point x="377.0" y="109.0" type="curve" smooth="yes"/>
      <point x="264.0" y="109.0"/>
      <point x="209.0" y="199.0"/>
      <point x="209.0" y="322.0" type="curve" smooth="yes"/>
      <point x="209.0" y="481.0"/>
      <point x="288.0" y="534.0"/>
      <point x="384.0" y="534.0" type="curve" smooth="yes"/>
      <point x="491.0" y="534.0"/>
      <point x="543.0" y="451.0"/>
      <point x="543.0" y="329.0" type="curve" smooth="yes"/>
      <point x="543.0" y="172.0"/>
      <point x="478.0" y="109.0"/>
    </contour>
  </outline>
</glyph>
<glyph name="p.sc" format="2">
  <advance width="645.0"/>
  <anchor x="323.0" y="0.0" name="bottom"/>
  <anchor x="332.0" y="-72.0" name="btm"/>
  <anchor x="355.0" y="723.0" name="top"/>
  <outline>
    <contour>
      <point x="88.0" y="0.0" type="line"/>
      <point x="245.0" y="0.0" type="line"/>
      <point x="245.0" y="188.0" type="line"/>
      <point x="261.0" y="188.0"/>
      <point x="285.0" y="188.0"/>
      <point x="324.0" y="188.0" type="curve" smooth="yes"/>
      <point x="510.0" y="188.0"/>
      <point x="611.0" y="274.0"/>
      <point x="611.0" y="426.0" type="curve" smooth="yes"/>
      <point x="611.0" y="592.0"/>
      <point x="513.0" y="653.0"/>
      <point x="347.0" y="653.0" type="curve" smooth="yes"/>
      <point x="278.0" y="653.0"/>
      <point x="215.0" y="646.0"/>
      <point x="140.0" y="646.0" type="curve" smooth="yes"/>
      <point x="88.0" y="646.0" type="line"/>
    </contour>
    <contour>
      <point x="245.0" y="306.0" type="curve"/>
      <point x="245.0" y="538.0" type="line"/>
      <point x="267.0" y="541.0"/>
      <point x="301.0" y="543.0"/>
      <point x="320.0" y="543.0" type="curve" smooth="yes"/>
      <point x="408.0" y="545.0"/>
      <point x="456.0" y="499.0"/>
      <point x="456.0" y="427.0" type="curve" smooth="yes"/>
      <point x="456.0" y="335.0"/>
      <point x="393.0" y="302.0"/>
      <point x="321.0" y="302.0" type="curve" smooth="yes"/>
      <point x="294.0" y="302.0"/>
      <point x="265.0" y="304.0"/>
    </contour>
  </outline>
</glyph>
<glyph name="pi.sc" format="2">
  <advance width="834.0"/>
  <outline>
    <contour>
      <point x="312.0" y="0.0" type="line"/>
      <point x="312.0" y="548.0" type="line"/>
      <point x="299.0" y="533.0" type="line"/>
      <point x="530.0" y="533.0" type="line"/>
      <point x="517.0" y="547.0" type="line"/>
      <point x="517.0" y="0.0" type="line"/>
      <point x="672.0" y="0.0" type="line"/>
      <point x="672.0" y="547.0" type="line"/>
      <point x="658.0" y="533.0" type="line"/>
      <point x="783.0" y="534.0" type="line"/>
      <point x="783.0" y="646.0" type="line"/>
      <point x="51.0" y="646.0" type="line"/>
      <point x="51.0" y="534.0" type="line"/>
      <point x="170.0" y="533.0" type="line"/>
      <point x="157.0" y="549.0" type="line"/>
      <point x="157.0" y="0.0" type="line"/>
    </contour>
  </outline>
</glyph>
<glyph name="q.sc" format="2">
  <advance width="753.0"/>
  <anchor x="377.0" y="0.0" name="bottom"/>
  <anchor x="376.0" y="-72.0" name="btm"/>
  <anchor x="376.0" y="722.0" name="top"/>
  <outline>
    <contour>
      <point x="615.0" y="-149.0" type="curve" smooth="yes"/>
      <point x="661.0" y="-149.0"/>
      <point x="713.0" y="-137.0"/>
      <point x="728.0" y="-129.0" type="curve"/>
      <point x="728.0" y="-23.0" type="line"/>
      <point x="706.0" y="-29.0"/>
      <point x="659.0" y="-35.0"/>
      <point x="633.0" y="-35.0" type="curve" smooth="yes"/>
      <point x="540.0" y="-35.0"/>
      <point x="471.0" y="-28.0"/>
      <point x="453.0" y="24.0" type="curve"/>
      <point x="405.0" y="24.0" type="line"/>
      <point x="331.0" y="4.0" type="line"/>
      <point x="364.0" y="-110.0"/>
      <point x="468.0" y="-149.0"/>
    </contour>
    <contour>
      <point x="373.0" y="-7.0" type="curve" smooth="yes"/>
      <point x="564.0" y="-4.0"/>
      <point x="700.0" y="96.0"/>
      <point x="705.0" y="325.0" type="curve" smooth="yes"/>
      <point x="709.0" y="528.0"/>
      <point x="586.0" y="658.0"/>
      <point x="387.0" y="653.0" type="curve" smooth="yes"/>
      <point x="191.0" y="648.0"/>
      <point x="52.0" y="555.0"/>
      <point x="47.0" y="326.0" type="curve" smooth="yes"/>
      <point x="43.0" y="120.0"/>
      <point x="168.0" y="-11.0"/>
    </contour>
    <contour>
      <point x="377.0" y="109.0" type="curve" smooth="yes"/>
      <point x="264.0" y="109.0"/>
      <point x="209.0" y="199.0"/>
      <point x="209.0" y="322.0" type="curve" smooth="yes"/>
      <point x="209.0" y="481.0"/>
      <point x="288.0" y="534.0"/>
      <point x="384.0" y="534.0" type="curve" smooth="yes"/>
      <point x="491.0" y="534.0"/>
      <point x="543.0" y="451.0"/>
      <point x="543.0" y="329.0" type="curve" smooth="yes"/>
      <point x="543.0" y="172.0"/>
      <point x="478.0" y="109.0"/>
    </contour>
  </outline>
</glyph>
<glyph name="questiondown.case" format="2">
  <advance width="516.0"/>
  <outline>
    <contour>
      <point x="346.0" y="641.0" type="curve"/>
      <point x="230.0" y="641.0" type="line"/>
      <point x="242.0" y="598.0"/>
      <point x="251.0" y="577.0"/>
      <point x="248.0" y="541.0" type="curve" smooth="yes"/>
      <point x="238.0" y="411.0"/>
      <point x="30.0" y="388.0"/>
      <point x="30.0" y="207.0" type="curve" smooth="yes"/>
      <point x="27.0" y="95.0"/>
      <point x="99.0" y="-13.0"/>
      <point x="318.0" y="-13.0" type="curve" smooth="yes"/>
      <point x="380.0" y="-13.0"/>
      <point x="430.0" y="-1.0"/>
      <point x="449.0" y="11.0" type="curve"/>
      <point x="449.0" y="124.0" type="line"/>
      <point x="434.0" y="120.0"/>
      <point x="409.0" y="111.0"/>
      <point x="349.0" y="111.0" type="curve" smooth="yes"/>
      <point x="240.0" y="111.0"/>
      <point x="190.0" y="145.0"/>
      <point x="190.0" y="214.0" type="curve" smooth="yes"/>
      <point x="190.0" y="343.0"/>
      <point x="386.0" y="358.0"/>
      <point x="385.0" y="510.0" type="curve" smooth="yes"/>
      <point x="384.0" y="574.0"/>
      <point x="365.0" y="614.0"/>
    </contour>
    <contour>
      <point x="276.0" y="899.0" type="curve" smooth="yes"/>
      <point x="225.0" y="899.0"/>
      <point x="182.0" y="855.0"/>
      <point x="182.0" y="804.0" type="curve" smooth="yes"/>
      <point x="183.0" y="756.0"/>
      <point x="216.0" y="719.0"/>
      <point x="268.0" y="719.0" type="curve" smooth="yes"/>
      <point x="318.0" y="719.0"/>
      <point x="363.0" y="762.0"/>
      <point x="362.0" y="813.0" type="curve" smooth="yes"/>
      <point x="361.0" y="862.0"/>
      <point x="323.0" y="899.0"/>
    </contour>
  </outline>
</glyph>
<glyph name="r.sc" format="2">
  <advance width="681.0"/>
  <anchor x="341.0" y="0.0" name="bottom"/>
  <anchor x="347.0" y="-72.0" name="btm"/>
  <anchor x="358.0" y="722.0" name="top"/>
  <outline>
    <contour>
      <point x="245.0" y="0.0" type="line"/>
      <point x="245.0" y="231.0" type="line"/>
      <point x="359.0" y="231.0"/>
      <point x="388.0" y="238.0"/>
      <point x="428.0" y="244.0" type="curve" smooth="yes"/>
      <point x="538.0" y="260.0"/>
      <point x="610.0" y="317.0"/>
      <point x="610.0" y="449.0" type="curve" smooth="yes"/>
      <point x="610.0" y="611.0"/>
      <point x="482.0" y="653.0"/>
      <point x="351.0" y="653.0" type="curve" smooth="yes"/>
      <point x="249.0" y="653.0"/>
      <point x="200.0" y="646.0"/>
      <point x="155.0" y="646.0" type="curve" smooth="yes"/>
      <point x="133.0" y="646.0"/>
      <point x="110.0" y="646.0"/>
      <point x="88.0" y="646.0" type="curve"/>
      <point x="88.0" y="0.0" type="line"/>
    </contour>
    <contour>
      <point x="245.0" y="341.0" type="curve"/>
      <point x="245.0" y="533.0" type="line"/>
      <point x="270.0" y="539.0"/>
      <point x="304.0" y="541.0"/>
      <point x="332.0" y="541.0" type="curve" smooth="yes"/>
      <point x="438.0" y="541.0"/>
      <point x="459.0" y="495.0"/>
      <point x="459.0" y="447.0" type="curve" smooth="yes"/>
      <point x="459.0" y="387.0"/>
      <point x="425.0" y="338.0"/>
      <point x="340.0" y="338.0" type="curve" smooth="yes"/>
      <point x="314.0" y="338.0"/>
      <point x="264.0" y="339.0"/>
    </contour>
    <contour>
      <point x="481.0" y="0.0" type="curve"/>
      <point x="655.0" y="0.0" type="line"/>
      <point x="654.0" y="2.0"/>
      <point x="631.0" y="39.0"/>
      <point x="626.0" y="47.0" type="curve" smooth="yes"/>
      <point x="573.0" y="130.0"/>
      <point x="544.0" y="246.0"/>
      <point x="468.0" y="276.0" type="curve"/>
      <point x="372.0" y="263.0" type="line"/>
      <point x="334.0" y="233.0" type="line"/>
      <point x="400.0" y="232.0"/>
      <point x="418.0" y="118.0"/>
      <point x="455.0" y="46.0" type="curve" smooth="yes"/>
      <point x="470.0" y="17.0"/>
      <point x="473.0" y="9.0"/>
    </contour>
  </outline>
</glyph>
<glyph name="seven.dnom" format="2">
  <advance width="469.0"/>
  <outline>
    <contour>
      <point x="103.0" y="0.0" type="curve"/>
      <point x="251.0" y="0.0" type="line"/>
      <point x="444.0" y="511.0" type="line"/>
      <point x="417.0" y="549.0" type="line"/>
      <point x="25.0" y="549.0" type="line"/>
      <point x="25.0" y="424.0" type="line"/>
      <point x="293.0" y="423.0" type="line"/>
      <point x="262.0" y="359.0"/>
      <point x="144.0" y="74.0"/>
    </contour>
  </outline>
</glyph>
<glyph name="seven.tf" format="2">
  <advance width="658.0"/>
  <outline>
    <contour>
      <point x="152.0" y="0.0" type="curve"/>
      <point x="327.0" y="0.0" type="line"/>
      <point x="604.0" y="689.0" type="line"/>
      <point x="567.0" y="747.0" type="line"/>
      <point x="60.0" y="747.0" type="line"/>
      <point x="60.0" y="613.0" type="line"/>
      <point x="434.0" y="612.0" type="line"/>
      <point x="361.0" y="447.0"/>
      <point x="261.0" y="217.0"/>
    </contour>
  </outline>
</glyph>
<glyph name="six.dnom" format="2">
  <advance width="535.0"/>
  <outline>
    <contour>
      <point x="40.0" y="228.0" type="curve" smooth="yes"/>
      <point x="40.0" y="90.0"/>
      <point x="136.0" y="-6.0"/>
      <point x="263.0" y="-6.0" type="curve" smooth="yes"/>
      <point x="419.0" y="-6.0"/>
      <point x="495.0" y="92.0"/>
      <point x="495.0" y="206.0" type="curve" smooth="yes"/>
      <point x="495.0" y="308.0"/>
      <point x="427.0" y="375.0"/>
      <point x="336.0" y="375.0" type="curve" smooth="yes"/>
      <point x="272.0" y="375.0"/>
      <point x="228.0" y="347.0"/>
      <point x="216.0" y="331.0" type="curve"/>
      <point x="241.0" y="264.0" type="line"/>
      <point x="253.0" y="269.0"/>
      <point x="268.0" y="276.0"/>
      <point x="293.0" y="276.0" type="curve" smooth="yes"/>
      <point x="329.0" y="276.0"/>
      <point x="363.0" y="251.0"/>
      <point x="363.0" y="183.0" type="curve" smooth="yes"/>
      <point x="363.0" y="123.0"/>
      <point x="333.0" y="85.0"/>
      <point x="276.0" y="85.0" type="curve" smooth="yes"/>
      <point x="206.0" y="85.0"/>
      <point x="181.0" y="153.0"/>
      <point x="182.0" y="250.0" type="curve" smooth="yes"/>
      <point x="183.0" y="361.0"/>
      <point x="262.0" y="484.0"/>
      <point x="406.0" y="518.0" type="curve"/>
      <point x="376.0" y="598.0" type="line"/>
      <point x="237.0" y="582.0"/>
      <point x="40.0" y="447.0"/>
    </contour>
  </outline>
</glyph>
<glyph name="six.tf" format="2">
  <advance width="658.0"/>
  <outline>
    <contour>
      <point x="56.0" y="286.0" type="curve" smooth="yes"/>
      <point x="56.0" y="126.0"/>
      <point x="158.0" y="-8.0"/>
      <point x="322.0" y="-8.0" type="curve" smooth="yes"/>
      <point x="513.0" y="-8.0"/>
      <point x="602.0" y="123.0"/>
      <point x="602.0" y="271.0" type="curve" smooth="yes"/>
      <point x="602.0" y="393.0"/>
      <point x="527.0" y="498.0"/>
      <point x="401.0" y="498.0" type="curve" smooth="yes"/>
      <point x="330.0" y="498.0"/>
      <point x="281.0" y="472.0"/>
      <point x="262.0" y="452.0" type="curve"/>
      <point x="292.0" y="363.0" type="line"/>
      <point x="306.0" y="371.0"/>
      <point x="328.0" y="381.0"/>
      <point x="362.0" y="381.0" type="curve" smooth="yes"/>
      <point x="409.0" y="381.0"/>
      <point x="449.0" y="346.0"/>
      <point x="449.0" y="236.0" type="curve" smooth="yes"/>
      <point x="449.0" y="154.0"/>
      <point x="412.0" y="99.0"/>
      <point x="336.0" y="99.0" type="curve" smooth="yes"/>
      <point x="248.0" y="99.0"/>
      <point x="216.0" y="200.0"/>
      <point x="218.0" y="330.0" type="curve" smooth="yes"/>
      <point x="220.0" y="473.0"/>
      <point x="298.0" y="635.0"/>
      <point x="476.0" y="683.0" type="curve"/>
      <point x="439.0" y="774.0" type="line"/>
      <point x="268.0" y="746.0"/>
      <point x="56.0" y="574.0"/>
    </contour>
  </outline>
</glyph>
<glyph name="slash.case" format="2">
  <advance width="422.0"/>
  <outline>
    <contour>
      <point x="12.0" y="-177.0" type="line"/>
      <point x="136.0" y="-177.0" type="line"/>
      <point x="410.0" y="781.0" type="line"/>
      <point x="286.0" y="781.0" type="line"/>
    </contour>
  </outline>
</glyph>
<glyph name="three.osf" format="2">
  <advance width="571.0"/>
  <outline>
    <contour>
      <point x="60.0" y="-141.0" type="line"/>
      <point x="79.0" y="-147.0"/>
      <point x="122.0" y="-164.0"/>
      <point x="197.0" y="-164.0" type="curve" smooth="yes"/>
      <point x="396.0" y="-164.0"/>
      <point x="529.0" y="-57.0"/>
      <point x="529.0" y="83.0" type="curve" smooth="yes"/>
      <point x="529.0" y="164.0"/>
      <point x="473.0" y="263.0"/>
      <point x="329.0" y="260.0" type="curve"/>
      <point x="329.0" y="247.0" type="line"/>
      <point x="415.0" y="277.0"/>
      <point x="490.0" y="344.0"/>
      <point x="490.0" y="448.0" type="curve" smooth="yes"/>
      <point x="490.0" y="554.0"/>
      <point x="412.0" y="625.0"/>
      <point x="253.0" y="625.0" type="curve" smooth="yes"/>
      <point x="160.0" y="625.0"/>
      <point x="66.0" y="582.0"/>
      <point x="38.0" y="551.0" type="curve"/>
      <point x="83.0" y="456.0" type="line"/>
      <point x="114.0" y="478.0"/>
      <point x="159.0" y="505.0"/>
      <point x="232.0" y="505.0" type="curve" smooth="yes"/>
      <point x="290.0" y="505.0"/>
      <point x="334.0" y="483.0"/>
      <point x="333.0" y="427.0" type="curve" smooth="yes"/>
      <point x="333.0" y="382.0"/>
      <point x="307.0" y="347.0"/>
      <point x="258.0" y="319.0" type="curve" smooth="yes"/>
      <point x="229.0" y="304.0"/>
      <point x="183.0" y="290.0"/>
      <point x="139.0" y="280.0" type="curve"/>
      <point x="160.0" y="184.0" type="line"/>
      <point x="228.0" y="201.0" type="line"/>
      <point x="331.0" y="205.0"/>
      <point x="367.0" y="149.0"/>
      <point x="367.0" y="82.0" type="curve" smooth="yes"/>
      <point x="367.0" y="-7.0"/>
      <point x="274.0" y="-53.0"/>
      <point x="151.0" y="-53.0" type="curve" smooth="yes"/>
      <point x="122.0" y="-53.0"/>
      <point x="91.0" y="-48.0"/>
      <point x="60.0" y="-42.0" type="curve"/>
    </contour>
  </outline>
</glyph>
<glyph name="three.tf" format="2">
  <advance width="658.0"/>
  <outline>
    <contour>
      <point x="82.0" y="12.0" type="line"/>
      <point x="111.0" y="6.0"/>
      <point x="156.0" y="-11.0"/>
      <point x="221.0" y="-11.0" type="curve" smooth="yes"/>
      <point x="451.0" y="-11.0"/>
      <point x="599.0" y="96.0"/>
      <point x="599.0" y="223.0" type="curve" smooth="yes"/>
      <point x="599.0" y="304.0"/>
      <point x="526.0" y="398.0"/>
      <point x="367.0" y="395.0" type="curve"/>
      <point x="367.0" y="382.0" type="line"/>
      <point x="469.0" y="412.0"/>
      <point x="554.0" y="480.0"/>
      <point x="554.0" y="577.0" type="curve" smooth="yes"/>
      <point x="554.0" y="683.0"/>
      <point x="455.0" y="754.0"/>
      <point x="296.0" y="754.0" type="curve" smooth="yes"/>
      <point x="193.0" y="754.0"/>
      <point x="93.0" y="711.0"/>
      <point x="56.0" y="680.0" type="curve"/>
      <point x="106.0" y="585.0" type="line"/>
      <point x="143.0" y="607.0"/>
      <point x="197.0" y="634.0"/>
      <point x="278.0" y="634.0" type="curve" smooth="yes"/>
      <point x="340.0" y="634.0"/>
      <point x="401.0" y="619.0"/>
      <point x="399.0" y="550.0" type="curve" smooth="yes"/>
      <point x="398.0" y="511.0"/>
      <point x="357.0" y="481.0"/>
      <point x="295.0" y="453.0" type="curve" smooth="yes"/>
      <point x="259.0" y="437.0"/>
      <point x="215.0" y="424.0"/>
      <point x="173.0" y="415.0" type="curve"/>
      <point x="198.0" y="319.0" type="line"/>
      <point x="264.0" y="335.0" type="line"/>
      <point x="395.0" y="340.0"/>
      <point x="439.0" y="286.0"/>
      <point x="439.0" y="222.0" type="curve" smooth="yes"/>
      <point x="439.0" y="146.0"/>
      <point x="330.0" y="100.0"/>
      <point x="180.0" y="100.0" type="curve" smooth="yes"/>
      <point x="149.0" y="100.0"/>
      <point x="115.0" y="105.0"/>
      <point x="82.0" y="111.0" type="curve"/>
    </contour>
  </outline>
</glyph>
<glyph name="two.dnom" format="2">
  <advance width="496.0"/>
  <outline>
    <contour>
      <point x="57.0" y="0.0" type="line"/>
      <point x="446.0" y="0.0" type="line"/>
      <point x="446.0" y="103.0" type="line"/>
      <point x="205.0" y="86.0" type="line"/>
      <point x="333.0" y="167.0"/>
      <point x="425.0" y="270.0"/>
      <point x="425.0" y="382.0" type="curve" smooth="yes"/>
      <point x="425.0" y="473.0"/>
      <point x="373.0" y="555.0"/>
      <point x="237.0" y="555.0" type="curve" smooth="yes"/>
      <point x="129.0" y="555.0"/>
      <point x="73.0" y="512.0"/>
      <point x="43.0" y="482.0" type="curve"/>
      <point x="84.0" y="415.0" type="line"/>
      <point x="111.0" y="440.0"/>
      <point x="162.0" y="451.0"/>
      <point x="212.0" y="451.0" type="curve" smooth="yes"/>
      <point x="257.0" y="451.0"/>
      <point x="288.0" y="420.0"/>
      <point x="288.0" y="362.0" type="curve" smooth="yes"/>
      <point x="288.0" y="236.0"/>
      <point x="145.0" y="115.0"/>
      <point x="40.0" y="56.0" type="curve"/>
    </contour>
  </outline>
</glyph>
